  0
SECTION
  2
HEADER
  9
$ACADVER
  1
AC1018
  9
$ACADMAINTVER
 70
     0
  9
$DWGCODEPAGE
  3
ANSI_1252
  9
$EXTMIN
 10
100867.900976764
 20
439772.511540746
 30
0.0
  9
$EXTMAX
 10
101065.633116825
 20
439971.727102072
 30
0.0
  9
$LIMMIN
 10
0.0
 20
0.0
  9
$LIMMAX
 10
12.0
 20
9.0
  9
$ORTHOMODE
 70
     0
  9
$REGENMODE
 70
     1
  9
$FILLMODE
 70
     1
  9
$QTEXTMODE
 70
     0
  9
$MIRRTEXT
 70
     1
  9
$LTSCALE
 40
1.0
  9
$ATTMODE
 70
     1
  9
$TEXTSIZE
 40
0.2
  9
$TRACEWID
 40
0.05
  9
$TEXTSTYLE
  7
Standard
  9
$CLAYER
  8
0
  9
$CELTYPE
  6
ByLayer
  9
$CECOLOR
 62
   256
  9
$CELTSCALE
 40
1.0
  9
$DISPSILH
 70
     0
  9
$LUNITS
 70
     2
  9
$LUPREC
 70
     4
  9
$SKETCHINC
 40
0.1
  9
$FILLETRAD
 40
0.5
  9
$AUNITS
 70
     0
  9
$AUPREC
 70
     0
  9
$MENU
  1
.
  9
$ELEVATION
 40
0.0
  9
$PELEVATION
 40
0.0
  9
$THICKNESS
 40
0.0
  9
$LIMCHECK
 70
     0
  9
$CHAMFERA
 40
0.5
  9
$CHAMFERB
 40
0.5
  9
$CHAMFERC
 40
1.0
  9
$CHAMFERD
 40
0.0
  9
$SKPOLY
 70
     0
  9
$TDCREATE
 40
2455343.56230316
  9
$TDUCREATE
 40
2455343.728969826
  9
$TDUPDATE
 40
2455343.562303171
  9
$TDUUPDATE
 40
2455343.728969838
  9
$TDINDWG
 40
0.0000000116
  9
$TDUSRTIMER
 40
0.0000000116
  9
$USRTIMER
 70
     1
  9
$ANGBASE
 50
0.0
  9
$ANGDIR
 70
     0
  9
$PDMODE
 70
     0
  9
$PDSIZE
 40
0.0
  9
$PLINEWID
 40
0.0
  9
$SPLFRAME
 70
     0
  9
$SPLINETYPE
 70
     6
  9
$SPLINESEGS
 70
     8
  9
$HANDSEED
  5
00020001
  9
$SURFTAB1
 70
     6
  9
$SURFTAB2
 70
     6
  9
$SURFTYPE
 70
     6
  9
$SURFU
 70
     6
  9
$SURFV
 70
     6
  9
$UCSBASE
  2

  9
$UCSNAME
  2

  9
$UCSORG
 10
0.0
 20
0.0
 30
0.0
  9
$UCSXDIR
 10
1.0
 20
0.0
 30
0.0
  9
$UCSYDIR
 10
0.0
 20
1.0
 30
0.0
  9
$UCSORTHOREF
  2

  9
$UCSORTHOVIEW
 70
     0
  9
$UCSORGTOP
 10
0.0
 20
0.0
 30
0.0
  9
$UCSORGBOTTOM
 10
0.0
 20
0.0
 30
0.0
  9
$UCSORGLEFT
 10
0.0
 20
0.0
 30
0.0
  9
$UCSORGRIGHT
 10
0.0
 20
0.0
 30
0.0
  9
$UCSORGFRONT
 10
0.0
 20
0.0
 30
0.0
  9
$UCSORGBACK
 10
0.0
 20
0.0
 30
0.0
  9
$PUCSBASE
  2

  9
$PUCSNAME
  2

  9
$PUCSORG
 10
0.0
 20
0.0
 30
0.0
  9
$PUCSXDIR
 10
1.0
 20
0.0
 30
0.0
  9
$PUCSYDIR
 10
0.0
 20
1.0
 30
0.0
  9
$PUCSORTHOREF
  2

  9
$PUCSORTHOVIEW
 70
     0
  9
$PUCSORGTOP
 10
0.0
 20
0.0
 30
0.0
  9
$PUCSORGBOTTOM
 10
0.0
 20
0.0
 30
0.0
  9
$PUCSORGLEFT
 10
0.0
 20
0.0
 30
0.0
  9
$PUCSORGRIGHT
 10
0.0
 20
0.0
 30
0.0
  9
$PUCSORGFRONT
 10
0.0
 20
0.0
 30
0.0
  9
$PUCSORGBACK
 10
0.0
 20
0.0
 30
0.0
  9
$WORLDVIEW
 70
     1
  9
$SHADEDGE
 70
     3
  9
$SHADEDIF
 70
    70
  9
$TILEMODE
 70
     1
  9
$MAXACTVP
 70
    64
  9
$PINSBASE
 10
0.0
 20
0.0
 30
0.0
  9
$PLIMCHECK
 70
     0
  9
$PEXTMIN
 10
1.000000000000000E+20
 20
1.000000000000000E+20
 30
1.000000000000000E+20
  9
$PEXTMAX
 10
-1.000000000000000E+20
 20
-1.000000000000000E+20
 30
-1.000000000000000E+20
  9
$PLIMMIN
 10
0.0
 20
0.0
  9
$PLIMMAX
 10
12.0
 20
9.0
  9
$UNITMODE
 70
     0
  9
$VISRETAIN
 70
     1
  9
$PLINEGEN
 70
     0
  9
$PSLTSCALE
 70
     1
  9
$TREEDEPTH
 70
  3020
  9
$CMLSTYLE
  2
Standard
  9
$CMLJUST
 70
     0
  9
$CMLSCALE
 40
1.0
  9
$PROXYGRAPHICS
 70
     1
  9
$MEASUREMENT
 70
     0
  9
$CELWEIGHT
370
    -1
  9
$ENDCAPS
280
     0
  9
$JOINSTYLE
280
     0
  9
$LWDISPLAY
290
     0
  9
$INSUNITS
 70
     1
  9
$HYPERLINKBASE
  1

  9
$STYLESHEET
  1

  9
$XEDIT
290
     1
  9
$CEPSNTYPE
380
     0
  9
$PSTYLEMODE
290
     1
  9
$FINGERPRINTGUID
  2
{E7F7769E-AACA-40AB-9EF3-61BBAFBCBA26}
  9
$VERSIONGUID
  2
{FAEB1C32-E019-11D5-929B-00C0DF256EC4}
  9
$EXTNAMES
290
     1
  9
$PSVPSCALE
 40
0.0
  9
$OLESTARTUP
290
     0
  9
$SORTENTS
280
   127
  9
$INDEXCTL
280
     0
  9
$HIDETEXT
280
     1
  9
$XCLIPFRAME
290
     0
  9
$HALOGAP
280
     0
  9
$OBSCOLOR
 70
   257
  9
$OBSLTYPE
280
     0
  9
$INTERSECTIONDISPLAY
280
     0
  9
$INTERSECTIONCOLOR
 70
   257
  9
$DIMASSOC
280
     2
  9
$PROJECTNAME
  1

  0
ENDSEC
  0
SECTION
  2
CLASSES
  0
CLASS
  1
ACDBDICTIONARYWDFLT
  2
AcDbDictionaryWithDefault
  3
ObjectDBX Classes
 90
        0
 91
        4
280
     0
281
     0
  0
CLASS
  1
VISUALSTYLE
  2
AcDbVisualStyle
  3
ObjectDBX Classes
 90
     4095
 91
        4
280
     0
281
     0
  0
ENDSEC
  0
SECTION
  2
TABLES
  0
TABLE
  2
VPORT
  5
8
330
0
100
AcDbSymbolTable
 70
     1
  0
VPORT
  5
29
330
8
100
AcDbSymbolTableRecord
100
AcDbViewportTableRecord
  2
*Active
 70
     0
 10
0.0
 20
0.0
 11
1.0
 21
1.0
 12
80.25
 22
106.4409457059851
 13
0.0
 23
0.0
 14
0.5
 24
0.5
 15
0.5
 25
0.5
 16
0.0
 26
0.0
 36
1.0
 17
0.0
 27
0.0
 37
0.0
 40
113.3818914119703
 41
0.8863849310366128
 42
50.0
 43
0.0
 44
0.0
 50
0.0
 51
0.0
 71
     0
 72
  1000
 73
     1
 74
     3
 75
     0
 76
     0
 77
     0
 78
     0
281
     0
 65
     1
110
0.0
120
0.0
130
0.0
111
1.0
121
0.0
131
0.0
112
0.0
122
1.0
132
0.0
 79
     0
146
0.0
  0
ENDTAB
  0
TABLE
  2
LTYPE
  5
5
330
0
100
AcDbSymbolTable
 70
     1
  0
LTYPE
  5
14
330
5
100
AcDbSymbolTableRecord
100
AcDbLinetypeTableRecord
  2
ByBlock
 70
     0
  3

 72
    65
 73
     0
 40
0.0
  0
LTYPE
  5
15
330
5
100
AcDbSymbolTableRecord
100
AcDbLinetypeTableRecord
  2
ByLayer
 70
     0
  3

 72
    65
 73
     0
 40
0.0
  0
LTYPE
  5
16
330
5
100
AcDbSymbolTableRecord
100
AcDbLinetypeTableRecord
  2
Continuous
 70
     0
  3
Solid line
 72
    65
 73
     0
 40
0.0
  0
ENDTAB
  0
TABLE
  2
LAYER
  5
2
330
0
100
AcDbSymbolTable
 70
     1
  0
LAYER
  5
10
330
2
100
AcDbSymbolTableRecord
100
AcDbLayerTableRecord
  2
0
 70
     0
 62
     7
  6
Continuous
370
    -3
390
F
  0
ENDTAB
  0
TABLE
  2
STYLE
  5
3
330
0
100
AcDbSymbolTable
 70
     1
  0
STYLE
  5
11
330
3
100
AcDbSymbolTableRecord
100
AcDbTextStyleTableRecord
  2
Standard
 70
     0
 40
0.0
 41
1.0
 50
0.0
 71
     0
 42
0.2
  3
txt
  4

  0
ENDTAB
  0
TABLE
  2
VIEW
  5
6
330
0
100
AcDbSymbolTable
 70
     0
  0
ENDTAB
  0
TABLE
  2
UCS
  5
7
330
0
100
AcDbSymbolTable
 70
     0
  0
ENDTAB
  0
TABLE
  2
APPID
  5
9
330
0
100
AcDbSymbolTable
 70
     1
  0
APPID
  5
12
330
9
100
AcDbSymbolTableRecord
100
AcDbRegAppTableRecord
  2
ACAD
 70
     0
  0
ENDTAB
  0
TABLE
  2
DIMSTYLE
  5
A
330
0
100
AcDbSymbolTable
 70
     1
100
AcDbDimStyleTable
  0
DIMSTYLE
105
27
330
A
100
AcDbSymbolTableRecord
100
AcDbDimStyleTableRecord
  2
Standard
 70
     0
340
11
  0
ENDTAB
  0
TABLE
  2
BLOCK_RECORD
  5
1
330
0
100
AcDbSymbolTable
 70
     1
  0
BLOCK_RECORD
  5
1F
330
1
100
AcDbSymbolTableRecord
100
AcDbBlockTableRecord
  2
*Model_Space
340
22
  0
BLOCK_RECORD
  5
1B
330
1
100
AcDbSymbolTableRecord
100
AcDbBlockTableRecord
  2
*Paper_Space
340
1E
  0
BLOCK_RECORD
  5
23
330
1
100
AcDbSymbolTableRecord
100
AcDbBlockTableRecord
  2
*Paper_Space0
340
26
  0
ENDTAB
  0
ENDSEC
  0
SECTION
  2
BLOCKS
  0
BLOCK
  5
20
330
1F
100
AcDbEntity
  8
0
100
AcDbBlockBegin
  2
*Model_Space
 70
     0
 10
0.0
 20
0.0
 30
0.0
  3
*Model_Space
  1

  0
ENDBLK
  5
21
330
1F
100
AcDbEntity
  8
0
100
AcDbBlockEnd
  0
BLOCK
  5
1C
330
1B
100
AcDbEntity
 67
     1
  8
0
100
AcDbBlockBegin
  2
*Paper_Space
 70
     0
 10
0.0
 20
0.0
 30
0.0
  3
*Paper_Space
  1

  0
ENDBLK
  5
1D
330
1B
100
AcDbEntity
 67
     1
  8
0
100
AcDbBlockEnd
  0
BLOCK
  5
24
330
23
100
AcDbEntity
  8
0
100
AcDbBlockBegin
  2
*Paper_Space0
 70
     0
 10
0.0
 20
0.0
 30
0.0
  3
*Paper_Space0
  1

  0
ENDBLK
  5
25
330
23
100
AcDbEntity
  8
0
100
AcDbBlockEnd
  0
ENDSEC
  0
SECTION
  2
ENTITIES
  0
HATCH
  5
20000
  8
0
100
AcDbEntity
100
AcDbHatch
 10
0
 20
0
 30
0
210
0
220
0
230
1
  2
SOLID
 70
1
 71
0
 91
1
 92
2
 72
0
 73
1
 93
198
 10
100959.712509346
 20
439852.456524549
 10
100954.523564917
 20
439847.932493495
 10
100939.514721897
 20
439835.179406924
 10
100935.221768221
 20
439831.402380966
 10
100934.015781822
 20
439830.288373175
 10
100933.694788873
 20
439829.683368184
 10
100933.46779752
 20
439828.926361536
 10
100929.462839852
 20
439825.481338086
 10
100928.714842003
 20
439825.355338602
 10
100928.322843842
 20
439825.225338262
 10
100925.10687887
 20
439822.365318556
 10
100921.837916216
 20
439819.301297046
 10
100920.502928594
 20
439818.11029132
 10
100914.455996809
 20
439812.717251664
 10
100908.713058413
 20
439807.692217311
 10
100904.878100015
 20
439804.294193976
 10
100900.765145513
 20
439800.570168215
 10
100899.669157809
 20
439799.562161201
 10
100896.350195027
 20
439796.511139992
 10
100890.763258481
 20
439791.302103609
 10
100887.61829517
 20
439788.282082312
 10
100885.957315612
 20
439786.591070158
 10
100884.640333777
 20
439785.074058861
 10
100883.413352508
 20
439783.4980468
 10
100883.293700033
 20
439783.360269996
 10
100883.125333124
 20
439783.14445344
 10
100882.968550072
 20
439782.920095768
 10
100882.823769056
 20
439782.687793584
 10
100882.691392667
 20
439782.448183325
 10
100882.571804882
 20
439782.201966663
 10
100882.465319407
 20
439781.949791686
 10
100882.372242582
 20
439781.692373769
 10
100882.29295562
 20
439781.430853659
 10
100881.435371917
 20
439781.928036521
 10
100880.239382716
 20
439781.063031112
 10
100877.166415075
 20
439778.425013278
 10
100874.920343439
 20
439776.293927283
 10
100874.72108835
 20
439776.081427389
 10
100874.540516131
 20
439775.867995237
 10
100874.371061977
 20
439775.645609998
 10
100874.21318634
 20
439775.414878822
 10
100874.067282136
 20
439775.176374794
 10
100873.933739814
 20
439774.930732229
 10
100873.812924577
 20
439774.678625324
 10
100873.705130576
 20
439774.420680916
 10
100873.610646133
 20
439774.157588091
 10
100873.529702092
 20
439773.889986552
 10
100873.462513102
 20
439773.618565991
 10
100873.409274398
 20
439773.34412444
 10
100873.370102983
 20
439773.067268365
 10
100873.345116298
 20
439772.788798124
 10
100873.334455629
 20
439772.511540746
 10
100867.900976764
 20
439780.102282194
 10
100868.22532617
 20
439780.053535686
 10
100868.474072424
 20
439780.028792897
 10
100868.723725544
 20
439780.016522733
 10
100868.973660415
 20
439780.016753189
 10
100869.223272287
 20
439780.029480587
 10
100869.471930599
 20
439780.054674379
 10
100869.719061566
 20
439780.092278214
 10
100869.963973533
 20
439780.142189039
 10
100870.206074488
 20
439780.204282245
 10
100870.444808691
 20
439780.278418081
 10
100870.679483377
 20
439780.364382361
 10
100870.909590012
 20
439780.461982395
 10
100871.134526313
 20
439780.570969609
 10
100871.353725705
 20
439780.691064933
 10
100871.566673915
 20
439780.821990792
 10
100871.772778007
 20
439780.963383201
 10
100871.971526365
 20
439781.114882931
 10
100872.160256284
 20
439781.274277485
 10
100874.425362714
 20
439783.383066391
 10
100879.482305571
 20
439788.074099049
 10
100879.90230082
 20
439788.464101763
 10
100880.61729522
 20
439788.904104276
 10
100885.85723926
 20
439793.471135362
 10
100892.749162618
 20
439799.750178854
 10
100902.25505478
 20
439808.599240675
 10
100904.443028462
 20
439810.770256181
 10
100909.600971647
 20
439815.41728831
 10
100913.165933326
 20
439818.543309708
 10
100917.06004203
 20
439822.000682738
 10
100917.063908378
 20
439821.996348922
 10
100918.864871492
 20
439823.591344412
 10
100920.326855638
 20
439824.885353313
 10
100927.829774296
 20
439831.52339898
 10
100931.063739074
 20
439834.398418804
 10
100935.098697015
 20
439837.815441946
 10
100937.863668597
 20
439840.120457459
 10
100942.39761924
 20
439844.147485255
 10
100948.278556435
 20
439849.260520282
 10
100962.840400771
 20
439861.929607202
 10
100967.808344922
 20
439866.496639211
 10
100980.174215133
 20
439877.031711066
 10
100983.496178589
 20
439880.011731806
 10
100993.793063047
 20
439889.44979806
 10
100997.839015114
 20
439893.384826257
 10
100998.759005703
 20
439894.145831402
 10
101002.530960701
 20
439897.841857971
 10
101005.963917187
 20
439901.434884339
 10
101009.347875432
 20
439904.873909359
 10
101012.383836901
 20
439908.054932729
 10
101015.535796978
 20
439911.34995693
 10
101020.901727859
 20
439917.061999109
 10
101023.042698807
 20
439919.473017199
 10
101024.019436533
 20
439920.574776473
 10
101024.972949056
 20
439921.696695993
 10
101025.902820385
 20
439922.838286743
 10
101028.184622891
 20
439925.814065899
 10
101029.632599879
 20
439927.746081009
 10
101030.155061065
 20
439928.33511335
 10
101030.635720548
 20
439928.958725683
 10
101031.072296398
 20
439929.613957423
 10
101031.462715973
 20
439930.297697851
 10
101031.805125757
 20
439931.006700911
 10
101032.097900163
 20
439931.737600626
 10
101032.339649244
 20
439932.486927037
 10
101032.529225298
 20
439933.251122733
 10
101032.665728314
 20
439934.026559691
 10
101032.748510243
 20
439934.80955653
 10
101032.777178079
 20
439935.596395969
 10
101032.751595721
 20
439936.383342501
 10
101032.671884623
 20
439937.166660097
 10
101032.538423211
 20
439937.942629956
 10
101032.351845094
 20
439938.707568167
 10
101032.11303605
 20
439939.457843193
 10
101031.823129824
 20
439940.189893095
 10
101031.483502745
 20
439940.900242483
 10
101031.483502745
 20
439940.900242483
 10
101035.136954935
 20
439944.659209403
 10
101037.178606997
 20
439944.659204837
 10
101039.473378885
 20
439946.670238839
 10
101039.893372769
 20
439947.180242748
 10
101045.479289976
 20
439954.092295984
 10
101051.38020216
 20
439961.424352549
 10
101056.928120398
 20
439968.244405062
 10
101058.613095477
 20
439970.32342109
 10
101058.81309779
 20
439970.097418495
 10
101058.847103329
 20
439969.59741366
 10
101059.28310775
 20
439969.160408532
 10
101060.05409975
 20
439969.80641296
 10
101062.0007471
 20
439971.727102072
 10
101065.633116825
 20
439967.757381032
 10
101060.335183881
 20
439962.234340286
 10
101054.22127084
 20
439955.000285101
 10
101049.598348241
 20
439948.484233448
 10
101046.790403008
 20
439943.830195468
 10
101045.782415314
 20
439942.819188107
 10
101045.359422749
 20
439942.191183083
 10
101044.123009191
 20
439938.302391529
 10
101042.660820255
 20
439934.492747389
 10
101040.97788218
 20
439930.77534623
 10
101039.07998003
 20
439927.162966534
 10
101036.973637799
 20
439923.668025771
 10
101036.973637799
 20
439923.668025771
 10
101035.663660694
 20
439921.734010327
 10
101034.647677893
 20
439920.283998832
 10
101033.448695267
 20
439918.83498775
 10
101032.174709408
 20
439917.682979666
 10
101031.288721134
 20
439916.711972429
 10
101030.243734048
 20
439915.648964678
 10
101026.933772052
 20
439912.541942601
 10
101021.197837685
 20
439907.176904538
 10
101017.261883589
 20
439903.416877693
 10
101017.146570955
 20
439903.16527799
 10
101017.133812757
 20
439902.894495989
 10
101017.142564509
 20
439902.658752319
 10
101017.171115094
 20
439902.424542313
 10
101017.219267286
 20
439902.193543696
 10
101017.286661823
 20
439901.967468756
 10
101017.372828257
 20
439901.747849138
 10
101017.477183394
 20
439901.536214073
 10
101017.598948724
 20
439901.334138694
 10
101017.73726496
 20
439901.14303089
 10
101017.891092173
 20
439900.964312595
 10
101015.581934418
 20
439899.007839606
 10
101014.863975943
 20
439899.66743823
 10
101014.68930606
 20
439899.791272339
 10
101014.470436907
 20
439899.897059131
 10
101014.237098235
 20
439899.96511434
 10
101013.995721748
 20
439899.993567206
 10
101013.752982182
 20
439899.981642093
 10
101013.515565146
 20
439899.929668773
 10
101013.289969899
 20
439899.839050874
 10
101010.888948812
 20
439898.144841996
 10
101005.003013848
 20
439892.84380495
 10
101001.583053055
 20
439889.635782225
 10
101001.301056282
 20
439889.371780357
 10
100999.111081383
 20
439887.317765808
 10
100998.673086405
 20
439886.906762894
 10
100989.503189106
 20
439878.519704062
 10
100986.977216841
 20
439876.258688329
 10
100984.467244881
 20
439873.968672294
 10
100983.600254254
 20
439873.205667021
 10
100966.034441637
 20
439857.967562406
 10
100965.048452193
 20
439857.108556505
 10
100963.657467096
 20
439855.895548168
 10
100959.712509346
 20
439852.456524549
 97
0
 75
0
 76
1
 98
0
  0
ENDSEC
  0
SECTION
  2
OBJECTS
  0
DICTIONARY
  5
C
330
0
100
AcDbDictionary
281
     1
  3
ACAD_GROUP
350
D
  0
DICTIONARY
  5
D
102
{ACAD_REACTORS
330
C
102
}
330
C
100
AcDbDictionary
281
     1
  0
ENDSEC
  0
EOF
