  0
SECTION
  2
HEADER
  9
$ACADVER
  1
AC1018
  9
$ACADMAINTVER
 70
     0
  9
$DWGCODEPAGE
  3
ANSI_1252
  9
$EXTMIN
 10
98707.8482572716
 20
436812.383844085
 30
0.0
  9
$EXTMAX
 10
99388.2430523773
 20
437697.297445782
 30
0.0
  9
$LIMMIN
 10
0.0
 20
0.0
  9
$LIMMAX
 10
12.0
 20
9.0
  9
$ORTHOMODE
 70
     0
  9
$REGENMODE
 70
     1
  9
$FILLMODE
 70
     1
  9
$QTEXTMODE
 70
     0
  9
$MIRRTEXT
 70
     1
  9
$LTSCALE
 40
1.0
  9
$ATTMODE
 70
     1
  9
$TEXTSIZE
 40
0.2
  9
$TRACEWID
 40
0.05
  9
$TEXTSTYLE
  7
Standard
  9
$CLAYER
  8
0
  9
$CELTYPE
  6
ByLayer
  9
$CECOLOR
 62
   256
  9
$CELTSCALE
 40
1.0
  9
$DISPSILH
 70
     0
  9
$LUNITS
 70
     2
  9
$LUPREC
 70
     4
  9
$SKETCHINC
 40
0.1
  9
$FILLETRAD
 40
0.5
  9
$AUNITS
 70
     0
  9
$AUPREC
 70
     0
  9
$MENU
  1
.
  9
$ELEVATION
 40
0.0
  9
$PELEVATION
 40
0.0
  9
$THICKNESS
 40
0.0
  9
$LIMCHECK
 70
     0
  9
$CHAMFERA
 40
0.5
  9
$CHAMFERB
 40
0.5
  9
$CHAMFERC
 40
1.0
  9
$CHAMFERD
 40
0.0
  9
$SKPOLY
 70
     0
  9
$TDCREATE
 40
2455343.56230316
  9
$TDUCREATE
 40
2455343.728969826
  9
$TDUPDATE
 40
2455343.562303171
  9
$TDUUPDATE
 40
2455343.728969838
  9
$TDINDWG
 40
0.0000000116
  9
$TDUSRTIMER
 40
0.0000000116
  9
$USRTIMER
 70
     1
  9
$ANGBASE
 50
0.0
  9
$ANGDIR
 70
     0
  9
$PDMODE
 70
     0
  9
$PDSIZE
 40
0.0
  9
$PLINEWID
 40
0.0
  9
$SPLFRAME
 70
     0
  9
$SPLINETYPE
 70
     6
  9
$SPLINESEGS
 70
     8
  9
$HANDSEED
  5
00020014
  9
$SURFTAB1
 70
     6
  9
$SURFTAB2
 70
     6
  9
$SURFTYPE
 70
     6
  9
$SURFU
 70
     6
  9
$SURFV
 70
     6
  9
$UCSBASE
  2

  9
$UCSNAME
  2

  9
$UCSORG
 10
0.0
 20
0.0
 30
0.0
  9
$UCSXDIR
 10
1.0
 20
0.0
 30
0.0
  9
$UCSYDIR
 10
0.0
 20
1.0
 30
0.0
  9
$UCSORTHOREF
  2

  9
$UCSORTHOVIEW
 70
     0
  9
$UCSORGTOP
 10
0.0
 20
0.0
 30
0.0
  9
$UCSORGBOTTOM
 10
0.0
 20
0.0
 30
0.0
  9
$UCSORGLEFT
 10
0.0
 20
0.0
 30
0.0
  9
$UCSORGRIGHT
 10
0.0
 20
0.0
 30
0.0
  9
$UCSORGFRONT
 10
0.0
 20
0.0
 30
0.0
  9
$UCSORGBACK
 10
0.0
 20
0.0
 30
0.0
  9
$PUCSBASE
  2

  9
$PUCSNAME
  2

  9
$PUCSORG
 10
0.0
 20
0.0
 30
0.0
  9
$PUCSXDIR
 10
1.0
 20
0.0
 30
0.0
  9
$PUCSYDIR
 10
0.0
 20
1.0
 30
0.0
  9
$PUCSORTHOREF
  2

  9
$PUCSORTHOVIEW
 70
     0
  9
$PUCSORGTOP
 10
0.0
 20
0.0
 30
0.0
  9
$PUCSORGBOTTOM
 10
0.0
 20
0.0
 30
0.0
  9
$PUCSORGLEFT
 10
0.0
 20
0.0
 30
0.0
  9
$PUCSORGRIGHT
 10
0.0
 20
0.0
 30
0.0
  9
$PUCSORGFRONT
 10
0.0
 20
0.0
 30
0.0
  9
$PUCSORGBACK
 10
0.0
 20
0.0
 30
0.0
  9
$WORLDVIEW
 70
     1
  9
$SHADEDGE
 70
     3
  9
$SHADEDIF
 70
    70
  9
$TILEMODE
 70
     1
  9
$MAXACTVP
 70
    64
  9
$PINSBASE
 10
0.0
 20
0.0
 30
0.0
  9
$PLIMCHECK
 70
     0
  9
$PEXTMIN
 10
1.000000000000000E+20
 20
1.000000000000000E+20
 30
1.000000000000000E+20
  9
$PEXTMAX
 10
-1.000000000000000E+20
 20
-1.000000000000000E+20
 30
-1.000000000000000E+20
  9
$PLIMMIN
 10
0.0
 20
0.0
  9
$PLIMMAX
 10
12.0
 20
9.0
  9
$UNITMODE
 70
     0
  9
$VISRETAIN
 70
     1
  9
$PLINEGEN
 70
     0
  9
$PSLTSCALE
 70
     1
  9
$TREEDEPTH
 70
  3020
  9
$CMLSTYLE
  2
Standard
  9
$CMLJUST
 70
     0
  9
$CMLSCALE
 40
1.0
  9
$PROXYGRAPHICS
 70
     1
  9
$MEASUREMENT
 70
     0
  9
$CELWEIGHT
370
    -1
  9
$ENDCAPS
280
     0
  9
$JOINSTYLE
280
     0
  9
$LWDISPLAY
290
     0
  9
$INSUNITS
 70
     1
  9
$HYPERLINKBASE
  1

  9
$STYLESHEET
  1

  9
$XEDIT
290
     1
  9
$CEPSNTYPE
380
     0
  9
$PSTYLEMODE
290
     1
  9
$FINGERPRINTGUID
  2
{E7F7769E-AACA-40AB-9EF3-61BBAFBCBA26}
  9
$VERSIONGUID
  2
{FAEB1C32-E019-11D5-929B-00C0DF256EC4}
  9
$EXTNAMES
290
     1
  9
$PSVPSCALE
 40
0.0
  9
$OLESTARTUP
290
     0
  9
$SORTENTS
280
   127
  9
$INDEXCTL
280
     0
  9
$HIDETEXT
280
     1
  9
$XCLIPFRAME
290
     0
  9
$HALOGAP
280
     0
  9
$OBSCOLOR
 70
   257
  9
$OBSLTYPE
280
     0
  9
$INTERSECTIONDISPLAY
280
     0
  9
$INTERSECTIONCOLOR
 70
   257
  9
$DIMASSOC
280
     2
  9
$PROJECTNAME
  1

  0
ENDSEC
  0
SECTION
  2
CLASSES
  0
CLASS
  1
ACDBDICTIONARYWDFLT
  2
AcDbDictionaryWithDefault
  3
ObjectDBX Classes
 90
        0
 91
        4
280
     0
281
     0
  0
CLASS
  1
VISUALSTYLE
  2
AcDbVisualStyle
  3
ObjectDBX Classes
 90
     4095
 91
        4
280
     0
281
     0
  0
ENDSEC
  0
SECTION
  2
TABLES
  0
TABLE
  2
VPORT
  5
8
330
0
100
AcDbSymbolTable
 70
     1
  0
VPORT
  5
29
330
8
100
AcDbSymbolTableRecord
100
AcDbViewportTableRecord
  2
*Active
 70
     0
 10
0.0
 20
0.0
 11
1.0
 21
1.0
 12
80.25
 22
106.4409457059851
 13
0.0
 23
0.0
 14
0.5
 24
0.5
 15
0.5
 25
0.5
 16
0.0
 26
0.0
 36
1.0
 17
0.0
 27
0.0
 37
0.0
 40
113.3818914119703
 41
0.8863849310366128
 42
50.0
 43
0.0
 44
0.0
 50
0.0
 51
0.0
 71
     0
 72
  1000
 73
     1
 74
     3
 75
     0
 76
     0
 77
     0
 78
     0
281
     0
 65
     1
110
0.0
120
0.0
130
0.0
111
1.0
121
0.0
131
0.0
112
0.0
122
1.0
132
0.0
 79
     0
146
0.0
  0
ENDTAB
  0
TABLE
  2
LTYPE
  5
5
330
0
100
AcDbSymbolTable
 70
     1
  0
LTYPE
  5
14
330
5
100
AcDbSymbolTableRecord
100
AcDbLinetypeTableRecord
  2
ByBlock
 70
     0
  3

 72
    65
 73
     0
 40
0.0
  0
LTYPE
  5
15
330
5
100
AcDbSymbolTableRecord
100
AcDbLinetypeTableRecord
  2
ByLayer
 70
     0
  3

 72
    65
 73
     0
 40
0.0
  0
LTYPE
  5
16
330
5
100
AcDbSymbolTableRecord
100
AcDbLinetypeTableRecord
  2
Continuous
 70
     0
  3
Solid line
 72
    65
 73
     0
 40
0.0
  0
ENDTAB
  0
TABLE
  2
LAYER
  5
2
330
0
100
AcDbSymbolTable
 70
     1
  0
LAYER
  5
10
330
2
100
AcDbSymbolTableRecord
100
AcDbLayerTableRecord
  2
0
 70
     0
 62
     7
  6
Continuous
370
    -3
390
F
  0
ENDTAB
  0
TABLE
  2
STYLE
  5
3
330
0
100
AcDbSymbolTable
 70
     1
  0
STYLE
  5
11
330
3
100
AcDbSymbolTableRecord
100
AcDbTextStyleTableRecord
  2
Standard
 70
     0
 40
0.0
 41
1.0
 50
0.0
 71
     0
 42
0.2
  3
txt
  4

  0
ENDTAB
  0
TABLE
  2
VIEW
  5
6
330
0
100
AcDbSymbolTable
 70
     0
  0
ENDTAB
  0
TABLE
  2
UCS
  5
7
330
0
100
AcDbSymbolTable
 70
     0
  0
ENDTAB
  0
TABLE
  2
APPID
  5
9
330
0
100
AcDbSymbolTable
 70
     1
  0
APPID
  5
12
330
9
100
AcDbSymbolTableRecord
100
AcDbRegAppTableRecord
  2
ACAD
 70
     0
  0
ENDTAB
  0
TABLE
  2
DIMSTYLE
  5
A
330
0
100
AcDbSymbolTable
 70
     1
100
AcDbDimStyleTable
  0
DIMSTYLE
105
27
330
A
100
AcDbSymbolTableRecord
100
AcDbDimStyleTableRecord
  2
Standard
 70
     0
340
11
  0
ENDTAB
  0
TABLE
  2
BLOCK_RECORD
  5
1
330
0
100
AcDbSymbolTable
 70
     1
  0
BLOCK_RECORD
  5
1F
330
1
100
AcDbSymbolTableRecord
100
AcDbBlockTableRecord
  2
*Model_Space
340
22
  0
BLOCK_RECORD
  5
1B
330
1
100
AcDbSymbolTableRecord
100
AcDbBlockTableRecord
  2
*Paper_Space
340
1E
  0
BLOCK_RECORD
  5
23
330
1
100
AcDbSymbolTableRecord
100
AcDbBlockTableRecord
  2
*Paper_Space0
340
26
  0
ENDTAB
  0
ENDSEC
  0
SECTION
  2
BLOCKS
  0
BLOCK
  5
20
330
1F
100
AcDbEntity
  8
0
100
AcDbBlockBegin
  2
*Model_Space
 70
     0
 10
0.0
 20
0.0
 30
0.0
  3
*Model_Space
  1

  0
ENDBLK
  5
21
330
1F
100
AcDbEntity
  8
0
100
AcDbBlockEnd
  0
BLOCK
  5
1C
330
1B
100
AcDbEntity
 67
     1
  8
0
100
AcDbBlockBegin
  2
*Paper_Space
 70
     0
 10
0.0
 20
0.0
 30
0.0
  3
*Paper_Space
  1

  0
ENDBLK
  5
1D
330
1B
100
AcDbEntity
 67
     1
  8
0
100
AcDbBlockEnd
  0
BLOCK
  5
24
330
23
100
AcDbEntity
  8
0
100
AcDbBlockBegin
  2
*Paper_Space0
 70
     0
 10
0.0
 20
0.0
 30
0.0
  3
*Paper_Space0
  1

  0
ENDBLK
  5
25
330
23
100
AcDbEntity
  8
0
100
AcDbBlockEnd
  0
ENDSEC
  0
SECTION
  2
ENTITIES
  0
HATCH
  5
20000
  8
0
100
AcDbEntity
100
AcDbHatch
 10
0
 20
0
 30
0
210
0
220
0
230
1
  2
SOLID
 70
1
 71
0
 91
1
 92
2
 72
0
 73
1
 93
16
 10
98860.1127502204
 20
437438.999363519
 10
98866.2399817524
 20
437414.057171318
 10
98870.8491564966
 20
437395.247026258
 10
98864.629145456
 20
437393.508073063
 10
98859.7239597258
 20
437413.510227223
 10
98852.9887052179
 20
437440.947438399
 10
98849.5675776283
 20
437454.695544472
 10
98845.7574369889
 20
437469.842661592
 10
98843.6133594272
 20
437478.180726426
 10
98843.4223530631
 20
437478.857731841
 10
98841.648167138
 20
437485.161928426
 10
98847.8745912014
 20
437486.692506781
 10
98849.701365509
 20
437480.40468398
 10
98851.3874260764
 20
437473.902633259
 10
98856.0755987524
 20
437455.320489354
 10
98860.1127502204
 20
437438.999363519
 97
0
 75
0
 76
1
 98
0
  0
HATCH
  5
20001
  8
0
100
AcDbEntity
100
AcDbHatch
 10
0
 20
0
 30
0
210
0
220
0
230
1
  2
SOLID
 70
1
 71
0
 91
1
 92
2
 72
0
 73
1
 93
36
 10
99089.0617393989
 20
436960.246555284
 10
99097.5018319715
 20
436953.783437775
 10
99100.0908603318
 20
436951.807401741
 10
99096.0008876057
 20
436946.444409912
 10
99085.6387684335
 20
436955.024557934
 10
99077.5796752437
 20
436961.769673338
 10
99069.546581611
 20
436968.591788818
 10
99061.8684894325
 20
436975.439900954
 10
99054.1043938837
 20
436982.652015869
 10
99046.4742975642
 20
436990.037130378
 10
99038.3691910379
 20
436998.393254786
 10
99031.1390924563
 20
437006.280368095
 10
99024.592999103
 20
437013.917473397
 10
99017.801211357
 20
437021.720218857
 10
99011.2228071208
 20
437029.703689198
 10
99004.4757056262
 20
437038.234801116
 10
99000.0276371141
 20
437044.055875941
 10
98998.1256074035
 20
437046.595908208
 10
98993.1055278842
 20
437053.435994088
 10
98995.758523812
 20
437055.303979614
 10
98996.3965339218
 20
437054.433968703
 10
99008.6547245643
 20
437038.167761294
 10
99015.9748616158
 20
437028.947047932
 10
99019.5678872049
 20
437024.561581236
 10
99021.0109078017
 20
437022.872558026
 10
99033.6510854662
 20
437008.42535648
 10
99035.8531156408
 20
437006.004321876
 10
99044.7942357782
 20
436996.467182906
 10
99048.5052842111
 20
436992.683126166
 10
99049.7252995724
 20
436991.506107888
 10
99055.1685149231
 20
436986.634898471
 10
99060.7594295348
 20
436981.933948562
 10
99065.6284837589
 20
436978.085880327
 10
99071.3255459537
 20
436973.735801309
 10
99081.2146540412
 20
436966.181664008
 10
99089.0617393989
 20
436960.246555284
 97
0
 75
0
 76
1
 98
0
  0
HATCH
  5
20002
  8
0
100
AcDbEntity
100
AcDbHatch
 10
0
 20
0
 30
0
210
0
220
0
230
1
  2
SOLID
 70
1
 71
0
 91
1
 92
2
 72
0
 73
1
 93
29
 10
99085.4187697078
 20
436954.758558505
 10
99093.4838624497
 20
436948.080443313
 10
99095.7908889935
 20
436946.170410343
 10
99091.919361144
 20
436941.094314499
 10
99072.2416895935
 20
436957.265698393
 10
99063.3205852182
 20
436964.888826899
 10
99054.4334773561
 20
436972.955957469
 10
99044.4083522306
 20
436982.482106994
 10
99035.2472323606
 20
436991.859247272
 10
99027.7281305131
 20
436999.979364672
 10
99014.1799420271
 20
437015.232579395
 10
99006.7158317084
 20
437024.423701954
 10
98998.7497113781
 20
437034.556834419
 10
98990.7125865575
 20
437045.203970275
 10
98987.5565363896
 20
437049.527024372
 10
98992.8245283162
 20
437053.237995617
 10
99000.0276419329
 20
437043.482872711
 10
99004.2037062141
 20
437038.022802491
 10
99010.9548077592
 20
437029.487690511
 10
99017.536717056
 20
437021.498804103
 10
99024.3329998602
 20
437013.691474582
 10
99030.8810932388
 20
437006.052369249
 10
99038.1171919139
 20
436998.157255835
 10
99046.2302985433
 20
436989.793131303
 10
99053.8663949404
 20
436982.402016705
 10
99061.6364905498
 20
436975.185901706
 10
99069.3205828234
 20
436968.329789469
 10
99077.3576764916
 20
436961.505673942
 10
99085.4187697078
 20
436954.758558505
 97
0
 75
0
 76
1
 98
0
  0
HATCH
  5
20003
  8
0
100
AcDbEntity
100
AcDbHatch
 10
0
 20
0
 30
0
210
0
220
0
230
1
  2
SOLID
 70
1
 71
0
 91
1
 92
2
 72
0
 73
1
 93
40
 10
98982.9923132411
 20
437073.723203455
 10
98994.2394997492
 20
437057.375005597
 10
98995.758523812
 20
437055.303979614
 10
98993.1055278842
 20
437053.435994088
 10
98991.9825098526
 20
437054.996013454
 10
98980.1613136018
 20
437072.20722155
 10
98974.0242057526
 20
437081.870333498
 10
98968.7241088827
 20
437090.670432628
 10
98963.2970066249
 20
437100.05753613
 10
98958.4539114097
 20
437108.916631103
 10
98953.552812353
 20
437118.213728975
 10
98948.9237147604
 20
437127.485824071
 10
98944.605617247
 20
437136.917917063
 10
98940.2245182135
 20
437146.508011424
 10
98931.7083064792
 20
437167.478207563
 10
98928.2302148328
 20
437176.673291062
 10
98924.8461205326
 20
437186.2413757
 10
98921.5850221441
 20
437196.369462229
 10
98918.4079205453
 20
437206.932550327
 10
98915.6078243151
 20
437217.050632396
 10
98914.9908027881
 20
437219.319650688
 10
98918.0308081909
 20
437220.218627569
 10
98919.1458473846
 20
437216.084594308
 10
98921.4629255661
 20
437207.888527351
 10
98921.932941216
 20
437206.251513904
 10
98928.049128662
 20
437186.906349667
 10
98928.5411430474
 20
437185.43433691
 10
98931.5860907546
 20
437176.725638172
 10
98934.8673148014
 20
437168.103181663
 10
98935.594333878
 20
437166.192164256
 10
98942.5935066373
 20
437149.113003863
 10
98943.2445216925
 20
437147.646989622
 10
98951.5127084276
 20
437129.579811578
 10
98952.1637223591
 20
437128.25079807
 10
98961.7379203578
 20
437109.548603893
 10
98962.5489361542
 20
437108.082588093
 10
98971.305104437
 20
437092.540418899
 10
98972.3141228971
 20
437090.862400017
 10
98982.0912975552
 20
437075.123219797
 10
98982.9923132411
 20
437073.723203455
 97
0
 75
0
 76
1
 98
0
  0
HATCH
  5
20004
  8
0
100
AcDbEntity
100
AcDbHatch
 10
0
 20
0
 30
0
210
0
220
0
230
1
  2
SOLID
 70
1
 71
0
 91
1
 92
2
 72
0
 73
1
 93
33
 10
98973.7302059972
 20
437081.688335239
 10
98979.8733139384
 20
437072.017223193
 10
98985.5924103281
 20
437063.513121577
 10
98991.7025103059
 20
437054.796014967
 10
98992.8245283162
 20
437053.237995617
 10
98987.5565363896
 20
437049.527024372
 10
98975.3123343624
 20
437067.20723907
 10
98968.064207822
 20
437078.523370716
 10
98961.5760889294
 20
437089.338492239
 10
98955.0209623602
 20
437101.050619256
 10
98948.5608343714
 20
437112.997746536
 10
98942.6877105351
 20
437124.767867178
 10
98936.8015798639
 20
437137.363992383
 10
98931.4824552349
 20
437149.544109834
 10
98926.5573320945
 20
437161.762223687
 10
98922.0532138899
 20
437173.617331483
 10
98917.7020907897
 20
437186.149441494
 10
98913.7679703462
 20
437198.587547003
 10
98908.3957910651
 20
437217.367700853
 10
98914.6598022008
 20
437219.221653204
 10
98915.2758236727
 20
437216.958634955
 10
98918.0759199169
 20
437206.838552875
 10
98924.5201200579
 20
437186.131378113
 10
98927.9062144478
 20
437176.553293406
 10
98931.3863061175
 20
437167.356209879
 10
98935.4324106062
 20
437156.922114118
 10
98939.9105180486
 20
437146.366013561
 10
98944.2916170632
 20
437136.777919205
 10
98953.2468123506
 20
437118.055730955
 10
98958.1499114477
 20
437108.754633048
 10
98962.9970067458
 20
437099.887537994
 10
98968.4261090608
 20
437090.494434434
 10
98973.7302059972
 20
437081.688335239
 97
0
 75
0
 76
1
 98
0
  0
HATCH
  5
20005
  8
0
100
AcDbEntity
100
AcDbHatch
 10
0
 20
0
 30
0
210
0
220
0
230
1
  2
SOLID
 70
1
 71
0
 91
1
 92
2
 72
0
 73
1
 93
17
 10
99356.0438293068
 20
436833.519480935
 10
99378.932987825
 20
436825.198230746
 10
99388.2430523773
 20
436821.814128887
 10
99386.3942091837
 20
436816.671071262
 10
99377.0730258441
 20
436820.022216059
 10
99354.1878680613
 20
436828.251465759
 10
99353.8508620429
 20
436828.798471968
 10
99323.4026531475
 20
436839.679803249
 10
99323.2566513865
 20
436839.819805359
 10
99324.2006322634
 20
436842.437812645
 10
99316.9845782789
 20
436845.543894181
 10
99317.0302934035
 20
436846.187250637
 10
99325.0576353267
 20
436842.455805257
 10
99337.7497222993
 20
436837.922667278
 10
99354.3878215391
 20
436833.696496487
 10
99355.9131660298
 20
436833.149257865
 10
99356.0438293068
 20
436833.519480935
 97
0
 75
0
 76
1
 98
0
  0
HATCH
  5
20006
  8
0
100
AcDbEntity
100
AcDbHatch
 10
0
 20
0
 30
0
210
0
220
0
230
1
  2
SOLID
 70
1
 71
0
 91
1
 92
2
 72
0
 73
1
 93
9
 10
99353.8898751608
 20
436827.304462714
 10
99386.0546711253
 20
436815.726554576
 10
99384.8530216884
 20
436812.383844085
 10
99321.2926837083
 20
436835.233795311
 10
99322.5306585026
 20
436838.682804956
 10
99322.9486631129
 20
436838.331799214
 10
99353.3918722776
 20
436827.420467774
 10
99353.8752336511
 20
436827.266812329
 10
99353.8898751608
 20
436827.304462714
 97
0
 75
0
 76
1
 98
0
  0
HATCH
  5
20007
  8
0
100
AcDbEntity
100
AcDbHatch
 10
0
 20
0
 30
0
210
0
220
0
230
1
  2
SOLID
 70
1
 71
0
 91
1
 92
2
 72
0
 73
1
 93
72
 10
99151.1603399497
 20
436917.733761538
 10
99165.8244634997
 20
436909.621587245
 10
99167.023473428
 20
436908.979573107
 10
99175.2705392961
 20
436904.850477497
 10
99182.8765957871
 20
436901.545392191
 10
99182.6255992509
 20
436901.031391386
 10
99186.4486271109
 20
436899.43434886
 10
99188.3646415104
 20
436898.583327249
 10
99189.3983936171
 20
436898.201672044
 10
99190.439407578
 20
436897.840294884
 10
99191.4872853902
 20
436897.499333787
 10
99192.5416270511
 20
436897.178919759
 10
99193.6020295577
 20
436896.879175789
 10
99194.6680889085
 20
436896.600213895
 10
99195.7393960999
 20
436896.342143075
 10
99196.8155421299
 20
436896.105061329
 10
99197.8961159966
 20
436895.889058673
 10
99199.6702382446
 20
436895.578861599
 10
99200.7234324496
 20
436895.444463276
 10
99201.7255200125
 20
436895.353079348
 10
99202.7302320984
 20
436895.297804463
 10
99203.7362436008
 20
436895.278710318
 10
99204.7423016539
 20
436895.295817006
 10
99205.7471078561
 20
436895.349105507
 10
99206.4987360283
 20
436895.416151092
 10
99203.5377793841
 20
436889.071139843
 10
99193.5735010989
 20
436892.819970351
 10
99193.299738923
 20
436892.887184668
 10
99192.9257482048
 20
436892.539888638
 10
99193.0106057564
 20
436892.03659
 10
99193.2477165875
 20
436891.932246069
 10
99202.8307897151
 20
436887.558137177
 10
99201.0558156915
 20
436883.754130447
 10
99195.8017758278
 20
436886.12319
 10
99195.9457736755
 20
436886.437190574
 10
99193.2997533937
 20
436887.655220705
 10
99191.2517377733
 20
436888.589243969
 10
99188.4907166271
 20
436889.859275392
 10
99186.1296985655
 20
436890.943302249
 10
99184.2496840849
 20
436891.818323688
 10
99180.5416558464
 20
436893.507365773
 10
99178.3296388904
 20
436894.528390947
 10
99178.2586382073
 20
436894.57739185
 10
99176.9656282619
 20
436895.178406589
 10
99174.3006078068
 20
436896.412436929
 10
99172.6825953921
 20
436897.161455354
 10
99170.9935824164
 20
436897.94547459
 10
99169.5905716413
 20
436898.596490567
 10
99168.4655630449
 20
436899.113503349
 10
99167.6275563955
 20
436899.527513037
 10
99166.8425501571
 20
436899.916522118
 10
99166.219545033
 20
436900.245529439
 10
99165.0575355506
 20
436900.850543049
 10
99163.9995266177
 20
436901.436555648
 10
99163.8295285479
 20
436901.136555384
 10
99145.4043729408
 20
436911.363774664
 10
99145.5783710454
 20
436911.661774877
 10
99126.2971974772
 20
436923.661011459
 10
99117.405112571
 20
436929.780123792
 10
99101.7889533419
 20
436941.741327818
 10
99096.0008876057
 20
436946.444409912
 10
99100.0908603318
 20
436951.807401741
 10
99101.6748776877
 20
436950.598379695
 10
99111.0689710022
 20
436943.686258669
 10
99114.0029997586
 20
436941.574221122
 10
99116.5930252242
 20
436939.701187925
 10
99131.6681685286
 20
436929.393997948
 10
99133.5691855285
 20
436928.221974711
 10
99136.959216065
 20
436926.106933108
 10
99142.1242613382
 20
436923.033870575
 10
99148.3793158688
 20
436919.350795027
 10
99151.1603399497
 20
436917.733761538
 97
0
 75
0
 76
1
 98
0
  0
HATCH
  5
20008
  8
0
100
AcDbEntity
100
AcDbHatch
 10
0
 20
0
 30
0
210
0
220
0
230
1
  2
SOLID
 70
1
 71
0
 91
1
 92
2
 72
0
 73
1
 93
42
 10
99167.8195612597
 20
436899.041508546
 10
99169.4465737884
 20
436898.282489999
 10
99172.095594133
 20
436897.05345983
 10
99174.0966095096
 20
436896.124437036
 10
99176.0616245927
 20
436895.214414657
 10
99178.0866401323
 20
436894.277391603
 10
99178.1576408153
 20
436894.2283907
 10
99180.7756608641
 20
436893.022360919
 10
99183.2666798631
 20
436891.884332633
 10
99185.2016947014
 20
436890.991310596
 10
99187.4297117538
 20
436889.967285254
 10
99188.3467187778
 20
436889.545274815
 10
99191.1437401359
 20
436888.266243031
 10
99193.7017597617
 20
436887.086213892
 10
99195.8017758278
 20
436886.12319
 10
99201.0558156915
 20
436883.754130447
 10
99197.8048632241
 20
436876.789118165
 10
99197.3768599227
 20
436876.988123058
 10
99186.0307702214
 20
436882.524254136
 10
99181.7017350566
 20
436884.749304768
 10
99174.5676765626
 20
436888.483388566
 10
99174.169674021
 20
436888.607392755
 10
99165.7386054228
 20
436892.964491402
 10
99152.389495084
 20
436900.078648704
 10
99143.8644220097
 20
436904.936750895
 10
99135.5943507091
 20
436909.704850275
 10
99125.5932601468
 20
436915.989973351
 10
99119.729263573
 20
436919.853623493
 10
99113.9617191778
 20
436923.859831577
 10
99108.294093996
 20
436928.006192557
 10
99100.0167036093
 20
436934.437545579
 10
99091.9179147802
 20
436941.092418123
 10
99095.7908889935
 20
436946.170410343
 10
99108.0340220037
 20
436936.367242869
 10
99117.2051142132
 20
436929.500123914
 10
99126.1071992254
 20
436923.373011446
 10
99132.8862616106
 20
436918.989927366
 10
99145.4043729408
 20
436911.363774664
 10
99163.8295285479
 20
436901.136555384
 10
99165.2915408686
 20
436900.329537997
 10
99166.357549585
 20
436899.772525497
 10
99167.8195612597
 20
436899.041508546
 97
0
 75
0
 76
1
 98
0
  0
HATCH
  5
20009
  8
0
100
AcDbEntity
100
AcDbHatch
 10
0
 20
0
 30
0
210
0
220
0
230
1
  2
SOLID
 70
1
 71
0
 91
3
 92
2
 72
0
 73
1
 93
196
 10
99248.0437098105
 20
436871.263290921
 10
99276.9543031944
 20
436860.016329502
 10
99279.0653186958
 20
436859.135305877
 10
99281.8363393029
 20
436857.949274682
 10
99284.7063601048
 20
436856.784242743
 10
99286.5973749562
 20
436855.884220918
 10
99288.6223907956
 20
436854.92819758
 10
99290.8844087781
 20
436853.827171319
 10
99292.580423425
 20
436852.86715083
 10
99294.5314412239
 20
436851.653126608
 10
99295.2954484766
 20
436851.145116927
 10
99296.397459684
 20
436850.326102451
 10
99297.6414719093
 20
436849.451086404
 10
99298.6314812393
 20
436848.801073909
 10
99299.7904914461
 20
436848.123059771
 10
99302.3485131876
 20
436846.718029095
 10
99306.6325478559
 20
436844.567978909
 10
99310.561576871
 20
436842.918934778
 10
99318.0376288468
 20
436840.157853017
 10
99321.7976543791
 20
436838.840812305
 10
99322.5306585026
 20
436838.682804956
 10
99321.2926837083
 20
436835.233795311
 10
99282.1024145923
 20
436849.338221542
 10
99249.162187854
 20
436861.329579831
 10
99222.7770060462
 20
436871.005866726
 10
99215.6089556618
 20
436873.757945308
 10
99216.8609332206
 20
436876.918952865
 10
99210.1048843997
 20
436879.673027823
 10
99201.0558156915
 20
436883.754130447
 10
99202.8307897151
 20
436887.558137177
 10
99224.3819543922
 20
436877.721892025
 10
99228.6029862578
 20
436875.844844256
 10
99235.904884604
 20
436872.65832125
 10
99235.926332053
 20
436872.648611696
 10
99235.9330521032
 20
436872.645701619
 10
99235.9398191525
 20
436872.642902544
 10
99235.9439392062
 20
436872.641277954
 10
99235.9551711543
 20
436872.636376372
 10
99236.077713981
 20
436872.599385218
 10
99236.2835290348
 20
436872.634422572
 10
99236.4521396283
 20
436872.757530108
 10
99236.5482354841
 20
436872.942854349
 10
99236.5516545844
 20
436873.151586315
 10
99236.462593821
 20
436873.338145961
 10
99234.9189976213
 20
436877.265797533
 10
99203.5377793841
 20
436889.071139843
 10
99206.4987360283
 20
436895.416151092
 10
99207.129420779
 20
436895.485458007
 10
99207.7583674006
 20
436895.569087032
 10
99208.3852488917
 20
436895.666995145
 10
99209.0097422519
 20
436895.779131372
 10
99209.8557438024
 20
436895.965125099
 10
99210.6838294575
 20
436896.131136867
 10
99212.0034966388
 20
436896.448811244
 10
99212.4978323037
 20
436896.585559743
 10
99212.9895878816
 20
436896.731312319
 10
99213.4785993722
 20
436896.886021966
 10
99213.9647037759
 20
436897.049635698
 10
99214.447739092
 20
436897.222099502
 10
99214.9275443204
 20
436897.403355389
 10
99215.4039594614
 20
436897.593343357
 10
99215.8768255145
 20
436897.791999402
 10
99216.3459854801
 20
436897.999258536
 10
99216.8112813578
 20
436898.215049745
 10
99217.2725581482
 20
436898.43930305
 10
99217.7296638507
 20
436898.671942438
 10
99218.1824444658
 20
436898.912890909
 10
99218.6307489935
 20
436899.162067462
 10
99219.1150343127
 20
436899.451123946
 10
99219.5940765381
 20
436899.748790519
 10
99220.0677216701
 20
436900.054971191
 10
99220.5358197095
 20
436900.369567963
 10
99220.9982186556
 20
436900.69247983
 10
99221.4547735096
 20
436901.023605794
 10
99221.9053372717
 20
436901.362837865
 10
99222.3497649418
 20
436901.710069028
 10
99222.7879165209
 20
436902.065188297
 10
99223.2196510091
 20
436902.428081665
 10
99223.6448304072
 20
436902.798633142
 10
99224.0633197154
 20
436903.176724719
 10
99224.4749839343
 20
436903.56223539
 10
99224.8796930646
 20
436903.955042174
 10
99225.2773161068
 20
436904.355019058
 10
99225.6677270616
 20
436904.762039048
 10
99231.9046893335
 20
436911.849026354
 10
99248.2568256873
 20
436903.039832637
 10
99248.2161647106
 20
436902.787045503
 10
99248.1805987595
 20
436902.533491324
 10
99248.1501408332
 20
436902.279272097
 10
99248.1248039305
 20
436902.024491823
 10
99248.1045990507
 20
436901.769253497
 10
99248.0895331933
 20
436901.513660128
 10
99248.0796133571
 20
436901.257814711
 10
99248.0714839327
 20
436900.680622345
 10
99248.0812943269
 20
436900.331930262
 10
99248.0917032844
 20
436900.108838861
 10
99248.1062372552
 20
436899.885979427
 10
99248.1248902387
 20
436899.663425956
 10
99248.1476572343
 20
436899.441255457
 10
99248.174529241
 20
436899.219544918
 10
99248.2054972585
 20
436898.998368351
 10
99248.240551286
 20
436898.777802752
 10
99248.2796783225
 20
436898.557923116
 10
99248.3228663678
 20
436898.338804461
 10
99248.4013822704
 20
436898.035240992
 10
99248.4852481808
 20
436897.733112486
 10
99248.574438098
 20
436897.432511952
 10
99248.6689230207
 20
436897.133533376
 10
99248.7686749483
 20
436896.836270763
 10
99248.8736618799
 20
436896.540816111
 10
99248.9838508145
 20
436896.247262429
 10
99249.0992087514
 20
436895.955699713
 10
99249.2196976894
 20
436895.66622097
 10
99249.3452816277
 20
436895.378916189
 10
99249.4759205653
 20
436895.093873379
 10
99249.6115745014
 20
436894.811182536
 10
99249.7522004351
 20
436894.530932669
 10
99249.8977543652
 20
436894.253209768
 10
99250.0481912914
 20
436893.978101848
 10
99250.203464212
 20
436893.70569389
 10
99250.3635251269
 20
436893.436069918
 10
99250.5283230347
 20
436893.169316919
 10
99250.6978069345
 20
436892.905514895
 10
99250.8719248257
 20
436892.644748847
 10
99251.5209350692
 20
436891.734737858
 10
99251.6379352118
 20
436891.768737034
 10
99252.6379504796
 20
436890.426720449
 10
99253.4349618873
 20
436889.445707749
 10
99255.1339845806
 20
436887.543681783
 10
99256.4820020979
 20
436886.091661513
 10
99258.0480218336
 20
436884.476638379
 10
99259.9590443829
 20
436882.684611198
 10
99261.3960603908
 20
436881.447591409
 10
99263.2500804882
 20
436879.916566245
 10
99265.1250989886
 20
436878.580542047
 10
99267.1131187328
 20
436877.1495163
 10
99269.3471397095
 20
436875.68248819
 10
99270.7991528163
 20
436874.79047028
 10
99276.1171991118
 20
436871.723405842
 10
99286.1022856308
 20
436866.019285085
 10
99296.0223722766
 20
436860.282164614
 10
99302.2554268422
 20
436856.668088804
 10
99307.5184723926
 20
436853.680025145
 10
99308.9154848839
 20
436852.841007965
 10
99310.2164972853
 20
436851.970991447
 10
99311.3935097077
 20
436851.044975671
 10
99313.0135272625
 20
436849.717953648
 10
99314.3055423006
 20
436848.539935372
 10
99315.5015569807
 20
436847.36191793
 10
99316.9815725039
 20
436846.20989816
 10
99317.0265733218
 20
436846.134897324
 10
99316.9845782789
 20
436845.543894181
 10
99324.2006322634
 20
436842.437812645
 10
99323.2566513865
 20
436839.819805359
 10
99322.9766494595
 20
436839.920808404
 10
99316.3976022611
 20
436842.517881368
 10
99314.3715880148
 20
436843.284903632
 10
99311.9625710954
 20
436844.194930094
 10
99310.0385571767
 20
436844.968951503
 10
99308.4735452821
 20
436845.664969312
 10
99306.7795319192
 20
436846.474988919
 10
99305.0965186689
 20
436847.277008379
 10
99303.546506032
 20
436848.066026599
 10
99301.7754908653
 20
436849.052047922
 10
99300.1694767261
 20
436849.991067508
 10
99297.3254507415
 20
436851.764102852
 10
99293.8924191972
 20
436853.926145631
 10
99292.1954045297
 20
436854.888166139
 10
99289.842384653
 20
436856.169194259
 10
99287.9013690602
 20
436857.133216907
 10
99285.7483522792
 20
436858.143241672
 10
99284.0923398648
 20
436858.863260385
 10
99281.5953216292
 20
436859.893288259
 10
99279.0823040447
 20
436860.841315791
 10
99277.537293191
 20
436861.429332751
 10
99269.5432370397
 20
436864.473420454
 10
99261.2671792158
 20
436867.59351102
 10
99259.108165325
 20
436868.269533832
 10
99258.5931633656
 20
436868.273538351
 10
99254.5461346239
 20
436869.855582947
 10
99248.4173446186
 20
436872.17386388
 10
99248.290127884
 20
436872.223107405
 10
99248.2825138315
 20
436872.225910491
 10
99248.2748547797
 20
436872.22858857
 10
99248.2671527291
 20
436872.231140655
 10
99248.2600050641
 20
436872.233379264
 10
99248.2270749831
 20
436872.245835421
 10
99248.1640741601
 20
436872.252543679
 10
99248.0575624517
 20
436872.262100488
 10
99247.8623893237
 20
436872.197010346
 10
99247.7095349081
 20
436872.059294274
 10
99247.624501471
 20
436871.871928392
 10
99247.6215105031
 20
436871.666189965
 10
99247.7010381662
 20
436871.476426971
 10
99247.8498126843
 20
436871.33432114
 10
99248.0437098105
 20
436871.263290921
 97
0
 92
2
 72
0
 73
1
 93
86
 10
99244.9590384086
 20
436876.878707769
 10
99251.2520821862
 20
436874.519639072
 10
99255.6421131116
 20
436872.830590872
 10
99259.5898698752
 20
436871.361886347
 10
99259.7988505624
 20
436871.327952006
 10
99260.0145083063
 20
436871.336630882
 10
99260.2240944324
 20
436871.388264161
 10
99260.4139211529
 20
436871.478277826
 10
99260.529800613
 20
436871.574719646
 10
99260.646265196
 20
436871.743222689
 10
99260.7117480427
 20
436871.943590645
 10
99260.6931882478
 20
436872.122442504
 10
99260.6278715013
 20
436872.329488942
 10
99260.5223102689
 20
436872.519213391
 10
99260.3848462308
 20
436872.679168933
 10
99259.7121250288
 20
436873.211557631
 10
99258.636706022
 20
436874.139780468
 10
99257.586117868
 20
436875.096017246
 10
99254.356061413
 20
436878.279634112
 10
99252.1620334555
 20
436880.577666731
 10
99249.8750033608
 20
436883.084701378
 10
99247.5389707789
 20
436885.860738017
 10
99245.6989433894
 20
436888.248768056
 10
99244.2269211424
 20
436890.198792314
 10
99242.30589067
 20
436892.911824948
 10
99239.9500904374
 20
436896.209328863
 10
99239.8616101176
 20
436896.318416517
 10
99239.6965711309
 20
436896.454811947
 10
99239.5078976798
 20
436896.555969659
 10
99239.3029451758
 20
436896.617919517
 10
99239.0898013293
 20
436896.63822081
 10
99238.8768486766
 20
436896.616068876
 10
99238.6724953116
 20
436896.552358124
 10
99238.4844037024
 20
436896.449420523
 10
99238.3176290712
 20
436896.309472445
 10
99238.1815878068
 20
436896.138408551
 10
99238.0823989651
 20
436895.943628107
 10
99238.0240531845
 20
436895.732970001
 10
99238.0158514852
 20
436895.614878118
 10
99237.839860937
 20
436894.438872753
 10
99237.4878811978
 20
436891.928861103
 10
99237.4473090389
 20
436891.580699417
 10
99237.4128849083
 20
436891.231875672
 10
99237.3846188055
 20
436890.88249887
 10
99237.3625187293
 20
436890.53267901
 10
99237.3465936792
 20
436890.182522096
 10
99237.3368466539
 20
436889.832139127
 10
99237.3332816526
 20
436889.481639107
 10
99237.3358996744
 20
436889.131130026
 10
99237.3447007182
 20
436888.780721897
 10
99237.3596797833
 20
436888.430523709
 10
99237.3808338689
 20
436888.080643478
 10
99237.4081569736
 20
436887.731191191
 10
99237.4416390966
 20
436887.382274855
 10
99237.481270237
 20
436887.034003467
 10
99237.5270383939
 20
436886.686485034
 10
99237.5789295661
 20
436886.339827549
 10
99237.7169367403
 20
436885.5648218
 10
99237.7586625553
 20
436885.255343628
 10
99237.8057863839
 20
436884.946641408
 10
99237.8582942247
 20
436884.638810139
 10
99237.9161700775
 20
436884.331941839
 10
99237.9793959412
 20
436884.0261305
 10
99238.0479528149
 20
436883.721471114
 10
99238.1218196977
 20
436883.418053694
 10
99238.2009745888
 20
436883.115974234
 10
99238.2853924871
 20
436882.815321736
 10
99238.3750473922
 20
436882.516190197
 10
99238.4699133027
 20
436882.218669633
 10
99238.569960218
 20
436881.922851019
 10
99238.6751591373
 20
436881.628824384
 10
99238.7854750593
 20
436881.336679708
 10
99238.9008769834
 20
436881.046506004
 10
99239.0213289087
 20
436880.758392265
 10
99239.1467938343
 20
436880.472426497
 10
99239.2772337594
 20
436880.188693696
 10
99239.4126086829
 20
436879.907283865
 10
99239.5528776039
 20
436879.628280009
 10
99239.7190528962
 20
436879.317353736
 10
99239.7840265211
 20
436879.215153857
 10
99239.9188774124
 20
436879.038690983
 10
99240.0850626384
 20
436878.862423334
 10
99240.2685542226
 20
436878.704258803
 10
99240.4674103176
 20
436878.565873848
 10
99240.6732630169
 20
436878.452206594
 10
99244.9590384086
 20
436876.878707769
 97
0
 92
2
 72
0
 73
1
 93
122
 10
99226.4359099677
 20
436883.788909636
 10
99232.2992982073
 20
436881.581718493
 10
99232.5005323211
 20
436881.548539674
 10
99232.7134739832
 20
436881.559604502
 10
99232.9191119953
 20
436881.615922121
 10
99233.1080071854
 20
436881.714891092
 10
99233.271382981
 20
436881.851966337
 10
99233.4016499265
 20
436882.020724716
 10
99233.4928663274
 20
436882.213443684
 10
99233.5407897079
 20
436882.421236896
 10
99233.5432022571
 20
436882.634459758
 10
99233.5199453157
 20
436882.746841836
 10
99233.3369339985
 20
436883.984850683
 10
99233.137922416
 20
436885.24685981
 10
99233.060578876
 20
436885.741838385
 10
99232.9924853588
 20
436886.238173887
 10
99232.9336638659
 20
436886.735693309
 10
99232.8841363991
 20
436887.234222663
 10
99232.8439199598
 20
436887.733589937
 10
99232.8130285496
 20
436888.233621137
 10
99232.7914731697
 20
436888.734141254
 10
99232.7792608222
 20
436889.234975296
 10
99232.7763955082
 20
436889.73595125
 10
99232.9372884104
 20
436891.912494603
 10
99233.1299747676
 20
436893.584127719
 10
99233.3608373081
 20
436895.250916475
 10
99233.3831434324
 20
436895.478922617
 10
99233.4094395751
 20
436895.70650272
 10
99233.4397157369
 20
436895.933587792
 10
99233.4739639184
 20
436896.160107818
 10
99233.51217312
 20
436896.385993809
 10
99233.5543323421
 20
436896.611174763
 10
99233.6004275858
 20
436896.835583676
 10
99233.6504448512
 20
436897.059151548
 10
99233.7043701388
 20
436897.281808388
 10
99233.7621854493
 20
436897.503487183
 10
99233.8238737832
 20
436897.72411894
 10
99233.8894151408
 20
436897.943637653
 10
99233.9587915229
 20
436898.161974328
 10
99234.0319799299
 20
436898.379062962
 10
99234.1089583622
 20
436898.594836561
 10
99234.1897028204
 20
436898.809229115
 10
99234.2741893048
 20
436899.022174625
 10
99234.3623918161
 20
436899.233608102
 10
99234.4542823547
 20
436899.443465529
 10
99234.5498339206
 20
436899.651680919
 10
99234.6490175151
 20
436899.858190265
 10
99234.7518011377
 20
436900.062932572
 10
99235.2877932908
 20
436901.207934619
 10
99235.6907876748
 20
436902.094732121
 10
99235.7365555711
 20
436902.183972438
 10
99235.7473994218
 20
436902.206036476
 10
99235.7578652694
 20
436902.228282511
 10
99235.8083654853
 20
436902.340572823
 10
99235.8672870792
 20
436902.554298711
 10
99235.8927888765
 20
436902.774543342
 10
99235.8842846551
 20
436902.996045966
 10
99235.8607790161
 20
436903.116940829
 10
99235.7207632974
 20
436904.88595241
 10
99235.5153902024
 20
436907.470548524
 10
99235.4632637035
 20
436907.653494546
 10
99235.3592675036
 20
436907.847286661
 10
99235.2163559316
 20
436908.014429964
 10
99235.0410672659
 20
436908.147267671
 10
99234.8414677537
 20
436908.239669164
 10
99234.6267803525
 20
436908.287366302
 10
99234.4068588222
 20
436908.288190376
 10
99234.1918066796
 20
436908.242083353
 10
99233.9915310796
 20
436908.151173572
 10
99233.815809109
 20
436908.020049244
 10
99232.9087348942
 20
436906.977989105
 10
99231.2577454928
 20
436905.030992047
 10
99230.0495764152
 20
436903.586484084
 10
99228.8097859852
 20
436902.169024561
 10
99227.5389781994
 20
436900.779304476
 10
99225.9949186041
 20
436899.132335257
 10
99225.7471841002
 20
436898.850888768
 10
99225.4946435408
 20
436898.57374634
 10
99225.2373719267
 20
436898.300989985
 10
99224.9754462565
 20
436898.032699692
 10
99224.7089435301
 20
436897.768956464
 10
99224.4379417473
 20
436897.509837309
 10
99224.1625219077
 20
436897.255418211
 10
99223.8827660108
 20
436897.005776185
 10
99223.5987570564
 20
436896.760984221
 10
99223.3105780442
 20
436896.521114327
 10
99223.0183139735
 20
436896.286238496
 10
99222.7220528448
 20
436896.056425727
 10
99222.4218816574
 20
436895.831744026
 10
99222.1178884109
 20
436895.612259387
 10
99221.8101651052
 20
436895.398038808
 10
99221.4988007405
 20
436895.189143295
 10
99221.1838893159
 20
436894.985635846
 10
99220.8655228318
 20
436894.787576452
 10
99220.543795288
 20
436894.595024127
 10
99219.7079597524
 20
436894.178660965
 10
99218.8644370526
 20
436893.778097962
 10
99218.0135271878
 20
436893.393476117
 10
99217.1555311583
 20
436893.024933423
 10
99216.2907529639
 20
436892.672598891
 10
99215.4194976051
 20
436892.336598509
 10
99214.5420750817
 20
436892.017050276
 10
99213.658794394
 20
436891.714067192
 10
99213.4933003129
 20
436891.647251694
 10
99213.250716495
 20
436891.534031325
 10
99213.0144745502
 20
436891.408131252
 10
99212.785223262
 20
436891.26989974
 10
99212.5636086447
 20
436891.119723918
 10
99212.3502374473
 20
436890.958012519
 10
99212.1444503354
 20
436890.784154096
 10
99212.0294139464
 20
436890.670059717
 10
99211.914111666
 20
436890.498110035
 10
99211.8350568362
 20
436890.306754173
 10
99211.7953578259
 20
436890.103542104
 10
99211.7965997208
 20
436889.896513895
 10
99211.8387052362
 20
436889.693808154
 10
99211.9200305653
 20
436889.503433746
 10
99212.0373322879
 20
436889.332892592
 10
99212.1860537229
 20
436889.188842757
 10
99212.3628323696
 20
436889.075398867
 10
99220.1148660864
 20
436886.157978532
 10
99226.4359099677
 20
436883.788909636
 97
0
 75
0
 76
1
 98
0
  0
HATCH
  5
2000A
  8
0
100
AcDbEntity
100
AcDbHatch
 10
0
 20
0
 30
0
210
0
220
0
230
1
  2
SOLID
 70
1
 71
0
 91
1
 92
2
 72
0
 73
1
 93
15
 10
99201.0558156915
 20
436883.754130447
 10
99210.1048843997
 20
436879.673027823
 10
99216.8609332206
 20
436876.918952865
 10
99215.6089556618
 20
436873.757945308
 10
99208.7899063779
 20
436876.537020971
 10
99203.8588701274
 20
436878.62007609
 10
99203.4978760982
 20
436877.766074263
 10
99204.2598817002
 20
436877.444065739
 10
99259.553276033
 20
436855.605455465
 10
99258.4782973267
 20
436852.664447555
 10
99252.5432570892
 20
436854.754511683
 10
99233.3101219488
 20
436862.094722676
 10
99209.2459490994
 20
436871.751989065
 10
99197.8048632241
 20
436876.789118165
 10
99201.0558156915
 20
436883.754130447
 97
0
 75
0
 76
1
 98
0
  0
HATCH
  5
2000B
  8
0
100
AcDbEntity
100
AcDbHatch
 10
0
 20
0
 30
0
210
0
220
0
230
1
  2
SOLID
 70
1
 71
0
 91
1
 92
2
 72
0
 73
1
 93
47
 10
98745.5995377792
 20
437646.932553966
 10
98745.6255400979
 20
437646.691552218
 10
98745.5810058774
 20
437646.557260747
 10
98742.8725584833
 20
437643.53755646
 10
98738.5892091425
 20
437646.448647365
 10
98736.6376376946
 20
437647.634552942
 10
98734.6607435458
 20
437648.777746462
 10
98732.6594607044
 20
437649.87768592
 10
98723.1603773011
 20
437654.964801074
 10
98721.8289824268
 20
437655.698657339
 10
98720.4840077331
 20
437656.407316563
 10
98719.1259302243
 20
437657.09052873
 10
98717.7552299042
 20
437657.748049849
 10
98716.3723947768
 20
437658.379648905
 10
98714.9779128461
 20
437658.9851019
 10
98713.5722801158
 20
437659.564191826
 10
98712.1559945894
 20
437660.116716673
 10
98710.729557271
 20
437660.642477446
 10
98709.2934751641
 20
437661.141290124
 10
98707.8482572716
 20
437661.612976714
 10
98708.4538887108
 20
437664.873343801
 10
98708.7542318435
 20
437664.76598852
 10
98713.4902650637
 20
437663.131936891
 10
98715.6202813129
 20
437662.254912771
 10
98716.9621433379
 20
437661.725650719
 10
98718.2925185791
 20
437661.16814359
 10
98719.6108130323
 20
437660.582638392
 10
98720.9164366926
 20
437659.969398126
 10
98722.2088065554
 20
437659.328697797
 10
98723.487344616
 20
437658.660821422
 10
98732.575423774
 20
437653.859711706
 10
98737.0916968462
 20
437651.396698114
 10
98737.3113678271
 20
437651.273836956
 10
98737.3398750778
 20
437651.258522609
 10
98737.3686383252
 20
437651.243695264
 10
98737.397649569
 20
437651.229358916
 10
98737.4268998094
 20
437651.215517575
 10
98737.4563820458
 20
437651.202175233
 10
98737.6200974618
 20
437651.131410975
 10
98737.9353273396
 20
437651.054926258
 10
98738.2589450916
 20
437651.032871069
 10
98738.5817552289
 20
437651.065879378
 10
98738.9120369278
 20
437651.166948362
 10
98739.2197841871
 20
437651.321356636
 10
98739.4973567876
 20
437651.525067685
 10
98739.735840496
 20
437651.771204713
 10
98745.5995377792
 20
437646.932553966
 97
0
 75
0
 76
1
 98
0
  0
HATCH
  5
2000C
  8
0
100
AcDbEntity
100
AcDbHatch
 10
0
 20
0
 30
0
210
0
220
0
230
1
  2
SOLID
 70
1
 71
0
 91
1
 92
2
 72
0
 73
1
 93
46
 10
98746.2768586293
 20
437652.230427456
 10
98747.4908625152
 20
437650.579251401
 10
98748.7335313178
 20
437648.94953923
 10
98745.6400524261
 20
437646.55704512
 10
98745.5995377792
 20
437646.932553966
 10
98739.7390881644
 20
437651.768524772
 10
98739.9410970097
 20
437652.088648932
 10
98740.0706415353
 20
437652.384354579
 10
98740.154542339
 20
437652.696083119
 10
98740.1909121235
 20
437653.016829076
 10
98740.1789542166
 20
437653.339387947
 10
98740.1189278134
 20
437653.656566075
 10
98740.0121747373
 20
437653.961228477
 10
98739.8610999429
 20
437654.24650488
 10
98739.7544465855
 20
437654.390652192
 10
98739.6134441926
 20
437654.591654694
 10
98738.133418534
 20
437656.760681309
 10
98736.5093888778
 20
437659.304711546
 10
98733.813191802
 20
437664.05658603
 10
98733.0390456437
 20
437665.490175815
 10
98732.2973024553
 20
437666.94079642
 10
98731.5115742945
 20
437668.587843645
 10
98730.7595951215
 20
437670.250569662
 10
98730.0416789438
 20
437671.928284479
 10
98729.3581227691
 20
437673.62028909
 10
98728.7092116048
 20
437675.325880466
 10
98728.4548115987
 20
437675.998988605
 10
98727.2489656195
 20
437679.433552514
 10
98730.3481466998
 20
437683.072914867
 10
98731.0256810726
 20
437681.138718804
 10
98731.7369084658
 20
437679.216656515
 10
98732.4816108729
 20
437677.307313013
 10
98733.2595602879
 20
437675.411273302
 10
98734.0705207047
 20
437673.529115378
 10
98734.9142431174
 20
437671.661414263
 10
98735.7904705195
 20
437669.80873995
 10
98736.6989359054
 20
437667.971658448
 10
98737.6393602684
 20
437666.150729772
 10
98738.6114586029
 20
437664.346510906
 10
98739.6149319026
 20
437662.559551879
 10
98740.6494761615
 20
437660.790398684
 10
98741.7147733734
 20
437659.039591331
 10
98742.8104995321
 20
437657.307664827
 10
98743.9363206317
 20
437655.595148177
 10
98745.0918906662
 20
437653.902563385
 10
98746.2768586293
 20
437652.230427456
 97
0
 75
0
 76
1
 98
0
  0
HATCH
  5
2000D
  8
0
100
AcDbEntity
100
AcDbHatch
 10
0
 20
0
 30
0
210
0
220
0
230
1
  2
SOLID
 70
1
 71
0
 91
1
 92
2
 72
0
 73
1
 93
35
 10
98846.0971308768
 20
437507.030861914
 10
98847.9551906225
 20
437500.703810689
 10
98848.4422062912
 20
437499.044797257
 10
98850.775282626
 20
437490.945732048
 10
98853.1753712451
 20
437481.39865826
 10
98853.2083724535
 20
437481.268657255
 10
98854.9064348415
 20
437474.554605243
 10
98858.9015833593
 20
437458.55848168
 10
98863.3107495747
 20
437440.642343712
 10
98868.6859523804
 20
437418.803175282
 10
98869.9389977977
 20
437413.94013724
 10
98873.3901283693
 20
437399.892028786
 10
98874.2951626171
 20
437396.209000329
 10
98871.1831570923
 20
437395.340023745
 10
98866.5759824422
 20
437414.139168733
 10
98860.4467508954
 20
437439.081360957
 10
98856.4095994064
 20
437455.404486805
 10
98851.7214267254
 20
437473.986630719
 10
98846.446249533
 20
437492.848781232
 10
98844.1291831832
 20
437499.751839725
 10
98841.9621257996
 20
437505.645891316
 10
98837.078002556
 20
437518.20300354
 10
98831.3388719108
 20
437531.258125965
 10
98825.624753706
 20
437542.833239951
 10
98822.7166962306
 20
437548.404296166
 10
98827.8306916236
 20
437551.417267074
 10
98828.0466960599
 20
437550.983262794
 10
98828.2627005042
 20
437550.548258497
 10
98835.8248654883
 20
437534.195102003
 10
98837.0718944694
 20
437531.286075007
 10
98840.7609832766
 20
437522.312993106
 10
98843.1240452128
 20
437515.957937285
 10
98844.1856528469
 20
437513.00606067
 10
98845.176867407
 20
437510.029809537
 10
98846.0971308768
 20
437507.030861914
 97
0
 75
0
 76
1
 98
0
  0
HATCH
  5
2000E
  8
0
100
AcDbEntity
100
AcDbHatch
 10
0
 20
0
 30
0
210
0
220
0
230
1
  2
SOLID
 70
1
 71
0
 91
1
 92
2
 72
0
 73
1
 93
27
 10
98836.7580023707
 20
437518.071005678
 10
98841.6401255208
 20
437505.523893532
 10
98846.1162490703
 20
437492.74478362
 10
98849.701365509
 20
437480.40468398
 10
98851.3874260764
 20
437473.902633259
 10
98856.0755987524
 20
437455.320489354
 10
98860.1127502204
 20
437438.999363519
 10
98866.2399817524
 20
437414.057171318
 10
98870.8491564966
 20
437395.247026258
 10
98864.629145456
 20
437393.508073063
 10
98859.7239597258
 20
437413.510227223
 10
98852.9887052179
 20
437440.947438399
 10
98849.5675776283
 20
437454.695544472
 10
98845.7574369889
 20
437469.842661592
 10
98843.6133594272
 20
437478.180726426
 10
98843.4223530631
 20
437478.857731841
 10
98841.2772814495
 20
437486.479792729
 10
98838.6732038208
 20
437494.610860472
 10
98837.4161701198
 20
437498.080890673
 10
98834.3450878386
 20
437506.5559644
 10
98830.3889898486
 20
437516.512054052
 10
98825.7118834656
 20
437527.146153743
 10
98821.6287974719
 20
437535.604236185
 10
98816.8317014967
 20
437544.937329674
 10
98822.4196964972
 20
437548.229297852
 10
98831.0268718757
 20
437531.112127957
 10
98836.7580023707
 20
437518.071005678
 97
0
 75
0
 76
1
 98
0
  0
HATCH
  5
2000F
  8
0
100
AcDbEntity
100
AcDbHatch
 10
0
 20
0
 30
0
210
0
220
0
230
1
  2
SOLID
 70
1
 71
0
 91
1
 92
2
 72
0
 73
1
 93
33
 10
98806.0864014217
 20
437576.214594988
 10
98812.2975083312
 20
437566.204485543
 10
98819.5836419825
 20
437553.479351641
 10
98822.4196964972
 20
437548.229297852
 10
98816.8317014967
 20
437544.937329674
 10
98816.3996928532
 20
437545.778338087
 10
98813.5646386926
 20
437550.988391627
 10
98801.7654275185
 20
437570.975604906
 10
98794.9943148393
 20
437581.433721596
 10
98790.5822452595
 20
437587.788795063
 10
98785.140162038
 20
437595.318883927
 10
98779.9880843586
 20
437602.136967717
 10
98775.1200079811
 20
437608.352050173
 10
98766.37287603
 20
437618.961194574
 10
98761.375803625
 20
437624.707274956
 10
98756.6927353277
 20
437630.14535055
 10
98750.4824226528
 20
437636.724339688
 10
98748.9783920252
 20
437638.223372358
 10
98747.4356116191
 20
437639.682492109
 10
98746.6231205161
 20
437640.438377013
 10
98745.7945245147
 20
437641.176573942
 10
98744.9502116196
 20
437641.896739885
 10
98744.0905718353
 20
437642.598539859
 10
98742.8725584833
 20
437643.53755646
 10
98745.4135422334
 20
437646.370552052
 10
98745.5605416509
 20
437646.495551548
 10
98748.7335313178
 20
437648.94953923
 10
98756.0446371256
 20
437640.530421927
 10
98763.583743891
 20
437632.115302464
 10
98778.5399226059
 20
437614.017495788
 10
98791.8401734136
 20
437597.130834453
 10
98799.3252908806
 20
437586.416710206
 10
98806.0864014217
 20
437576.214594988
 97
0
 75
0
 76
1
 98
0
  0
HATCH
  5
20010
  8
0
100
AcDbEntity
100
AcDbHatch
 10
0
 20
0
 30
0
210
0
220
0
230
1
  2
SOLID
 70
1
 71
0
 91
1
 92
2
 72
0
 73
1
 93
78
 10
98772.2217134167
 20
437639.046270558
 10
98775.927773911
 20
437634.047206279
 10
98775.9257739678
 20
437634.040206246
 10
98781.0918594917
 20
437626.948115768
 10
98785.2459295228
 20
437621.114042105
 10
98786.4189499676
 20
437619.395020834
 10
98789.0559973067
 20
437615.382972054
 10
98795.9001238692
 20
437604.579842827
 10
98805.8612965774
 20
437588.843665488
 10
98811.9023989157
 20
437579.298560161
 10
98816.6364807085
 20
437571.63347653
 10
98826.4496637589
 20
437554.13229415
 10
98827.8306916236
 20
437551.417267074
 10
98822.7166962306
 20
437548.404296166
 10
98812.5935080491
 20
437566.38048387
 10
98799.6092904003
 20
437586.610708741
 10
98792.1201728506
 20
437597.332833069
 10
98785.5120690952
 20
437606.121944316
 10
98785.2400699935
 20
437605.90994537
 10
98778.5399226059
 20
437614.017495788
 10
98772.0588678243
 20
437622.246165361
 10
98763.583743891
 20
437632.115302464
 10
98756.0446371256
 20
437640.530421927
 10
98748.7335313178
 20
437648.94953923
 10
98747.4908625152
 20
437650.579251401
 10
98746.2768586293
 20
437652.230427456
 10
98745.0918906662
 20
437653.902563385
 10
98743.9363206317
 20
437655.595148177
 10
98742.8104995321
 20
437657.307664827
 10
98741.7147733734
 20
437659.039591331
 10
98740.6494761615
 20
437660.790398684
 10
98739.6149319026
 20
437662.559551879
 10
98738.6114586029
 20
437664.346510906
 10
98737.6393602684
 20
437666.150729772
 10
98736.6989359054
 20
437667.971658448
 10
98735.7904705195
 20
437669.80873995
 10
98734.9142431174
 20
437671.661414263
 10
98734.0705207047
 20
437673.529115378
 10
98733.2595602879
 20
437675.411273302
 10
98732.4816108729
 20
437677.307313013
 10
98731.7369084658
 20
437679.216656515
 10
98731.0256810726
 20
437681.138718804
 10
98730.3481466998
 20
437683.072914867
 10
98730.8171434329
 20
437683.623914243
 10
98742.0190653125
 20
437696.779899553
 10
98742.4596764013
 20
437697.297445782
 10
98742.5930735775
 20
437696.1198904
 10
98742.7590861267
 20
437694.824880791
 10
98742.9080964494
 20
437693.764872814
 10
98743.0811069376
 20
437692.696864576
 10
98743.2591173993
 20
437691.633856321
 10
98743.4041254992
 20
437690.813849895
 10
98743.57013356
 20
437690.00684336
 10
98743.7971449371
 20
437688.864834188
 10
98743.9711525416
 20
437688.110827916
 10
98744.141159735
 20
437687.399821952
 10
98744.3881697634
 20
437686.412813577
 10
98744.8839918612
 20
437684.54392147
 10
98745.4243210174
 20
437682.687408051
 10
98746.0088512211
 20
437680.844332331
 10
98746.6372464618
 20
437679.015747315
 10
98747.040258621
 20
437677.862736523
 10
98747.9685993447
 20
437675.455347235
 10
98748.522072684
 20
437674.128574029
 10
98749.1014780219
 20
437672.812918668
 10
98749.706592353
 20
437671.508886151
 10
98750.3371806719
 20
437670.216980488
 10
98750.9930019728
 20
437668.937698679
 10
98751.6738022506
 20
437667.671533734
 10
98752.3793204998
 20
437666.418973658
 10
98753.1092847148
 20
437665.180499455
 10
98753.8634128904
 20
437663.956589127
 10
98755.05543489
 20
437662.066566761
 10
98756.3024564328
 20
437660.249544364
 10
98757.4774759975
 20
437658.617523762
 10
98766.0386139214
 20
437647.239376751
 10
98770.4106840319
 20
437641.471301839
 10
98772.2217134167
 20
437639.046270558
 97
0
 75
0
 76
1
 98
0
  0
HATCH
  5
20011
  8
0
100
AcDbEntity
100
AcDbHatch
 10
0
 20
0
 30
0
210
0
220
0
230
1
  2
SOLID
 70
1
 71
0
 91
1
 92
2
 72
0
 73
1
 93
21
 10
98909.1676026233
 20
437240.388821286
 10
98912.4267244057
 20
437227.422719327
 10
98914.6598022008
 20
437219.221653204
 10
98908.3957910651
 20
437217.367700853
 10
98904.8966657917
 20
437230.632806662
 10
98896.8213612185
 20
437263.144060949
 10
98888.6010510285
 20
437296.31531963
 10
98881.6937904711
 20
437324.22353672
 10
98875.327550323
 20
437349.982736626
 10
98873.1054665953
 20
437358.970806303
 10
98866.9572336827
 20
437384.012999806
 10
98864.629145456
 20
437393.508073063
 10
98870.8491564966
 20
437395.247026258
 10
98873.4292543709
 20
437384.718944977
 10
98880.6765281814
 20
437355.311717263
 10
98881.9885778361
 20
437349.982675959
 10
98887.9138021102
 20
437325.931489321
 10
98894.9620670106
 20
437297.588268363
 10
98902.2153413698
 20
437268.255039606
 10
98907.0695236321
 20
437248.81188729
 10
98909.1676026233
 20
437240.388821286
 97
0
 75
0
 76
1
 98
0
  0
HATCH
  5
20012
  8
0
100
AcDbEntity
100
AcDbHatch
 10
0
 20
0
 30
0
210
0
220
0
230
1
  2
SOLID
 70
1
 71
0
 91
1
 92
2
 72
0
 73
1
 93
28
 10
98911.2925603234
 20
437246.544835806
 10
98914.4836809564
 20
437233.682735049
 10
98916.0257378821
 20
437227.634687254
 10
98917.2647812787
 20
437223.057650408
 10
98918.0308081909
 20
437220.218627569
 10
98914.9908027881
 20
437219.319650688
 10
98912.7607250871
 20
437227.51071673
 10
98909.5016033345
 20
437240.472818663
 10
98907.4035243413
 20
437248.89588468
 10
98902.5493420737
 20
437268.339037
 10
98895.2960677067
 20
437297.672265768
 10
98888.2478028155
 20
437326.013486719
 10
98882.3435793024
 20
437349.982672723
 10
98881.0105288788
 20
437355.393714674
 10
98873.7652550685
 20
437384.800942381
 10
98871.1831570923
 20
437395.340023745
 10
98874.2951626171
 20
437396.209000329
 10
98877.5612862835
 20
437382.914897561
 10
98882.2114625524
 20
437363.979751051
 10
98883.3005034873
 20
437359.589716961
 10
98885.684593102
 20
437349.982642298
 10
98887.1916497725
 20
437343.909595074
 10
98891.13379908
 20
437327.904470799
 10
98892.538852336
 20
437322.198426467
 10
98897.2080288529
 20
437303.304279374
 10
98901.6701970576
 20
437285.324139052
 10
98907.0554011538
 20
437263.515968856
 10
98911.2925603234
 20
437246.544835806
 97
0
 75
0
 76
1
 98
0
  0
HATCH
  5
20013
  8
0
100
AcDbEntity
100
AcDbHatch
 10
0
 20
0
 30
0
210
0
220
0
230
1
  2
SOLID
 70
1
 71
0
 91
1
 92
2
 72
0
 73
1
 93
17
 10
98868.6859523804
 20
437418.803175282
 10
98869.9389977977
 20
437413.94013724
 10
98873.3901283693
 20
437399.892028786
 10
98874.2951626171
 20
437396.209000329
 10
98871.1831570923
 20
437395.340023745
 10
98866.5759824422
 20
437414.139168733
 10
98860.4467508954
 20
437439.081360957
 10
98856.4095994064
 20
437455.404486805
 10
98851.7214267254
 20
437473.986630719
 10
98848.1491024381
 20
437486.759987084
 10
98851.6134682466
 20
437487.611596824
 10
98853.1753712451
 20
437481.39865826
 10
98853.2083724535
 20
437481.268657255
 10
98854.9064348415
 20
437474.554605243
 10
98858.9015833593
 20
437458.55848168
 10
98863.3107495747
 20
437440.642343712
 10
98868.6859523804
 20
437418.803175282
 97
0
 75
0
 76
1
 98
0
  0
ENDSEC
  0
SECTION
  2
OBJECTS
  0
DICTIONARY
  5
C
330
0
100
AcDbDictionary
281
     1
  3
ACAD_GROUP
350
D
  0
DICTIONARY
  5
D
102
{ACAD_REACTORS
330
C
102
}
330
C
100
AcDbDictionary
281
     1
  0
ENDSEC
  0
EOF
