  0
SECTION
  2
HEADER
  9
$ACADVER
  1
AC1018
  9
$ACADMAINTVER
 70
     0
  9
$DWGCODEPAGE
  3
ANSI_1252
  9
$EXTMIN
 10
96589.6512163448
 20
436435.965118626
 30
0.0
  9
$EXTMAX
 10
99384.8530216884
 20
441248.909162851
 30
0.0
  9
$LIMMIN
 10
0.0
 20
0.0
  9
$LIMMAX
 10
12.0
 20
9.0
  9
$ORTHOMODE
 70
     0
  9
$REGENMODE
 70
     1
  9
$FILLMODE
 70
     1
  9
$QTEXTMODE
 70
     0
  9
$MIRRTEXT
 70
     1
  9
$LTSCALE
 40
1.0
  9
$ATTMODE
 70
     1
  9
$TEXTSIZE
 40
0.2
  9
$TRACEWID
 40
0.05
  9
$TEXTSTYLE
  7
Standard
  9
$CLAYER
  8
0
  9
$CELTYPE
  6
ByLayer
  9
$CECOLOR
 62
   256
  9
$CELTSCALE
 40
1.0
  9
$DISPSILH
 70
     0
  9
$LUNITS
 70
     2
  9
$LUPREC
 70
     4
  9
$SKETCHINC
 40
0.1
  9
$FILLETRAD
 40
0.5
  9
$AUNITS
 70
     0
  9
$AUPREC
 70
     0
  9
$MENU
  1
.
  9
$ELEVATION
 40
0.0
  9
$PELEVATION
 40
0.0
  9
$THICKNESS
 40
0.0
  9
$LIMCHECK
 70
     0
  9
$CHAMFERA
 40
0.5
  9
$CHAMFERB
 40
0.5
  9
$CHAMFERC
 40
1.0
  9
$CHAMFERD
 40
0.0
  9
$SKPOLY
 70
     0
  9
$TDCREATE
 40
2455343.56230316
  9
$TDUCREATE
 40
2455343.728969826
  9
$TDUPDATE
 40
2455343.562303171
  9
$TDUUPDATE
 40
2455343.728969838
  9
$TDINDWG
 40
0.0000000116
  9
$TDUSRTIMER
 40
0.0000000116
  9
$USRTIMER
 70
     1
  9
$ANGBASE
 50
0.0
  9
$ANGDIR
 70
     0
  9
$PDMODE
 70
     0
  9
$PDSIZE
 40
0.0
  9
$PLINEWID
 40
0.0
  9
$SPLFRAME
 70
     0
  9
$SPLINETYPE
 70
     6
  9
$SPLINESEGS
 70
     8
  9
$HANDSEED
  5
00020019
  9
$SURFTAB1
 70
     6
  9
$SURFTAB2
 70
     6
  9
$SURFTYPE
 70
     6
  9
$SURFU
 70
     6
  9
$SURFV
 70
     6
  9
$UCSBASE
  2

  9
$UCSNAME
  2

  9
$UCSORG
 10
0.0
 20
0.0
 30
0.0
  9
$UCSXDIR
 10
1.0
 20
0.0
 30
0.0
  9
$UCSYDIR
 10
0.0
 20
1.0
 30
0.0
  9
$UCSORTHOREF
  2

  9
$UCSORTHOVIEW
 70
     0
  9
$UCSORGTOP
 10
0.0
 20
0.0
 30
0.0
  9
$UCSORGBOTTOM
 10
0.0
 20
0.0
 30
0.0
  9
$UCSORGLEFT
 10
0.0
 20
0.0
 30
0.0
  9
$UCSORGRIGHT
 10
0.0
 20
0.0
 30
0.0
  9
$UCSORGFRONT
 10
0.0
 20
0.0
 30
0.0
  9
$UCSORGBACK
 10
0.0
 20
0.0
 30
0.0
  9
$PUCSBASE
  2

  9
$PUCSNAME
  2

  9
$PUCSORG
 10
0.0
 20
0.0
 30
0.0
  9
$PUCSXDIR
 10
1.0
 20
0.0
 30
0.0
  9
$PUCSYDIR
 10
0.0
 20
1.0
 30
0.0
  9
$PUCSORTHOREF
  2

  9
$PUCSORTHOVIEW
 70
     0
  9
$PUCSORGTOP
 10
0.0
 20
0.0
 30
0.0
  9
$PUCSORGBOTTOM
 10
0.0
 20
0.0
 30
0.0
  9
$PUCSORGLEFT
 10
0.0
 20
0.0
 30
0.0
  9
$PUCSORGRIGHT
 10
0.0
 20
0.0
 30
0.0
  9
$PUCSORGFRONT
 10
0.0
 20
0.0
 30
0.0
  9
$PUCSORGBACK
 10
0.0
 20
0.0
 30
0.0
  9
$WORLDVIEW
 70
     1
  9
$SHADEDGE
 70
     3
  9
$SHADEDIF
 70
    70
  9
$TILEMODE
 70
     1
  9
$MAXACTVP
 70
    64
  9
$PINSBASE
 10
0.0
 20
0.0
 30
0.0
  9
$PLIMCHECK
 70
     0
  9
$PEXTMIN
 10
1.000000000000000E+20
 20
1.000000000000000E+20
 30
1.000000000000000E+20
  9
$PEXTMAX
 10
-1.000000000000000E+20
 20
-1.000000000000000E+20
 30
-1.000000000000000E+20
  9
$PLIMMIN
 10
0.0
 20
0.0
  9
$PLIMMAX
 10
12.0
 20
9.0
  9
$UNITMODE
 70
     0
  9
$VISRETAIN
 70
     1
  9
$PLINEGEN
 70
     0
  9
$PSLTSCALE
 70
     1
  9
$TREEDEPTH
 70
  3020
  9
$CMLSTYLE
  2
Standard
  9
$CMLJUST
 70
     0
  9
$CMLSCALE
 40
1.0
  9
$PROXYGRAPHICS
 70
     1
  9
$MEASUREMENT
 70
     0
  9
$CELWEIGHT
370
    -1
  9
$ENDCAPS
280
     0
  9
$JOINSTYLE
280
     0
  9
$LWDISPLAY
290
     0
  9
$INSUNITS
 70
     1
  9
$HYPERLINKBASE
  1

  9
$STYLESHEET
  1

  9
$XEDIT
290
     1
  9
$CEPSNTYPE
380
     0
  9
$PSTYLEMODE
290
     1
  9
$FINGERPRINTGUID
  2
{E7F7769E-AACA-40AB-9EF3-61BBAFBCBA26}
  9
$VERSIONGUID
  2
{FAEB1C32-E019-11D5-929B-00C0DF256EC4}
  9
$EXTNAMES
290
     1
  9
$PSVPSCALE
 40
0.0
  9
$OLESTARTUP
290
     0
  9
$SORTENTS
280
   127
  9
$INDEXCTL
280
     0
  9
$HIDETEXT
280
     1
  9
$XCLIPFRAME
290
     0
  9
$HALOGAP
280
     0
  9
$OBSCOLOR
 70
   257
  9
$OBSLTYPE
280
     0
  9
$INTERSECTIONDISPLAY
280
     0
  9
$INTERSECTIONCOLOR
 70
   257
  9
$DIMASSOC
280
     2
  9
$PROJECTNAME
  1

  0
ENDSEC
  0
SECTION
  2
CLASSES
  0
CLASS
  1
ACDBDICTIONARYWDFLT
  2
AcDbDictionaryWithDefault
  3
ObjectDBX Classes
 90
        0
 91
        4
280
     0
281
     0
  0
CLASS
  1
VISUALSTYLE
  2
AcDbVisualStyle
  3
ObjectDBX Classes
 90
     4095
 91
        4
280
     0
281
     0
  0
ENDSEC
  0
SECTION
  2
TABLES
  0
TABLE
  2
VPORT
  5
8
330
0
100
AcDbSymbolTable
 70
     1
  0
VPORT
  5
29
330
8
100
AcDbSymbolTableRecord
100
AcDbViewportTableRecord
  2
*Active
 70
     0
 10
0.0
 20
0.0
 11
1.0
 21
1.0
 12
80.25
 22
106.4409457059851
 13
0.0
 23
0.0
 14
0.5
 24
0.5
 15
0.5
 25
0.5
 16
0.0
 26
0.0
 36
1.0
 17
0.0
 27
0.0
 37
0.0
 40
113.3818914119703
 41
0.8863849310366128
 42
50.0
 43
0.0
 44
0.0
 50
0.0
 51
0.0
 71
     0
 72
  1000
 73
     1
 74
     3
 75
     0
 76
     0
 77
     0
 78
     0
281
     0
 65
     1
110
0.0
120
0.0
130
0.0
111
1.0
121
0.0
131
0.0
112
0.0
122
1.0
132
0.0
 79
     0
146
0.0
  0
ENDTAB
  0
TABLE
  2
LTYPE
  5
5
330
0
100
AcDbSymbolTable
 70
     1
  0
LTYPE
  5
14
330
5
100
AcDbSymbolTableRecord
100
AcDbLinetypeTableRecord
  2
ByBlock
 70
     0
  3

 72
    65
 73
     0
 40
0.0
  0
LTYPE
  5
15
330
5
100
AcDbSymbolTableRecord
100
AcDbLinetypeTableRecord
  2
ByLayer
 70
     0
  3

 72
    65
 73
     0
 40
0.0
  0
LTYPE
  5
16
330
5
100
AcDbSymbolTableRecord
100
AcDbLinetypeTableRecord
  2
Continuous
 70
     0
  3
Solid line
 72
    65
 73
     0
 40
0.0
  0
ENDTAB
  0
TABLE
  2
LAYER
  5
2
330
0
100
AcDbSymbolTable
 70
     1
  0
LAYER
  5
10
330
2
100
AcDbSymbolTableRecord
100
AcDbLayerTableRecord
  2
0
 70
     0
 62
     7
  6
Continuous
370
    -3
390
F
  0
ENDTAB
  0
TABLE
  2
STYLE
  5
3
330
0
100
AcDbSymbolTable
 70
     1
  0
STYLE
  5
11
330
3
100
AcDbSymbolTableRecord
100
AcDbTextStyleTableRecord
  2
Standard
 70
     0
 40
0.0
 41
1.0
 50
0.0
 71
     0
 42
0.2
  3
txt
  4

  0
ENDTAB
  0
TABLE
  2
VIEW
  5
6
330
0
100
AcDbSymbolTable
 70
     0
  0
ENDTAB
  0
TABLE
  2
UCS
  5
7
330
0
100
AcDbSymbolTable
 70
     0
  0
ENDTAB
  0
TABLE
  2
APPID
  5
9
330
0
100
AcDbSymbolTable
 70
     1
  0
APPID
  5
12
330
9
100
AcDbSymbolTableRecord
100
AcDbRegAppTableRecord
  2
ACAD
 70
     0
  0
ENDTAB
  0
TABLE
  2
DIMSTYLE
  5
A
330
0
100
AcDbSymbolTable
 70
     1
100
AcDbDimStyleTable
  0
DIMSTYLE
105
27
330
A
100
AcDbSymbolTableRecord
100
AcDbDimStyleTableRecord
  2
Standard
 70
     0
340
11
  0
ENDTAB
  0
TABLE
  2
BLOCK_RECORD
  5
1
330
0
100
AcDbSymbolTable
 70
     1
  0
BLOCK_RECORD
  5
1F
330
1
100
AcDbSymbolTableRecord
100
AcDbBlockTableRecord
  2
*Model_Space
340
22
  0
BLOCK_RECORD
  5
1B
330
1
100
AcDbSymbolTableRecord
100
AcDbBlockTableRecord
  2
*Paper_Space
340
1E
  0
BLOCK_RECORD
  5
23
330
1
100
AcDbSymbolTableRecord
100
AcDbBlockTableRecord
  2
*Paper_Space0
340
26
  0
ENDTAB
  0
ENDSEC
  0
SECTION
  2
BLOCKS
  0
BLOCK
  5
20
330
1F
100
AcDbEntity
  8
0
100
AcDbBlockBegin
  2
*Model_Space
 70
     0
 10
0.0
 20
0.0
 30
0.0
  3
*Model_Space
  1

  0
ENDBLK
  5
21
330
1F
100
AcDbEntity
  8
0
100
AcDbBlockEnd
  0
BLOCK
  5
1C
330
1B
100
AcDbEntity
 67
     1
  8
0
100
AcDbBlockBegin
  2
*Paper_Space
 70
     0
 10
0.0
 20
0.0
 30
0.0
  3
*Paper_Space
  1

  0
ENDBLK
  5
1D
330
1B
100
AcDbEntity
 67
     1
  8
0
100
AcDbBlockEnd
  0
BLOCK
  5
24
330
23
100
AcDbEntity
  8
0
100
AcDbBlockBegin
  2
*Paper_Space0
 70
     0
 10
0.0
 20
0.0
 30
0.0
  3
*Paper_Space0
  1

  0
ENDBLK
  5
25
330
23
100
AcDbEntity
  8
0
100
AcDbBlockEnd
  0
ENDSEC
  0
SECTION
  2
ENTITIES
  0
HATCH
  5
20000
  8
0
100
AcDbEntity
100
AcDbHatch
 10
0
 20
0
 30
0
210
0
220
0
230
1
  2
SOLID
 70
1
 71
0
 91
1
 92
2
 72
0
 73
1
 93
47
 10
96746.5992292602
 20
436619.802041379
 10
96754.2002867647
 20
436617.902947664
 10
96763.2823571528
 20
436615.329835062
 10
96764.0603631661
 20
436615.11282543
 10
96766.8213845185
 20
436614.340791212
 10
96770.2264112086
 20
436613.323748879
 10
96774.3604436171
 20
436612.089697491
 10
96776.421459782
 20
436611.473671864
 10
96778.5744766681
 20
436610.830645094
 10
96784.4435232834
 20
436608.972571911
 10
96803.5486771867
 20
436602.552332861
 10
96865.8001903223
 20
436580.582561772
 10
96919.1486304495
 20
436561.839899857
 10
96917.9986425005
 20
436558.322905966
 10
96864.5702016539
 20
436577.093568978
 10
96802.3436887487
 20
436599.054340083
 10
96783.2955352547
 20
436605.454578441
 10
96777.4864890994
 20
436607.293650884
 10
96776.7874836134
 20
436607.502659579
 10
96776.0764780369
 20
436607.714668418
 10
96771.9394455807
 20
436608.950719857
 10
96771.1974397585
 20
436609.172729081
 10
96765.7623971391
 20
436610.795796656
 10
96763.0443760731
 20
436611.562830354
 10
96753.2473001748
 20
436614.326951805
 10
96745.7422433736
 20
436616.202044346
 10
96720.3120543297
 20
436621.953356639
 10
96715.2530168815
 20
436623.073418703
 10
96699.8389126782
 20
436624.650604155
 10
96688.1718354297
 20
436625.54574392
 10
96673.1317372477
 20
436626.441923565
 10
96646.2905653625
 20
436627.423242932
 10
96634.6774918774
 20
436627.683380772
 10
96621.7164112846
 20
436627.705534093
 10
96601.8612895849
 20
436627.404768307
 10
96600.3472803043
 20
436627.381786162
 10
96589.6512163448
 20
436626.913911739
 10
96589.6522126697
 20
436627.613913084
 10
96589.6571875897
 20
436632.388922264
 10
96634.7224725486
 20
436631.383387462
 10
96646.3995464025
 20
436631.121248874
 10
96673.3097186373
 20
436630.137928723
 10
96688.42381725
 20
436629.237748215
 10
96700.168894976
 20
436628.336607528
 10
96715.8430008878
 20
436626.732418974
 10
96721.1190399255
 20
436625.564354254
 10
96746.5992292602
 20
436619.802041379
 97
0
 75
0
 76
1
 98
0
  0
HATCH
  5
20001
  8
0
100
AcDbEntity
100
AcDbHatch
 10
0
 20
0
 30
0
210
0
220
0
230
1
  2
SOLID
 70
1
 71
0
 91
2
 92
2
 72
0
 73
1
 93
212
 10
98403.7687561353
 20
440767.470722931
 10
98415.7011016014
 20
440731.350437398
 10
98432.1025750326
 20
440682.011044732
 10
98425.553585998
 20
440679.780062811
 10
98422.8485079535
 20
440687.906127599
 10
98417.0473399887
 20
440705.414266829
 10
98411.1521700899
 20
440723.142407601
 10
98409.4961224646
 20
440728.115447044
 10
98409.3656659855
 20
440728.477345962
 10
98409.2288915191
 20
440728.836903891
 10
98409.0858410665
 20
440729.194012842
 10
98408.9365586286
 20
440729.548560804
 10
98408.7810902065
 20
440729.900439778
 10
98408.6194838013
 20
440730.249542765
 10
98408.4517874141
 20
440730.59576276
 10
98408.2780550457
 20
440730.938991772
 10
98408.0983366975
 20
440731.27912679
 10
98407.9126903702
 20
440731.616060814
 10
98407.7211720652
 20
440731.94969285
 10
98407.5238397828
 20
440732.279919888
 10
98407.320754525
 20
440732.606640936
 10
98407.1119782919
 20
440732.929754982
 10
98406.8975760852
 20
440733.249163039
 10
98406.6776139055
 20
440733.564767098
 10
98406.4521567535
 20
440733.87647115
 10
98406.221276631
 20
440734.18417821
 10
98405.9850425382
 20
440734.487796273
 10
98405.7435284764
 20
440734.78722933
 10
98405.4968064465
 20
440735.082387386
 10
98405.2449544494
 20
440735.373179441
 10
98404.7322407722
 20
440735.918621359
 10
98404.4719460934
 20
440736.173218224
 10
98404.2072434506
 20
440736.423228083
 10
98403.938213844
 20
440736.668575929
 10
98403.6649392752
 20
440736.90918677
 10
98403.3875037445
 20
440737.144987598
 10
98403.1059902526
 20
440737.375905417
 10
98402.8204868005
 20
440737.601869221
 10
98402.5310793886
 20
440737.822812012
 10
98402.2378560183
 20
440738.038664792
 10
98401.9409066897
 20
440738.249362557
 10
98401.6403224036
 20
440738.454840304
 10
98401.336194161
 20
440738.655036037
 10
98401.0286149622
 20
440738.849887752
 10
98400.7176788083
 20
440739.03933645
 10
98400.4034806996
 20
440739.223325124
 10
98400.0861166369
 20
440739.401795783
 10
98399.7656836208
 20
440739.574695419
 10
98399.4422786518
 20
440739.741971036
 10
98399.1160007306
 20
440739.90357164
 10
98398.8544861315
 20
440740.039632756
 10
98398.59068457
 20
440740.171204858
 10
98398.3246730466
 20
440740.298250944
 10
98398.0565305621
 20
440740.420733009
 10
98397.7863341164
 20
440740.538616059
 10
98397.5141627105
 20
440740.651865089
 10
98397.2400963443
 20
440740.760448094
 10
98396.9642150185
 20
440740.864332084
 10
98396.6865997333
 20
440740.963486051
 10
98396.4073294893
 20
440741.057883991
 10
98396.1264882867
 20
440741.147494912
 10
98395.8441561259
 20
440741.232294811
 10
98395.5604170069
 20
440741.31225868
 10
98395.2753529307
 20
440741.387363532
 10
98394.9890478971
 20
440741.457585358
 10
98394.7015839066
 20
440741.52290616
 10
98394.4130469594
 20
440741.583304933
 10
98394.1235190556
 20
440741.638765676
 10
98393.833086196
 20
440741.689271402
 10
98393.5418333803
 20
440741.734807091
 10
98393.2498446089
 20
440741.775359762
 10
98392.957205882
 20
440741.810917396
 10
98392.6640032
 20
440741.841470006
 10
98392.3703205629
 20
440741.867007585
 10
98392.0762439711
 20
440741.887525136
 10
98391.7818604243
 20
440741.903013653
 10
98391.4872559233
 20
440741.913471139
 10
98391.1925144676
 20
440741.918892602
 10
98390.8977240578
 20
440741.919277026
 10
98390.6029706938
 20
440741.914625421
 10
98390.0679701656
 20
440741.891627862
 10
98389.0729695577
 20
440741.807632139
 10
98387.8259691751
 20
440741.660637237
 10
98386.9059688883
 20
440741.552641009
 10
98385.2609182531
 20
440746.874682357
 10
98385.7239175806
 20
440747.018681032
 10
98386.3989160082
 20
440747.293679505
 10
98387.0229143835
 20
440747.566678208
 10
98387.363672259
 20
440747.741858668
 10
98387.7010070705
 20
440747.923544178
 10
98388.0347928184
 20
440748.111669751
 10
98388.3649085034
 20
440748.306164381
 10
98388.6912311256
 20
440748.50695707
 10
98389.0136406859
 20
440748.713973815
 10
98389.3320191848
 20
440748.927138622
 10
98389.6462496223
 20
440749.146373483
 10
98389.9562149995
 20
440749.371596405
 10
98390.2618023171
 20
440749.602725386
 10
98390.5628985752
 20
440749.839675424
 10
98390.9488956306
 20
440750.221675962
 10
98391.1568974425
 20
440750.383690981
 10
98391.3619172158
 20
440750.549463031
 10
98391.5638869514
 20
440750.718938128
 10
98391.7627386493
 20
440750.892061256
 10
98391.9584083103
 20
440751.068772423
 10
98392.1508299345
 20
440751.249015631
 10
98392.3399405227
 20
440751.432729876
 10
98392.5256770751
 20
440751.61985516
 10
98392.7079775922
 20
440751.810328476
 10
98392.8867820746
 20
440752.004087834
 10
98393.062031523
 20
440752.201068228
 10
98393.2336679374
 20
440752.401204659
 10
98393.4016343188
 20
440752.604431128
 10
98393.7870679448
 20
440753.143246661
 10
98394.0023601794
 20
440753.479663744
 10
98394.2116823712
 20
440753.819825873
 10
98394.4149725215
 20
440754.163629055
 10
98394.6121656314
 20
440754.510964296
 10
98394.8032007016
 20
440754.861724583
 10
98394.9880177329
 20
440755.215799919
 10
98395.1665597262
 20
440755.573081309
 10
98395.3387716828
 20
440755.933456746
 10
98395.5045986035
 20
440756.296814237
 10
98395.6639904891
 20
440756.663039773
 10
98395.8168963408
 20
440757.03202136
 10
98395.9632701593
 20
440757.403642994
 10
98396.1030649459
 20
440757.777788676
 10
98396.2362367014
 20
440758.154342406
 10
98396.3627464269
 20
440758.533187183
 10
98396.4825521235
 20
440758.914205002
 10
98396.595617792
 20
440759.297276874
 10
98396.7019084336
 20
440759.682283785
 10
98396.8013900495
 20
440760.069105743
 10
98396.8940326404
 20
440760.457622743
 10
98396.9798072076
 20
440760.847713783
 10
98397.0154569006
 20
440761.106603241
 10
98397.0465685819
 20
440761.366076727
 10
98397.0731352524
 20
440761.626055235
 10
98397.095146913
 20
440761.886458768
 10
98397.1125965641
 20
440762.147208326
 10
98397.1254802066
 20
440762.408222908
 10
98397.1337938413
 20
440762.66942351
 10
98397.1375344688
 20
440762.930729135
 10
98397.1367000898
 20
440763.192060786
 10
98397.131291705
 20
440763.453337455
 10
98397.1213113153
 20
440763.714479151
 10
98397.1067619214
 20
440763.975406857
 10
98397.0876475239
 20
440764.236040594
 10
98397.0639751239
 20
440764.496298341
 10
98397.0357497216
 20
440764.756103113
 10
98397.0029823181
 20
440765.015373903
 10
98396.965680914
 20
440765.274031709
 10
98396.9238585101
 20
440765.531996534
 10
98396.8775271072
 20
440765.789189378
 10
98396.8267017059
 20
440766.045533229
 10
98396.7713973069
 20
440766.300947103
 10
98396.7116299114
 20
440766.555354989
 10
98396.6474195195
 20
440766.80867689
 10
98396.5787851324
 20
440767.060836807
 10
98396.5057477504
 20
440767.311756735
 10
98396.3297350114
 20
440768.685766225
 10
98395.6427207724
 20
440770.148778724
 10
98394.8126969004
 20
440772.649798433
 10
98394.0586752175
 20
440774.921816325
 10
98392.597753884
 20
440779.25047953
 10
98391.2505923811
 20
440783.615884395
 10
98390.6245721495
 20
440785.748900784
 10
98390.5495689395
 20
440786.090903289
 10
98390.4594365635
 20
440786.558973663
 10
98390.3790351844
 20
440787.028811994
 10
98390.3084008042
 20
440787.500218291
 10
98390.2475624247
 20
440787.972988553
 10
98389.4164675432
 20
440797.077977703
 10
98389.3494586183
 20
440798.04998413
 10
98388.8063631162
 20
440808.477052191
 10
98388.7593538645
 20
440809.488058767
 10
98388.6213424211
 20
440810.727067198
 10
98388.4063263321
 20
440812.466079132
 10
98388.108307536
 20
440814.491093259
 10
98392.0953011597
 20
440815.766082441
 10
98397.547478327
 20
440799.591288136
 10
98397.3514140937
 20
440799.828554692
 10
98397.1939990102
 20
440799.974104604
 10
98397.01856494
 20
440800.097334533
 10
98396.8282243689
 20
440800.196043332
 10
98396.6264673865
 20
440800.268434057
 10
98396.4168440607
 20
440800.313246899
 10
98396.2030519258
 20
440800.329674418
 10
98395.9889901911
 20
440800.317399777
 10
98395.7732252926
 20
440800.275638771
 10
98395.499734862
 20
440800.154999907
 10
98395.3156757105
 20
440800.050540208
 10
98395.1430529176
 20
440799.928093761
 10
98394.9836188763
 20
440799.788896457
 10
98394.8389978634
 20
440799.634371433
 10
98394.7106681412
 20
440799.46609706
 10
98394.5999171345
 20
440799.2857799
 10
98394.5078558806
 20
440799.095210032
 10
98394.4354251506
 20
440798.896336695
 10
98394.3862462862
 20
440798.702512777
 10
98394.3717078668
 20
440798.467018757
 10
98394.3737785973
 20
440798.252237008
 10
98394.3911410532
 20
440798.03817227
 10
98394.4237114968
 20
440797.825861489
 10
98394.4534686066
 20
440797.694957662
 10
98394.902193767
 20
440795.653864695
 10
98395.3994738911
 20
440793.624054569
 10
98395.9450279682
 20
440791.606683279
 10
98396.538544988
 20
440789.602896849
 10
98397.6175783355
 20
440786.095869637
 10
98402.6047222123
 20
440771.023750899
 10
98403.7687561353
 20
440767.470722931
 97
0
 92
2
 72
0
 73
1
 93
74
 10
98405.724922262
 20
440749.520600349
 10
98403.6185354995
 20
440755.957710259
 10
98403.5281524539
 20
440756.112843522
 10
98403.3814442966
 20
440756.260673475
 10
98403.197661685
 20
440756.366704612
 10
98402.9924840857
 20
440756.420720177
 10
98402.7803355763
 20
440756.418918682
 10
98402.5760959841
 20
440756.361441135
 10
98402.3941297627
 20
440756.252293334
 10
98402.2475626662
 20
440756.099509364
 10
98401.6234873646
 20
440754.933323218
 10
98401.0050173991
 20
440753.848063356
 10
98400.3578852397
 20
440752.779646742
 10
98400.26410246
 20
440752.63151026
 10
98400.167702661
 20
440752.4850648
 10
98400.0687148426
 20
440752.340354365
 10
98399.9671710046
 20
440752.197426954
 10
98399.8631041465
 20
440752.056326565
 10
98399.756545268
 20
440751.917097202
 10
98399.6475303687
 20
440751.779783864
 10
98399.5360914481
 20
440751.644429547
 10
98399.422264506
 20
440751.511077258
 10
98399.306086542
 20
440751.379767985
 10
98399.1875925561
 20
440751.250544746
 10
98399.0668215471
 20
440751.123447523
 10
98398.9438115157
 20
440750.998516331
 10
98398.8185994613
 20
440750.875791164
 10
98398.6912273832
 20
440750.755311019
 10
98398.5617332817
 20
440750.637112897
 10
98398.4301601559
 20
440750.5212348
 10
98398.2965480059
 20
440750.407712729
 10
98398.1609398315
 20
440750.296583685
 10
98398.0233786321
 20
440750.187881663
 10
98397.7890225179
 20
440750.009466488
 10
98397.6318085948
 20
440749.876104037
 10
98397.4627324905
 20
440749.710511697
 10
98397.3059189716
 20
440749.533273785
 10
98397.1621473291
 20
440749.345264091
 10
98397.0809131328
 20
440749.22164012
 10
98396.6649182949
 20
440748.591638165
 10
98396.5309221234
 20
440748.150636032
 10
98396.504928994
 20
440747.391631381
 10
98396.6509331889
 20
440746.952627913
 10
98397.0719394176
 20
440746.331621977
 10
98397.4419423014
 20
440746.070618548
 10
98398.0419452281
 20
440745.839614201
 10
98398.6381361211
 20
440745.611756888
 10
98399.2299561097
 20
440745.372776525
 10
98399.8171981928
 20
440745.122757119
 10
98400.3996563692
 20
440744.861787662
 10
98400.9771266379
 20
440744.589958163
 10
98401.5494059977
 20
440744.307363623
 10
98402.1162954477
 20
440744.014105032
 10
98402.6775939864
 20
440743.710283414
 10
98403.2331066125
 20
440743.396006752
 10
98403.7826373251
 20
440743.071383049
 10
98404.3259941227
 20
440742.736528314
 10
98404.8629860039
 20
440742.39155955
 10
98405.8099938662
 20
440741.671550429
 10
98407.1837252039
 20
440740.656914215
 10
98407.2103582267
 20
440740.636300131
 10
98407.2202213076
 20
440740.62892404
 10
98407.230205387
 20
440740.621710945
 10
98407.3216763263
 20
440740.557904611
 10
98407.5212266058
 20
440740.490011928
 10
98407.7317836156
 20
440740.480169359
 10
98407.9367433788
 20
440740.529120204
 10
98408.1200947878
 20
440740.633012652
 10
98408.2674397518
 20
440740.783730357
 10
98408.3671657128
 20
440740.969393975
 10
98408.4111104016
 20
440741.173782725
 10
98408.3968256257
 20
440741.385053704
 10
98408.3589990285
 20
440741.490536973
 10
98405.724922262
 20
440749.520600349
 97
0
 75
0
 76
1
 98
0
  0
HATCH
  5
20002
  8
0
100
AcDbEntity
100
AcDbHatch
 10
0
 20
0
 30
0
210
0
220
0
230
1
  2
SOLID
 70
1
 71
0
 91
1
 92
2
 72
0
 73
1
 93
159
 10
99233.1171251607
 20
436861.636721676
 10
99252.3912599273
 20
436854.358510687
 10
99252.5432570892
 20
436854.754511683
 10
99258.4782973267
 20
436852.664447555
 10
99259.553276033
 20
436855.605455465
 10
99262.6612978593
 20
436854.423421363
 10
99281.5168861107
 20
436847.412440913
 10
99281.7908467121
 20
436847.435917275
 10
99282.0406927279
 20
436847.639066274
 10
99282.1504259971
 20
436848.03721344
 10
99282.4369987977
 20
436848.764011896
 10
99282.4349029605
 20
436849.023406351
 10
99282.246348352
 20
436849.286420335
 10
99321.2926837083
 20
436835.233795311
 10
99320.1417071229
 20
436832.028786362
 10
99315.1866737273
 20
436833.732839849
 10
99309.5756372882
 20
436835.504899466
 10
99305.3116123007
 20
436836.539942912
 10
99301.6535925541
 20
436837.232979023
 10
99296.6565675088
 20
436837.957027033
 10
99291.9625446956
 20
436838.555071635
 10
99287.854525203
 20
436839.024110343
 10
99280.3074819427
 20
436840.750186553
 10
99278.2134716929
 20
436841.026206499
 10
99277.6496720461
 20
436840.971523106
 10
99277.0870614991
 20
436840.905733638
 10
99276.5258570533
 20
436840.828864095
 10
99275.9662777086
 20
436840.740942471
 10
99275.4085414657
 20
436840.642004767
 10
99274.8528643253
 20
436840.53208898
 10
99273.7725033746
 20
436840.28742599
 10
99273.2480355585
 20
436840.153451786
 10
99272.7262558395
 20
436840.0093655
 10
99272.2073592181
 20
436839.85522113
 10
99271.6915386942
 20
436839.691075674
 10
99271.1789872682
 20
436839.516991131
 10
99270.6698969401
 20
436839.333031502
 10
99270.1644577103
 20
436839.139265783
 10
99269.8403795019
 20
436839.022091928
 10
99269.5184083502
 20
436838.899248019
 10
99269.1986432552
 20
436838.770771059
 10
99268.8811822173
 20
436838.636701044
 10
99268.5661242361
 20
436838.49707798
 10
99268.2535653116
 20
436838.351946864
 10
99267.9436024437
 20
436838.201351682
 10
99267.6363306328
 20
436838.045338457
 10
99267.3318448787
 20
436837.883955173
 10
99267.030239181
 20
436837.717251821
 10
99266.7316065397
 20
436837.545280428
 10
99266.4360379549
 20
436837.36809297
 10
99266.1436264263
 20
436837.185744452
 10
99265.8544599541
 20
436836.998290878
 10
99265.4544959075
 20
436836.713020703
 10
99265.0599809458
 20
436836.420260428
 10
99264.6710550687
 20
436836.120116065
 10
99264.2878572756
 20
436835.812691608
 10
99263.9105225661
 20
436835.498098058
 10
99263.5391859399
 20
436835.176447414
 10
99263.1739783963
 20
436834.847852676
 10
99262.815031935
 20
436834.512431846
 10
99262.4624715552
 20
436834.170303915
 10
99261.5714759709
 20
436833.268306409
 10
99260.9274801009
 20
436832.50730757
 10
99260.320484843
 20
436831.691308076
 10
99259.8164889647
 20
436830.99230838
 10
99255.7344653299
 20
436831.952349766
 10
99256.6314562928
 20
436833.394350389
 10
99257.5854486997
 20
436834.693349679
 10
99258.5404421759
 20
436835.86834823
 10
99259.5414365381
 20
436836.960345895
 10
99260.5954313565
 20
436838.022342916
 10
99261.7304273735
 20
436838.98033863
 10
99262.9314242225
 20
436839.87033336
 10
99264.1494215472
 20
436840.712327659
 10
99265.4304199602
 20
436841.455320829
 10
99266.9444187733
 20
436842.253312288
 10
99268.0674185114
 20
436842.773305527
 10
99269.6984186484
 20
436843.468295359
 10
99270.6108854952
 20
436843.89209505
 10
99265.0843808312
 20
436845.846349707
 10
99254.979312707
 20
436849.353458661
 10
99250.3152800657
 20
436851.113509757
 10
99241.0312145289
 20
436854.686611836
 10
99240.9782148631
 20
436854.624611929
 10
99241.9182282735
 20
436853.474596977
 10
99243.7982506532
 20
436851.691570091
 10
99244.9152646717
 20
436850.548553626
 10
99245.8132775866
 20
436849.438539261
 10
99246.7102909896
 20
436848.271524572
 10
99247.5763050434
 20
436847.015509626
 10
99248.3653185517
 20
436845.789495533
 10
99249.0673325004
 20
436844.47448167
 10
99250.3263605542
 20
436841.763454738
 10
99250.8693744256
 20
436840.388441912
 10
99251.3493883455
 20
436838.980429443
 10
99251.7394021516
 20
436837.546417605
 10
99252.0734159027
 20
436836.09440615
 10
99252.2924291875
 20
436834.646395723
 10
99252.4784451112
 20
436832.877383703
 10
99247.938416374
 20
436834.231431393
 10
99247.9158056333
 20
436834.605920611
 10
99247.8675044996
 20
436835.103785475
 10
99247.8011122272
 20
436835.59956303
 10
99247.716710878
 20
436836.092631701
 10
99247.6079586077
 20
436836.613206472
 10
99247.4585421427
 20
436837.187206951
 10
99247.3529961373
 20
436837.546458083
 10
99247.1943997266
 20
436838.019811392
 10
99247.0181480731
 20
436838.486882154
 10
99246.8244613345
 20
436838.947076209
 10
99246.666368107
 20
436839.286472206
 10
99246.4733679146
 20
436839.224473524
 10
99246.1371079901
 20
436839.998875019
 10
99245.7850070669
 20
436840.766203597
 10
99245.4172121491
 20
436841.526136278
 10
99245.0338812396
 20
436842.278350044
 10
99244.635173342
 20
436843.022529901
 10
99244.2212594593
 20
436843.758358836
 10
99243.521079831
 20
436844.88422667
 10
99243.0936376243
 20
436845.456287662
 10
99242.8493079978
 20
436845.771381644
 10
99242.5993873882
 20
436846.082059652
 10
99242.3439567967
 20
436846.388221679
 10
99242.0830962248
 20
436846.689772729
 10
99241.8168896736
 20
436846.9866148
 10
99241.5454231438
 20
436847.278652885
 10
99241.2687816369
 20
436847.565794989
 10
99240.9870541538
 20
436847.847948102
 10
99240.7003306958
 20
436848.125022236
 10
99240.4087022641
 20
436848.396930382
 10
99240.1122628594
 20
436848.663584534
 10
99239.7125331945
 20
436849.031785187
 10
99239.3061005682
 20
436849.392573854
 10
99238.8931029825
 20
436849.745828537
 10
99238.4736804387
 20
436850.091429229
 10
99238.0479739381
 20
436850.429259929
 10
99237.6161274824
 20
436850.759206638
 10
99237.1782880734
 20
436851.081156351
 10
99236.7346027122
 20
436851.395002066
 10
99236.2852224005
 20
436851.700635786
 10
99235.6163359765
 20
436852.156317296
 10
99234.9380926386
 20
436852.597951813
 10
99234.2507873895
 20
436853.02534632
 10
99233.554719232
 20
436853.438314819
 10
99232.8501911686
 20
436853.836678304
 10
99231.7871827772
 20
436854.349690598
 10
99231.4851803653
 20
436854.49869411
 10
99231.1286684627
 20
436854.670200706
 10
99230.7211744009
 20
436854.859702899
 10
99230.3769744136
 20
436855.015193651
 10
99230.0621694061
 20
436855.153710376
 10
99229.8741678514
 20
436855.252712598
 10
99214.5600583024
 20
436861.333881868
 10
99206.9190032495
 20
436864.419966567
 10
99200.6879587437
 20
436867.011035042
 10
99194.53891095
 20
436869.791105873
 10
99197.6208659115
 20
436876.395117477
 10
99209.3399540714
 20
436871.212985099
 10
99233.1171251607
 20
436861.636721676
 97
0
 75
0
 76
1
 98
0
  0
HATCH
  5
20003
  8
0
100
AcDbEntity
100
AcDbHatch
 10
0
 20
0
 30
0
210
0
220
0
230
1
  2
SOLID
 70
1
 71
0
 91
1
 92
2
 72
0
 73
1
 93
10
 10
99321.2926837083
 20
436835.233795311
 10
99384.8530216884
 20
436812.383844085
 10
99383.6877215028
 20
436809.142244885
 10
99374.3670811377
 20
436812.491194715
 10
99351.5279236137
 20
436820.697444006
 10
99351.1389211045
 20
436820.81744813
 10
99332.6797942668
 20
436827.418649173
 10
99320.590710882
 20
436831.789781012
 10
99320.1417071229
 20
436832.028786362
 10
99321.2926837083
 20
436835.233795311
 97
0
 75
0
 76
1
 98
0
  0
HATCH
  5
20004
  8
0
100
AcDbEntity
100
AcDbHatch
 10
0
 20
0
 30
0
210
0
220
0
230
1
  2
SOLID
 70
1
 71
0
 91
1
 92
2
 72
0
 73
1
 93
4
 10
98379.1122420612
 20
440849.894279416
 10
98379.1113691236
 20
440849.894344044
 10
98379.0997656306
 20
440849.898235396
 10
98379.1122420612
 20
440849.894279416
 97
0
 75
0
 76
1
 98
0
  0
HATCH
  5
20005
  8
0
100
AcDbEntity
100
AcDbHatch
 10
0
 20
0
 30
0
210
0
220
0
230
1
  2
SOLID
 70
1
 71
0
 91
1
 92
2
 72
0
 73
1
 93
25
 10
98379.4556496548
 20
440849.785393004
 10
98379.1122420612
 20
440849.894279416
 10
98379.1227621496
 20
440849.893500535
 10
98379.1345299418
 20
440849.892464791
 10
98379.1462956033
 20
440849.89124108
 10
98379.1580210184
 20
440849.88979223
 10
98379.169725458
 20
440849.888155629
 10
98379.1814093484
 20
440849.886368869
 10
98379.1930529924
 20
440849.884356976
 10
98379.204675661
 20
440849.88215733
 10
98379.2162585093
 20
440849.879770143
 10
98379.2277822664
 20
440849.877158038
 10
98379.2392666295
 20
440849.874395984
 10
98379.2507111721
 20
440849.871446392
 10
98379.2621154686
 20
440849.868271668
 10
98379.2734426812
 20
440849.864947423
 10
98379.2847300735
 20
440849.861435635
 10
98379.2959583746
 20
440849.857698928
 10
98379.307109592
 20
440849.853812705
 10
98379.3182021444
 20
440849.849739155
 10
98379.3292360315
 20
440849.845478276
 10
98379.3401924088
 20
440849.84103029
 10
98379.3510712763
 20
440849.836395187
 10
98379.4433510783
 20
440849.79538462
 10
98379.4556496548
 20
440849.785393004
 97
0
 75
0
 76
1
 98
0
  0
HATCH
  5
20006
  8
0
100
AcDbEntity
100
AcDbHatch
 10
0
 20
0
 30
0
210
0
220
0
230
1
  2
SOLID
 70
1
 71
0
 91
1
 92
2
 72
0
 73
1
 93
23
 10
98379.3744585602
 20
440848.512005745
 10
98379.4642966392
 20
440848.581886512
 10
98379.6331956527
 20
440848.742283773
 10
98379.6268270032
 20
440848.73412194
 10
98379.6194099563
 20
440848.724919241
 10
98379.6118250103
 20
440848.715868838
 10
98379.6041090027
 20
440848.706895114
 10
98379.5962439408
 20
440848.698073475
 10
98379.5882298248
 20
440848.689403917
 10
98379.5800846472
 20
440848.68081104
 10
98379.5717908414
 20
440848.672407846
 10
98379.5633475551
 20
440848.664119136
 10
98379.5547929045
 20
440848.655982081
 10
98379.5460891994
 20
440848.647997109
 10
98379.537254859
 20
440848.640126416
 10
98379.5282903091
 20
440848.632407586
 10
98379.5192143945
 20
440848.624840415
 10
98379.4521663479
 20
440848.570894917
 10
98379.4477320372
 20
440848.567110159
 10
98379.4426523147
 20
440848.562919134
 10
98379.4374980651
 20
440848.558804148
 10
98379.3779665186
 20
440848.513019635
 10
98379.3744585602
 20
440848.512005745
 97
0
 75
0
 76
1
 98
0
  0
HATCH
  5
20007
  8
0
100
AcDbEntity
100
AcDbHatch
 10
0
 20
0
 30
0
210
0
220
0
230
1
  2
SOLID
 70
1
 71
0
 91
3
 92
2
 72
0
 73
1
 93
106
 10
98388.1083035448
 20
440814.491094869
 10
98387.5782723326
 20
440818.086104869
 10
98386.9272420738
 20
440821.97714287
 10
98386.6342134489
 20
440823.586143648
 10
98386.5052116637
 20
440824.355178029
 10
98386.4501130921
 20
440824.931547472
 10
98385.9671934956
 20
440827.586168605
 10
98385.8981803016
 20
440827.806187168
 10
98385.5331622501
 20
440829.532181142
 10
98385.6221602025
 20
440829.562191157
 10
98385.4399293321
 20
440830.089694219
 10
98385.0379182882
 20
440830.957960962
 10
98384.5504527588
 20
440831.78125088
 10
98383.9824517762
 20
440832.551236636
 10
98383.3397444542
 20
440833.260069333
 10
98382.6288639732
 20
440833.9004937
 10
98381.8570115933
 20
440834.465998849
 10
98381.0321320342
 20
440834.950817416
 10
98380.2094684083
 20
440835.328493223
 10
98379.1011037956
 20
440835.580257159
 10
98378.6103362274
 20
440835.691433813
 10
98377.7861604915
 20
440835.847559966
 10
98376.7884946009
 20
440835.982003462
 10
98375.7851166709
 20
440836.063122227
 10
98374.7789073796
 20
440836.090658031
 10
98374.1080858001
 20
440836.073297074
 10
98373.8601007822
 20
440836.077311374
 10
98373.6540917388
 20
440836.068291994
 10
98372.1261011149
 20
440835.865287192
 10
98371.1130974661
 20
440835.63929979
 10
98370.6190842972
 20
440835.547294862
 10
98364.6870997338
 20
440833.670335299
 10
98352.782121456
 20
440829.984351448
 10
98351.0282090363
 20
440829.41939816
 10
98348.6640280207
 20
440839.042444427
 10
98351.5807172514
 20
440839.929473527
 10
98351.8726682591
 20
440840.493446354
 10
98351.3705811598
 20
440841.416238703
 10
98348.3180266447
 20
440840.451455985
 10
98347.348093323
 20
440844.39704513
 10
98349.5009809045
 20
440845.093463609
 10
98349.5639808265
 20
440844.888477571
 10
98356.7269701546
 20
440847.086456405
 10
98356.6609500031
 20
440847.301026468
 10
98359.9159719159
 20
440848.310439715
 10
98362.0399538009
 20
440848.979443198
 10
98364.6339594183
 20
440849.792421079
 10
98365.2569542742
 20
440850.008428144
 10
98366.0569563714
 20
440850.285405517
 10
98366.6841084714
 20
440850.525654074
 10
98367.6572145312
 20
440850.981479103
 10
98368.5948981711
 20
440851.506397863
 10
98369.1476895942
 20
440851.87062395
 10
98369.1260741332
 20
440851.855867306
 10
98369.8364496167
 20
440852.320047755
 10
98369.8650729389
 20
440852.339499931
 10
98369.8933437498
 20
440852.359444881
 10
98369.9212620493
 20
440852.379882607
 10
98369.9488094188
 20
440852.400850908
 10
98369.9759850059
 20
440852.422274607
 10
98370.0027888107
 20
440852.444153699
 10
98370.0291835697
 20
440852.466526206
 10
98370.0551877015
 20
440852.489354318
 10
98370.0807639426
 20
440852.512676059
 10
98370.1059302853
 20
440852.536416026
 10
98370.6328379087
 20
440853.03474776
 10
98371.3708927352
 20
440853.917270813
 10
98371.8736129813
 20
440854.632856086
 10
98372.3406935798
 20
440855.464873422
 10
98372.7216003574
 20
440856.339751958
 10
98373.0124621096
 20
440857.248511972
 10
98373.2103096339
 20
440858.181937925
 10
98373.3131511065
 20
440859.130577635
 10
98373.31991512
 20
440860.084705307
 10
98373.2305487389
 20
440861.034658808
 10
98373.0525371052
 20
440861.937453776
 10
98372.7658527403
 20
440862.888478242
 10
98372.2388398862
 20
440864.638480644
 10
98369.7417474377
 20
440872.750535104
 10
98366.3106565438
 20
440883.816640708
 10
98365.3316125432
 20
440887.005636101
 10
98364.3345851394
 20
440890.398689709
 10
98363.5825683024
 20
440892.958688083
 10
98361.7275094297
 20
440899.391744938
 10
98359.3324211088
 20
440907.816797827
 10
98355.451294694
 20
440921.50891361
 10
98371.1822707227
 20
440925.302860766
 10
98372.0783130987
 20
440922.298834931
 10
98375.7214274785
 20
440909.552762617
 10
98376.6044494869
 20
440906.453715795
 10
98377.5234917564
 20
440903.567701969
 10
98379.1945328116
 20
440898.586668008
 10
98382.6676409711
 20
440887.97859773
 10
98383.2526563521
 20
440886.292578113
 10
98387.4757686073
 20
440873.509471357
 10
98388.2928002471
 20
440871.090437466
 10
98388.694813013
 20
440869.981437176
 10
98394.909073588
 20
440840.75123093
 10
98395.0930795782
 20
440839.793208376
 10
98395.4350952729
 20
440838.565206186
 10
98397.1273239334
 20
440833.427803829
 10
98398.3971895966
 20
440829.508145011
 10
98399.1131962789
 20
440827.372112109
 10
98401.9332912017
 20
440818.914044525
 10
98392.0953093227
 20
440815.766070438
 10
98388.1083035448
 20
440814.491094869
 97
0
 92
2
 72
0
 73
1
 93
55
 10
98361.1485837745
 20
440842.913290329
 10
98364.8590180357
 20
440844.039400128
 10
98365.1160139257
 20
440844.105404049
 10
98365.8980051245
 20
440844.336377637
 10
98365.9054932588
 20
440844.338548636
 10
98365.9083683319
 20
440844.339455998
 10
98366.261164537
 20
440844.443664052
 10
98366.2146740234
 20
440845.225483764
 10
98365.8512678005
 20
440845.891033068
 10
98365.4579859814
 20
440845.758408607
 10
98364.8669983954
 20
440845.5844117
 10
98360.5281258826
 20
440844.267510441
 10
98360.1385053627
 20
440843.974112082
 10
98360.3119086213
 20
440843.587552825
 10
98360.319140734
 20
440843.572130715
 10
98360.3266195348
 20
440843.556856196
 10
98360.3343630162
 20
440843.541653874
 10
98360.3423347673
 20
440843.526636957
 10
98360.3505716252
 20
440843.511729831
 10
98360.3590551712
 20
440843.496970296
 10
98360.3677661344
 20
440843.482320978
 10
98360.3767430568
 20
440843.467856637
 10
98360.3859473965
 20
440843.453502515
 10
98360.3953800055
 20
440843.439333793
 10
98360.405059303
 20
440843.425312667
 10
98360.4149480253
 20
440843.411477157
 10
98360.4250834356
 20
440843.397789247
 10
98360.4354471157
 20
440843.384286738
 10
98360.4460197943
 20
440843.370932254
 10
98360.4568207423
 20
440843.357763169
 10
98360.4678499602
 20
440843.344779491
 10
98360.4790697579
 20
440843.331981643
 10
98360.4905178253
 20
440843.319369195
 10
98360.5021564725
 20
440843.306942583
 10
98360.5140233894
 20
440843.294701371
 10
98360.5260813125
 20
440843.282683586
 10
98360.5383298155
 20
440843.270851629
 10
98360.5507693247
 20
440843.259243096
 10
98360.5634182586
 20
440843.24782018
 10
98360.5762393539
 20
440843.236620903
 10
98360.5892510291
 20
440843.225607455
 10
98360.6024352919
 20
440843.21485524
 10
98360.6157912897
 20
440843.204289066
 10
98360.6293382937
 20
440843.19394632
 10
98360.6430390405
 20
440843.183865019
 10
98360.6569303671
 20
440843.17396955
 10
98360.6709565916
 20
440843.164335734
 10
98360.6851549774
 20
440843.154925557
 10
98360.699507106
 20
440843.145776828
 10
98360.7139932799
 20
440843.136814569
 10
98360.7286524677
 20
440843.128151138
 10
98360.7434268558
 20
440843.119674387
 10
98360.758355413
 20
440843.111496677
 10
98360.7734184419
 20
440843.103543033
 10
98361.1485837745
 20
440842.913290329
 97
0
 92
2
 72
0
 73
1
 93
28
 10
98378.0595048901
 20
440848.07041899
 10
98378.354980288
 20
440848.217350015
 10
98379.3029931832
 20
440848.491335933
 10
98379.3093275092
 20
440848.493144046
 10
98379.3139606865
 20
440848.494520263
 10
98379.3744585602
 20
440848.512005745
 10
98379.1824956758
 20
440848.362686957
 10
98379.3779665186
 20
440848.513019635
 10
98379.6475568798
 20
440848.590938359
 10
98379.7582073468
 20
440848.996497382
 10
98379.7611263478
 20
440849.007931767
 10
98379.7638577525
 20
440849.019443476
 10
98379.766401135
 20
440849.030994909
 10
98379.7687560693
 20
440849.042548481
 10
98379.7709045625
 20
440849.054179587
 10
98379.7728838783
 20
440849.065850215
 10
98379.8353478028
 20
440849.476918358
 10
98379.4556496548
 20
440849.785393004
 10
98379.4911920956
 20
440849.774123342
 10
98379.4433510783
 20
440849.79538462
 10
98379.1955888444
 20
440849.996671828
 10
98378.8839659031
 20
440849.898350398
 10
98377.6079874797
 20
440849.534161761
 10
98377.5425875085
 20
440849.12181099
 10
98377.5404781681
 20
440849.106983585
 10
98377.5386322293
 20
440849.092115598
 10
98377.4932108037
 20
440848.671492296
 10
98378.0595048901
 20
440848.07041899
 97
0
 75
0
 76
1
 98
0
  0
HATCH
  5
20008
  8
0
100
AcDbEntity
100
AcDbHatch
 10
0
 20
0
 30
0
210
0
220
0
230
1
  2
SOLID
 70
1
 71
0
 91
1
 92
2
 72
0
 73
1
 93
41
 10
98429.590992646
 20
440745.394459162
 10
98432.2490683249
 20
440737.508396283
 10
98434.8281431685
 20
440729.706334266
 10
98437.4402183267
 20
440721.879271858
 10
98440.3693028476
 20
440713.081201678
 10
98443.2883873321
 20
440704.291131512
 10
98448.8075469395
 20
440687.700998819
 10
98436.1475682453
 20
440683.389033595
 10
98426.7672957542
 20
440711.764259607
 10
98420.6221181658
 20
440730.283406795
 10
98414.492940917
 20
440748.792553487
 10
98409.3147911746
 20
440764.448677273
 10
98408.5857708087
 20
440766.575694197
 10
98406.6417149663
 20
440772.417740366
 10
98400.7365457754
 20
440790.130880193
 10
98398.0994710341
 20
440797.958942018
 10
98397.6536458299
 20
440799.384279644
 10
98397.5654559601
 20
440799.537954486
 10
98392.0953011597
 20
440815.766082441
 10
98401.9332853654
 20
440818.914055818
 10
98402.0282880744
 20
440818.630053585
 10
98405.7283942525
 20
440807.499965954
 10
98411.8215685656
 20
440789.24982187
 10
98418.1287502924
 20
440770.242671638
 10
98418.44875916
 20
440769.31766425
 10
98418.8317684419
 20
440768.356656343
 10
98423.8548541372
 20
440759.709577508
 10
98425.7128897951
 20
440756.079545578
 10
98425.8506681246
 20
440755.844901428
 10
98425.9840564713
 20
440755.607735287
 10
98426.1130088343
 20
440755.368128146
 10
98426.2374812126
 20
440755.126163014
 10
98426.3574296054
 20
440754.881923894
 10
98426.4728140123
 20
440754.635494774
 10
98426.5835924321
 20
440754.386962663
 10
98426.6897278639
 20
440754.136411563
 10
98426.7911843071
 20
440753.883929478
 10
98426.8879247608
 20
440753.629604398
 10
98426.9799162239
 20
440753.373522334
 10
98427.3099270996
 20
440752.231513505
 10
98429.590992646
 20
440745.394459162
 97
0
 75
0
 76
1
 98
0
  0
HATCH
  5
20009
  8
0
100
AcDbEntity
100
AcDbHatch
 10
0
 20
0
 30
0
210
0
220
0
230
1
  2
SOLID
 70
1
 71
0
 91
1
 92
2
 72
0
 73
1
 93
85
 10
98428.2555314463
 20
440795.714784624
 10
98428.6495712953
 20
440791.406755437
 10
98428.6575721274
 20
440791.316754824
 10
98428.7755797428
 20
440790.499749087
 10
98428.8083124901
 20
440790.132964208
 10
98428.8847466015
 20
440789.523980152
 10
98429.0156276802
 20
440788.799102728
 10
98429.1722996814
 20
440788.137165109
 10
98431.1776691301
 20
440781.060677776
 10
98432.0706985001
 20
440777.975653942
 10
98433.8103423821
 20
440772.014291333
 10
98437.4716297224
 20
440759.25512157
 10
98443.9160643281
 20
440739.708353853
 10
98446.1661301617
 20
440732.850299309
 10
98449.9822421222
 20
440721.193206532
 10
98452.2463083603
 20
440714.30215158
 10
98454.7433814863
 20
440706.698090899
 10
98455.7844112685
 20
440703.606066082
 10
98459.7935283533
 20
440691.443968789
 10
98452.7405402948
 20
440689.040988057
 10
98447.8553974936
 20
440703.886106617
 10
98447.2653794598
 20
440705.766121476
 10
98447.1753771096
 20
440706.009123457
 10
98445.8663383704
 20
440710.042155536
 10
98445.6656560451
 20
440710.602485151
 10
98445.3689154137
 20
440711.338548255
 10
98445.0435055312
 20
440712.062343176
 10
98444.7783134882
 20
440712.595177094
 10
98441.1652504361
 20
440718.936235037
 10
98439.5502225627
 20
440721.738260706
 10
98438.9392117829
 20
440722.824270579
 10
98438.7925953389
 20
440723.069262849
 10
98438.6503488778
 20
440723.316819118
 10
98438.5125174003
 20
440723.566860373
 10
98438.3791449069
 20
440723.819307625
 10
98438.2502733986
 20
440724.074081873
 10
98438.1259428762
 20
440724.331103111
 10
98438.0061933404
 20
440724.590289341
 10
98437.8910607921
 20
440724.851560556
 10
98437.7805832321
 20
440725.114832769
 10
98437.6747946609
 20
440725.380024966
 10
98437.5737290797
 20
440725.647052155
 10
98437.4774174894
 20
440725.91583033
 10
98437.3858898905
 20
440726.186275493
 10
98437.2991762836
 20
440726.458301643
 10
98434.3440844484
 20
440736.060376955
 10
98432.8250367136
 20
440741.056416021
 10
98428.5649042577
 20
440754.921524524
 10
98423.4347442468
 20
440771.690655399
 10
98423.3407413005
 20
440771.999657804
 10
98421.2770828233
 20
440778.748937021
 10
98420.9923512852
 20
440779.517194948
 10
98420.6993080576
 20
440780.219528102
 10
98420.3781776804
 20
440780.90943941
 10
98420.1166510603
 20
440781.416732824
 10
98418.1256165497
 20
440784.908764408
 10
98417.8996201851
 20
440785.354286303
 10
98417.6829007915
 20
440785.804393186
 10
98417.4755513704
 20
440786.258893044
 10
98417.2776599237
 20
440786.717590888
 10
98417.0893124536
 20
440787.180287706
 10
98416.9105899618
 20
440787.64678751
 10
98416.1735688762
 20
440789.851804962
 10
98415.9315619718
 20
440790.573810677
 10
98415.2005401598
 20
440792.8598286
 10
98409.6353786921
 20
440809.7719618
 10
98406.2712810235
 20
440820.012042284
 10
98406.1862785725
 20
440820.269044306
 10
98421.7902533548
 20
440825.262002338
 10
98424.9243501264
 20
440815.101923236
 10
98425.5203705156
 20
440812.952906813
 10
98426.2293948428
 20
440810.388887213
 10
98426.9044186453
 20
440807.877868115
 10
98427.0024407482
 20
440807.442433887
 10
98427.0923548566
 20
440807.005253694
 10
98427.1741289687
 20
440806.566477521
 10
98427.2477350836
 20
440806.12625839
 10
98427.3131471993
 20
440805.684747277
 10
98427.3703443147
 20
440805.242096204
 10
98427.4193054284
 20
440804.798460161
 10
98427.4600135387
 20
440804.353990149
 10
98427.4924556445
 20
440803.908840177
 10
98427.961501555
 20
440798.946806504
 10
98428.1455199541
 20
440796.957793021
 10
98428.2555314463
 20
440795.714784624
 97
0
 75
0
 76
1
 98
0
  0
HATCH
  5
2000A
  8
0
100
AcDbEntity
100
AcDbHatch
 10
0
 20
0
 30
0
210
0
220
0
230
1
  2
SOLID
 70
1
 71
0
 91
1
 92
2
 72
0
 73
1
 93
24
 10
98888.2670503148
 20
437296.233322236
 10
98896.4873605126
 20
437263.060063556
 10
98904.5616650647
 20
437230.549809297
 10
98908.0667904765
 20
437217.270703361
 10
98902.1667799662
 20
437215.524748265
 10
98901.4147538726
 20
437218.276770445
 10
98900.633725521
 20
437221.28579432
 10
98895.8255479831
 20
437240.181943204
 10
98890.440343662
 20
437262.028113491
 10
98886.2401852201
 20
437278.974245617
 10
98880.770979049
 20
437301.046417452
 10
98877.0358379637
 20
437316.169534929
 10
98875.9117955099
 20
437320.722570266
 10
98871.726637333
 20
437337.697701864
 10
98868.6935229208
 20
437349.982797048
 10
98866.4864397041
 20
437358.92286626
 10
98862.0602727562
 20
437376.872005039
 10
98858.4011343718
 20
437391.768119954
 10
98864.2951448594
 20
437393.415075577
 10
98866.6212329843
 20
437383.931002406
 10
98872.7714658986
 20
437358.888808891
 10
98874.9725488567
 20
437349.982739859
 10
98881.3597897648
 20
437324.141539318
 10
98888.2670503148
 20
437296.233322236
 97
0
 75
0
 76
1
 98
0
  0
HATCH
  5
2000B
  8
0
100
AcDbEntity
100
AcDbHatch
 10
0
 20
0
 30
0
210
0
220
0
230
1
  2
SOLID
 70
1
 71
0
 91
1
 92
2
 72
0
 73
1
 93
37
 10
98954.7189624545
 20
437100.882621155
 10
98961.2760890639
 20
437089.166494089
 10
98967.7702080649
 20
437078.341372453
 10
98975.0243346969
 20
437067.017240714
 10
98982.2874560133
 20
437056.348112394
 10
98987.2745368237
 20
437049.328025906
 10
98982.2475445011
 20
437045.786053384
 10
98981.8705384808
 20
437046.306059862
 10
98980.5905177369
 20
437048.108082061
 10
98960.7861794621
 20
437078.118436827
 10
98956.8091059083
 20
437084.831511759
 10
98955.6430847471
 20
437086.752533456
 10
98947.7179317517
 20
437100.917686962
 10
98946.6419107451
 20
437102.870707947
 10
98937.3707200971
 20
437120.871895156
 10
98936.2966969053
 20
437123.091917568
 10
98928.3275155758
 20
437140.688089967
 10
98927.4614954363
 20
437142.654108986
 10
98923.0683391643
 20
437153.12533216
 10
98918.9362832118
 20
437163.70230539
 10
98918.1442624898
 20
437165.780324303
 10
98915.0452841954
 20
437174.060108078
 10
98912.197098272
 20
437182.429471958
 10
98911.4860775882
 20
437184.547490304
 10
98905.5818944024
 20
437203.520650196
 10
98905.2508834198
 20
437204.67065963
 10
98904.2738495867
 20
437208.23568842
 10
98902.6007950086
 20
437213.93873547
 10
98902.1667799662
 20
437215.524748265
 10
98908.0667904765
 20
437217.270703361
 10
98917.3740902892
 20
437186.041443941
 10
98921.7292134867
 20
437173.499333837
 10
98931.164454969
 20
437149.412112063
 10
98936.4875796959
 20
437137.221994528
 10
98942.3777104486
 20
437124.617869236
 10
98948.2548343669
 20
437112.839748515
 10
98954.7189624545
 20
437100.882621155
 97
0
 75
0
 76
1
 98
0
  0
HATCH
  5
2000C
  8
0
100
AcDbEntity
100
AcDbHatch
 10
0
 20
0
 30
0
210
0
220
0
230
1
  2
SOLID
 70
1
 71
0
 91
1
 92
2
 72
0
 73
1
 93
63
 10
98439.0667759872
 20
440661.121877645
 10
98442.1998670765
 20
440651.659801921
 10
98447.5500200183
 20
440635.801674314
 10
98447.8730293545
 20
440634.833666536
 10
98447.9759432137
 20
440634.428583439
 10
98448.0714510787
 20
440634.021689371
 10
98448.1595219481
 20
440633.613122326
 10
98448.2401258205
 20
440633.203016315
 10
98448.3132366946
 20
440632.791509318
 10
98448.3788295694
 20
440632.378736361
 10
98448.4368824431
 20
440631.964836435
 10
98448.4873763149
 20
440631.549946539
 10
98448.5302941835
 20
440631.13420468
 10
98448.565622047
 20
440630.717748841
 10
98448.5933479048
 20
440630.300718048
 10
98448.6134627551
 20
440629.88325128
 10
98448.625960597
 20
440629.465487559
 10
98448.630835429
 20
440629.047564876
 10
98448.6280872497
 20
440628.629623223
 10
98448.6130915655
 20
440628.155620276
 10
98448.4901058331
 20
440626.576610823
 10
98431.4282669464
 20
440615.793399687
 10
98431.9150420599
 20
440616.206452943
 10
98432.5441952661
 20
440616.779771424
 10
98433.1527078896
 20
440617.374980188
 10
98433.7397923647
 20
440617.991308238
 10
98434.3047284866
 20
440618.627999002
 10
98434.8468117243
 20
440619.284256133
 10
98435.3653788938
 20
440619.959280428
 10
98435.8597791497
 20
440620.652229444
 10
98436.3293391069
 20
440621.362153356
 10
98436.6624949131
 20
440621.906745288
 10
98437.0581901977
 20
440622.596636693
 10
98437.3197500809
 20
440623.085839701
 10
98437.645351584
 20
440623.74994315
 10
98437.9474330234
 20
440624.425111573
 10
98438.2255944895
 20
440625.110456137
 10
98438.4795038755
 20
440625.805156243
 10
98438.7088373971
 20
440626.5083189
 10
98438.9133344724
 20
440627.219149372
 10
98439.0927312521
 20
440627.936743338
 10
98439.2467964622
 20
440628.660169608
 10
98439.3452106659
 20
440629.217808222
 10
98439.4630334241
 20
440629.964279517
 10
98439.5458066256
 20
440630.554753632
 10
98439.628904136
 20
440631.345391188
 10
98439.6846391512
 20
440632.138425466
 10
98439.7129431188
 20
440632.932885756
 10
98439.7137859008
 20
440633.727862969
 10
98439.687164095
 20
440634.522422845
 10
98439.6331078692
 20
440635.315587974
 10
98439.5516842773
 20
440636.106402035
 10
98439.4429879495
 20
440636.893934547
 10
98439.307154161
 20
440637.677224805
 10
98439.1443503012
 20
440638.455320538
 10
98438.9547479055
 20
440639.227393998
 10
98438.7475612633
 20
440639.960686803
 10
98438.3039554374
 20
440641.369755836
 10
98433.6098189733
 20
440655.547869256
 10
98428.2616642
 20
440671.641997861
 10
98425.553585998
 20
440679.780062811
 10
98432.1025750326
 20
440682.011044732
 10
98439.0667759872
 20
440661.121877645
 97
0
 75
0
 76
1
 98
0
  0
HATCH
  5
2000D
  8
0
100
AcDbEntity
100
AcDbHatch
 10
0
 20
0
 30
0
210
0
220
0
230
1
  2
SOLID
 70
1
 71
0
 91
1
 92
2
 72
0
 73
1
 93
36
 10
99054.1994784625
 20
436972.701958243
 10
99063.0925863858
 20
436964.6308276
 10
99072.0196908392
 20
436957.001698996
 10
99082.0328060774
 20
436948.687555976
 10
99091.5499143206
 20
436940.952420831
 10
99091.7659130126
 20
436941.220420312
 10
99091.9179147802
 20
436941.092418123
 10
99088.2519391445
 20
436936.287425538
 10
99077.6138200403
 20
436944.709575332
 10
99071.4267495799
 20
436949.756663211
 10
99070.6067402023
 20
436950.430674882
 10
99069.0917228559
 20
436951.678696459
 10
99054.2875488545
 20
436964.425910226
 10
99052.6465291384
 20
436965.891934201
 10
99038.5293528967
 20
436979.309144796
 10
99037.3073375582
 20
436980.482163076
 10
99033.1772831158
 20
436984.757226588
 10
99030.8642522524
 20
436987.1972624
 10
99028.5492214066
 20
436989.635298205
 10
99022.8941451334
 20
436995.705386274
 10
99021.6561286951
 20
436997.004405376
 10
99017.8440761401
 20
437001.236465483
 10
99013.4790149167
 20
437006.210534993
 10
99009.5439590748
 20
437010.775598077
 10
99000.0278185305
 20
437022.484754237
 10
98993.5407210259
 20
437030.681861772
 10
98992.1877001349
 20
437032.458884563
 10
98982.2475445011
 20
437045.786053384
 10
98987.2745368237
 20
437049.328025906
 10
98998.4757119382
 20
437034.346835822
 10
99006.4458323358
 20
437024.207703283
 10
99013.9159427311
 20
437015.01058064
 10
99027.2581284311
 20
436999.979369124
 10
99034.9952332348
 20
436991.62324832
 10
99044.1663532336
 20
436982.236107896
 10
99054.1994784625
 20
436972.701958243
 97
0
 75
0
 76
1
 98
0
  0
HATCH
  5
2000E
  8
0
100
AcDbEntity
100
AcDbHatch
 10
0
 20
0
 30
0
210
0
220
0
230
1
  2
SOLID
 70
1
 71
0
 91
1
 92
2
 72
0
 73
1
 93
109
 10
98317.9787074564
 20
441203.562824723
 10
98318.8707403063
 20
441200.010799126
 10
98320.7758104761
 20
441192.425744434
 10
98323.553913937
 20
441181.244663857
 10
98326.3530175262
 20
441170.058583067
 10
98328.5891017319
 20
441160.966517493
 10
98329.9101503938
 20
441155.717479482
 10
98337.5374343438
 20
441125.110257726
 10
98337.9024473327
 20
441123.713247516
 10
98338.1634568835
 20
441122.685240034
 10
98338.8384815087
 20
441120.035220732
 10
98341.6335855561
 20
441108.836139355
 10
98344.165679983
 20
441098.678065463
 10
98345.6877371117
 20
441092.534020776
 10
98331.5547542373
 20
441089.006059898
 10
98328.3696360008
 20
441101.738152352
 10
98325.8755426588
 20
441111.798225224
 10
98325.1225145078
 20
441114.833247189
 10
98324.6074932791
 20
441117.128263566
 10
98315.2781465762
 20
441154.547534004
 10
98315.0731388777
 20
441155.379539991
 10
98314.7511281186
 20
441156.538548489
 10
98312.0080260281
 20
441167.573627988
 10
98311.7170156036
 20
441168.699636139
 10
98309.027916847
 20
441179.377713107
 10
98308.7669063139
 20
441180.519721227
 10
98307.8516835991
 20
441184.047153863
 10
98307.5466663368
 20
441184.972948698
 10
98307.2114780153
 20
441185.832625238
 10
98306.8307947119
 20
441186.673141327
 10
98306.4057130092
 20
441187.492080308
 10
98305.9374380997
 20
441188.28712194
 10
98305.3737996997
 20
441189.136642923
 10
98304.4928145339
 20
441190.262798958
 10
98303.1077985976
 20
441191.887814708
 10
98301.4769318277
 20
441193.541827257
 10
98301.0684829182
 20
441193.971787995
 10
98300.9968001948
 20
441194.04466674
 10
98300.9238614816
 20
441194.116286481
 10
98300.8496877788
 20
441194.186628222
 10
98300.4720886827
 20
441194.532455699
 10
98299.7341233872
 20
441195.02127749
 10
98298.9787073729
 20
441195.376933125
 10
98298.1482238383
 20
441195.43402001
 10
98297.4529220333
 20
441195.215039207
 10
98297.2127203221
 20
441195.143595034
 10
98296.7927948642
 20
441194.569462099
 10
98296.3668844196
 20
441193.810573111
 10
98296.0277430033
 20
441192.951228261
 10
98295.8078263322
 20
441192.05393159
 10
98295.7111679549
 20
441191.135117438
 10
98295.7382673698
 20
441190.253560923
 10
98290.6006012692
 20
441212.528993181
 10
98291.9525998628
 20
441212.824989402
 10
98305.5525804551
 20
441216.381955028
 10
98306.9855784027
 20
441216.756951416
 10
98306.2095462287
 20
441220.2519761
 10
98304.5244872742
 20
441226.631022233
 10
98304.3366607796
 20
441227.47547441
 10
98304.0448935422
 20
441228.591438517
 10
98303.7121940509
 20
441229.695896489
 10
98303.3389984251
 20
441230.7873917
 10
98302.925841125
 20
441231.86435186
 10
98302.5864312607
 20
441232.660067217
 10
98301.5774064695
 20
441235.314087649
 10
98296.6612952415
 20
441247.190180616
 10
98303.5962859734
 20
441248.909162851
 10
98308.1783870134
 20
441238.139077946
 10
98310.4134819146
 20
441232.617464602
 10
98310.9978523918
 20
441231.681082598
 10
98311.52871812
 20
441230.950918653
 10
98312.1098175117
 20
441230.26012572
 10
98312.5025755237
 20
441229.855146251
 10
98312.8130916925
 20
441229.534683004
 10
98313.1965208358
 20
441229.137679953
 10
98313.8515312589
 20
441228.545317833
 10
98314.5450732418
 20
441227.998517444
 10
98315.2739658251
 20
441227.499792185
 10
98316.0348406117
 20
441227.051443878
 10
98316.8242787621
 20
441226.655484798
 10
98317.6386147035
 20
441226.31375483
 10
98318.4741967333
 20
441226.027780669
 10
98319.327175357
 20
441225.79888916
 10
98320.1936311157
 20
441225.628121072
 10
98320.993416623
 20
441225.525986541
 10
98324.7285088571
 20
441226.283936972
 10
98325.4641807097
 20
441226.164002893
 10
98327.9575080088
 20
441226.704926288
 10
98331.1855029964
 20
441227.586918463
 10
98332.1985014203
 20
441227.86391601
 10
98332.6865007279
 20
441227.989914779
 10
98335.7835237766
 20
441225.749888187
 10
98330.7965391535
 20
441223.540895054
 10
98330.9635405881
 20
441223.39889348
 10
98331.7205713087
 20
441220.071869797
 10
98331.7805737194
 20
441219.810867935
 10
98332.602606771
 20
441216.232842419
 10
98334.0866063443
 20
441216.431837524
 10
98335.0236107482
 20
441216.039831233
 10
98334.6436113092
 20
441215.938832177
 10
98334.1186120793
 20
441215.799833484
 10
98329.1316193841
 20
441214.479845922
 10
98327.6666225762
 20
441213.975848859
 10
98324.4456273965
 20
441213.110856831
 10
98324.0086281192
 20
441212.985857867
 10
98320.6236322944
 20
441212.174866859
 10
98316.0836380775
 20
441211.0658788
 10
98316.3756491253
 20
441209.869870228
 10
98317.9787074564
 20
441203.562824723
 97
0
 75
0
 76
1
 98
0
  0
HATCH
  5
2000F
  8
0
100
AcDbEntity
100
AcDbHatch
 10
0
 20
0
 30
0
210
0
220
0
230
1
  2
SOLID
 70
1
 71
0
 91
1
 92
2
 72
0
 73
1
 93
35
 10
99143.6924239282
 20
436904.636750653
 10
99152.2214970356
 20
436899.776648418
 10
99159.0605541998
 20
436896.055567407
 10
99165.5806074482
 20
436892.658490999
 10
99174.0376762644
 20
436888.287392046
 10
99174.4356788061
 20
436888.163387864
 10
99181.9297402505
 20
436884.241299833
 10
99185.8187728444
 20
436882.125253662
 10
99197.6208659115
 20
436876.395117477
 10
99194.53891095
 20
436869.791105873
 10
99190.9318826034
 20
436871.528147437
 10
99173.3167418323
 20
436880.300351953
 10
99173.0697449874
 20
436879.823351331
 10
99170.6547222845
 20
436881.426381672
 10
99168.3867004258
 20
436882.995410528
 10
99166.9776868209
 20
436883.973428472
 10
99163.6706557978
 20
436886.163469967
 10
99153.4145603867
 20
436892.869598063
 10
99142.4684594641
 20
436899.933734116
 10
99138.7804266457
 20
436902.177779133
 10
99132.8403738496
 20
436905.78785159
 10
99124.1332954426
 20
436911.205958458
 10
99116.5662256378
 20
436916.117052429
 10
99103.8451046593
 20
436924.815212795
 10
99098.4400491001
 20
436928.722284783
 10
99091.1999713381
 20
436934.052384561
 10
99088.2519391445
 20
436936.287425538
 10
99091.9179147802
 20
436941.092418123
 10
99100.0167036093
 20
436934.437545579
 10
99108.294093996
 20
436928.006192557
 10
99108.0860955722
 20
436927.730192775
 10
99113.7603878191
 20
436923.579165706
 10
99119.5345972793
 20
436919.568290538
 10
99135.4183525771
 20
436909.408850087
 10
99143.6924239282
 20
436904.636750653
 97
0
 75
0
 76
1
 98
0
  0
HATCH
  5
20010
  8
0
100
AcDbEntity
100
AcDbHatch
 10
0
 20
0
 30
0
210
0
220
0
230
1
  2
SOLID
 70
1
 71
0
 91
1
 92
2
 72
0
 73
1
 93
107
 10
98309.8761528218
 20
441153.264548907
 10
98319.1684995855
 20
441115.81427872
 10
98325.4337323643
 20
441090.721096913
 10
98326.1987607013
 20
441087.669074755
 10
98312.5087771644
 20
441084.25111284
 10
98311.2337296285
 20
441089.379149926
 10
98308.6746350818
 20
441099.580223735
 10
98307.432589168
 20
441104.536259563
 10
98306.2325448313
 20
441109.323294144
 10
98296.9571982867
 20
441146.795563782
 10
98296.6811879676
 20
441147.912571796
 10
98293.9490872229
 20
441158.817650195
 10
98291.4299931616
 20
441169.00872323
 10
98291.1479821393
 20
441170.204731739
 10
98290.2150471211
 20
441174.112305581
 10
98289.4079099802
 20
441178.047787048
 10
98289.1328990326
 20
441179.23679548
 10
98288.901887966
 20
441180.443803838
 10
98287.3358134211
 20
441188.574860133
 10
98287.1568047531
 20
441189.52086667
 10
98285.8485679498
 20
441196.883870769
 10
98285.6248438785
 20
441197.767044613
 10
98285.2415841448
 20
441198.53129802
 10
98284.7029557343
 20
441199.195240587
 10
98284.0341659406
 20
441199.727820596
 10
98283.2629000926
 20
441200.105891468
 10
98282.4219192659
 20
441200.3088168
 10
98281.5556052299
 20
441200.323712815
 10
98281.0987028637
 20
441200.229957344
 10
98279.9517037518
 20
441200.010960769
 10
98279.0004917058
 20
441199.805097462
 10
98278.0541078539
 20
441199.578067008
 10
98277.1130241953
 20
441199.329984402
 10
98276.1777087295
 20
441199.060970643
 10
98275.0437110899
 20
441198.678973028
 10
98272.9477164724
 20
441197.85897674
 10
98267.4607337236
 20
441195.357984321
 10
98267.3657318412
 20
441195.557985931
 10
98263.6007465296
 20
441193.52198921
 10
98258.3917668284
 20
441190.704993776
 10
98255.9496811947
 20
441200.011060453
 10
98255.4676643141
 20
441201.8460736
 10
98258.6726510043
 20
441203.668071364
 10
98259.4769160467
 20
441204.136048476
 10
98260.2996438486
 20
441204.637070502
 10
98263.9656273501
 20
441206.861068834
 10
98266.9496139113
 20
441208.671067487
 10
98267.5331221804
 20
441209.019048305
 10
98268.2919259419
 20
441209.51381549
 10
98269.0303141864
 20
441210.038587251
 10
98269.7687493458
 20
441210.609252908
 10
98270.6002956623
 20
441211.314662036
 10
98271.2516183207
 20
441211.935070582
 10
98271.9418219709
 20
441212.693505226
 10
98272.5761863708
 20
441213.499231441
 10
98273.1514868802
 20
441214.34815387
 10
98273.6586851837
 20
441215.225392506
 10
98274.1727616951
 20
441216.484896534
 10
98274.5337181675
 20
441217.530913459
 10
98274.832418095
 20
441218.581332626
 10
98275.0136928903
 20
441219.320248047
 10
98275.0416098149
 20
441219.442992685
 10
98275.0674447335
 20
441219.566192324
 10
98275.1625197125
 20
441220.061188087
 10
98275.2252967647
 20
441220.941113696
 10
98275.1835629875
 20
441221.822295411
 10
98275.037918569
 20
441222.692328964
 10
98274.8964911931
 20
441223.176123047
 10
98270.506329999
 20
441240.705247919
 10
98284.3663116271
 20
441244.141212185
 10
98287.1924242726
 20
441231.882125649
 10
98288.3754790412
 20
441225.905084224
 10
98289.7535506616
 20
441218.074030621
 10
98290.6006012692
 20
441212.528993181
 10
98295.7526471224
 20
441190.191214477
 10
98295.7653411471
 20
441189.995043397
 10
98295.9860282345
 20
441188.976597981
 10
98296.2394523532
 20
441188.156706729
 10
98296.5626790693
 20
441187.361730416
 10
98296.9532913377
 20
441186.597609556
 10
98297.4272722513
 20
441185.839833915
 10
98298.325858978
 20
441184.670790353
 10
98302.6859140225
 20
441179.015737421
 10
98303.6929264357
 20
441177.743725394
 10
98303.7128837073
 20
441177.715665137
 10
98303.7323499816
 20
441177.687261881
 10
98303.7513212585
 20
441177.658525626
 10
98303.7697905378
 20
441177.629464366
 10
98303.7877518195
 20
441177.600087113
 10
98303.8052011033
 20
441177.570402859
 10
98303.8221323895
 20
441177.540419605
 10
98303.8385416777
 20
441177.510146349
 10
98303.8544219678
 20
441177.479594095
 10
98303.8697692601
 20
441177.448769836
 10
98303.8845795539
 20
441177.417684586
 10
98303.8988488497
 20
441177.386346335
 10
98303.9125711472
 20
441177.354765086
 10
98303.9257434461
 20
441177.322950832
 10
98303.9383617465
 20
441177.290912583
 10
98303.9504210484
 20
441177.258660335
 10
98303.9619193516
 20
441177.226203089
 10
98303.9728526557
 20
441177.19355184
 10
98303.9832179613
 20
441177.160715594
 10
98303.9930112679
 20
441177.12770435
 10
98304.0022295753
 20
441177.09452711
 10
98304.0070234916
 20
441177.076038162
 10
98309.8761528218
 20
441153.264548907
 97
0
 75
0
 76
1
 98
0
  0
HATCH
  5
20011
  8
0
100
AcDbEntity
100
AcDbHatch
 10
0
 20
0
 30
0
210
0
220
0
230
1
  2
SOLID
 70
1
 71
0
 91
1
 92
2
 72
0
 73
1
 93
71
 10
98358.4749646316
 20
440958.451130509
 10
98361.9470777237
 20
440946.418039808
 10
98362.8171067349
 20
440943.330016609
 10
98363.0040806716
 20
440942.67942321
 10
98363.2841606643
 20
440941.821330905
 10
98363.5946253849
 20
440940.973824151
 10
98363.93509843
 20
440940.137917491
 10
98364.3051666008
 20
440939.314633543
 10
98364.7689026997
 20
440938.374128586
 10
98368.6132218151
 20
440931.395915792
 10
98369.4442367112
 20
440929.862902432
 10
98369.5424732769
 20
440929.703235985
 10
98369.6378088549
 20
440929.541820547
 10
98369.7302124449
 20
440929.378709108
 10
98369.8196540461
 20
440929.213954669
 10
98369.9061036583
 20
440929.047611237
 10
98369.9895342807
 20
440928.879733811
 10
98370.0699179128
 20
440928.710375383
 10
98370.1472275546
 20
440928.539591962
 10
98370.2214402049
 20
440928.367440551
 10
98370.2925298634
 20
440928.193975139
 10
98370.3604735295
 20
440928.01925474
 10
98370.4252492026
 20
440927.843335347
 10
98370.4868358823
 20
440927.666273959
 10
98370.545213568
 20
440927.48812858
 10
98370.6003632592
 20
440927.30895721
 10
98370.6522659554
 20
440927.128818844
 10
98370.7009056558
 20
440926.947772494
 10
98370.74626636
 20
440926.765877153
 10
98371.1822801533
 20
440925.302866019
 10
98355.4512955934
 20
440921.508914119
 10
98354.8522757204
 20
440923.623930021
 10
98350.9221449124
 20
440937.554034597
 10
98348.5320659175
 20
440945.97009777
 10
98346.9820142473
 20
440951.479139023
 10
98342.8198836327
 20
440965.382244142
 10
98342.2708666556
 20
440967.189257825
 10
98341.5818433432
 20
440969.679276375
 10
98341.3438365578
 20
440970.399281912
 10
98341.2850578943
 20
440970.394451025
 10
98340.4728082937
 20
440973.414304528
 10
98339.2627662037
 20
440977.916337883
 10
98337.5887064132
 20
440984.319385076
 10
98332.2015102335
 20
441005.358539413
 10
98324.7052346854
 20
441034.960755607
 10
98323.4171888854
 20
441039.880791662
 10
98323.311996932
 20
441040.777196965
 10
98322.8491629965
 20
441042.68181145
 10
98315.3808841453
 20
441072.716029333
 10
98313.7608238873
 20
441079.21207638
 10
98312.5087771644
 20
441084.25111284
 10
98326.198419158
 20
441087.668989483
 10
98326.7177799326
 20
441085.598059716
 10
98328.1308229933
 20
441080.991025129
 10
98325.8670010906
 20
441060.98891134
 10
98329.2761261132
 20
441047.543813333
 10
98331.1101833155
 20
441041.428767468
 10
98338.2654156798
 20
441016.577582032
 10
98338.5544250749
 20
441015.57357453
 10
98346.8356944511
 20
440986.813359214
 10
98346.9074338804
 20
440986.553870284
 10
98346.9838533029
 20
440986.295720339
 10
98347.1865968459
 20
440985.653712932
 10
98347.5844012235
 20
440984.652525098
 10
98348.0535219509
 20
440983.682672697
 10
98348.3897298284
 20
440983.099329192
 10
98353.7238259075
 20
440973.161243484
 10
98354.6398443672
 20
440971.23922741
 10
98355.2918628139
 20
440969.285212311
 10
98355.5978717523
 20
440968.337205035
 10
98358.4749646316
 20
440958.451130509
 97
0
 75
0
 76
1
 98
0
  0
HATCH
  5
20012
  8
0
100
AcDbEntity
100
AcDbHatch
 10
0
 20
0
 30
0
210
0
220
0
230
1
  2
SOLID
 70
1
 71
0
 91
1
 92
2
 72
0
 73
1
 93
85
 10
98750.2370909374
 20
437636.481673309
 10
98751.6966717119
 20
437634.948424806
 10
98756.4337364335
 20
437629.916351382
 10
98761.1158046988
 20
437624.481275812
 10
98766.1108770773
 20
437618.737195462
 10
98779.7140852286
 20
437601.9269688
 10
98784.86216264
 20
437595.112885277
 10
98790.3002457793
 20
437587.590796487
 10
98794.7083153097
 20
437581.23972308
 10
98801.4734278652
 20
437570.793606511
 10
98807.8225387113
 20
437560.370493615
 10
98813.2616388525
 20
437550.823393424
 10
98816.0956929837
 20
437545.616339916
 10
98816.5347017618
 20
437544.762331367
 10
98811.2677064441
 20
437541.659361393
 10
98801.9945329187
 20
437558.276534042
 10
98800.9935151227
 20
437559.958552055
 10
98790.150331654
 20
437577.069740923
 10
98789.4633204775
 20
437578.100752591
 10
98779.4551657455
 20
437592.151917139
 10
98778.129146007
 20
437593.922938429
 10
98766.667973504
 20
437608.51812577
 10
98765.3929546257
 20
437610.02614657
 10
98757.8938444865
 20
437618.806268249
 10
98755.3248072783
 20
437621.760309549
 10
98751.1577483403
 20
437626.401375547
 10
98750.3070508801
 20
437627.287212625
 10
98749.4397225064
 20
437628.156773736
 10
98748.5560752236
 20
437629.009745897
 10
98747.6564260356
 20
437629.84582208
 10
98746.7410979464
 20
437630.664704293
 10
98745.8104189602
 20
437631.466096532
 10
98744.8647240805
 20
437632.249712781
 10
98743.9043523116
 20
437633.015270053
 10
98742.9296486569
 20
437633.762494324
 10
98740.7206251079
 20
437635.391523995
 10
98739.6176792334
 20
437636.21780089
 10
98738.4999144887
 20
437637.023918783
 10
98737.3676998775
 20
437637.809611665
 10
98736.2214084036
 20
437638.574619547
 10
98735.0614180708
 20
437639.318692411
 10
98733.8881108827
 20
437640.04158326
 10
98732.701872843
 20
437640.743054083
 10
98731.5030969553
 20
437641.422873874
 10
98730.292177223
 20
437642.080819636
 10
98729.0695126498
 20
437642.716672362
 10
98727.5164991081
 20
437643.536691133
 10
98725.5681206259
 20
437644.510634341
 10
98723.598787462
 20
437645.44147445
 10
98719.9426356341
 20
437647.041944555
 10
98718.259650942
 20
437647.71608553
 10
98716.5614125548
 20
437648.350817395
 10
98714.6836663456
 20
437648.999749919
 10
98712.7903865083
 20
437649.601858274
 10
98711.2933765985
 20
437650.051874211
 10
98708.6367705901
 20
437650.787795087
 10
98705.9593432363
 20
437651.443929646
 10
98706.0323399147
 20
437651.836931467
 10
98707.6232674922
 20
437660.403971122
 10
98707.8482572716
 20
437661.612976714
 10
98709.2934751641
 20
437661.141290124
 10
98710.729557271
 20
437660.642477446
 10
98712.1559945894
 20
437660.116716673
 10
98713.5722801158
 20
437659.564191826
 10
98714.9779128461
 20
437658.9851019
 10
98716.3723947768
 20
437658.379648905
 10
98717.7552299042
 20
437657.748049849
 10
98719.1259302243
 20
437657.09052873
 10
98720.4840077331
 20
437656.407316563
 10
98721.8289824268
 20
437655.698657339
 10
98723.1603773011
 20
437654.964801074
 10
98722.9983794684
 20
437654.660800589
 10
98732.4964628695
 20
437649.573685434
 10
98734.4905806471
 20
437648.477719065
 10
98736.460416731
 20
437647.338684632
 10
98738.4050411124
 20
437646.157122143
 10
98741.5286681642
 20
437644.094283759
 10
98742.7129167353
 20
437643.2257609
 10
98743.8755734887
 20
437642.328540044
 10
98744.7294382148
 20
437641.630620146
 10
98745.5683170497
 20
437640.914757274
 10
98746.3918319877
 20
437640.181271417
 10
98747.1996130257
 20
437639.430492595
 10
98748.7377263707
 20
437637.976039912
 10
98750.2370909374
 20
437636.481673309
 97
0
 75
0
 76
1
 98
0
  0
HATCH
  5
20013
  8
0
100
AcDbEntity
100
AcDbHatch
 10
0
 20
0
 30
0
210
0
220
0
230
1
  2
SOLID
 70
1
 71
0
 91
1
 92
2
 72
0
 73
1
 93
36
 10
98830.0709896865
 20
437516.378056162
 10
98834.0230875591
 20
437506.433966612
 10
98837.0801694684
 20
437497.996893223
 10
98838.3472034397
 20
437494.498862779
 10
98840.9472809514
 20
437486.379795142
 10
98843.0873524023
 20
437478.774734393
 10
98843.2793588283
 20
437478.090728932
 10
98845.4234363545
 20
437469.756664122
 10
98849.2335769734
 20
437454.611547019
 10
98852.6547045428
 20
437440.865440961
 10
98859.3879590355
 20
437413.428229813
 10
98864.2951448594
 20
437393.415075577
 10
98858.4011343718
 20
437391.768119954
 10
98857.3100931331
 20
437396.20915419
 10
98851.9468904826
 20
437418.047322379
 10
98847.7737328809
 20
437435.047453108
 10
98842.8535489851
 20
437454.878605879
 10
98839.9734426219
 20
437466.34169441
 10
98839.0764093264
 20
437469.933722091
 10
98837.1833406781
 20
437477.320779423
 10
98836.4793168246
 20
437479.865799629
 10
98834.4542523053
 20
437486.692855041
 10
98832.9111822729
 20
437491.638965856
 10
98831.2331580779
 20
437496.540937613
 10
98829.9731248432
 20
437499.955967512
 10
98828.80309484
 20
437503.023994703
 10
98825.2399620912
 20
437512.054183758
 10
98821.4209172473
 20
437520.979158451
 10
98820.0908876167
 20
437523.930186383
 10
98812.6287335097
 20
437539.029334986
 10
98811.4897107761
 20
437541.240357141
 10
98811.2677064441
 20
437541.659361393
 10
98816.5347017618
 20
437544.762331367
 10
98821.3207975187
 20
437535.450238094
 10
98825.397883404
 20
437527.002155757
 10
98830.0709896865
 20
437516.378056162
 97
0
 75
0
 76
1
 98
0
  0
HATCH
  5
20014
  8
0
100
AcDbEntity
100
AcDbHatch
 10
0
 20
0
 30
0
210
0
220
0
230
1
  2
SOLID
 70
1
 71
0
 91
1
 92
2
 72
0
 73
1
 93
175
 10
98470.8807070887
 20
440666.811417623
 10
98471.0735956138
 20
440666.675608797
 10
98471.2687981118
 20
440666.543146985
 10
98471.466255582
 20
440666.414071183
 10
98471.665910024
 20
440666.288420391
 10
98471.8677014374
 20
440666.166230608
 10
98472.0715698217
 20
440666.04753884
 10
98472.2774541766
 20
440665.932381085
 10
98472.4852945017
 20
440665.820790344
 10
98472.6950277967
 20
440665.712800614
 10
98472.9065930608
 20
440665.608443899
 10
98473.1199252941
 20
440665.507751198
 10
98473.334962496
 20
440665.410751515
 10
98473.5516406659
 20
440665.31747585
 10
98473.7698948038
 20
440665.227950192
 10
98473.9896609096
 20
440665.142201561
 10
98474.2108719825
 20
440665.060254938
 10
98474.4334640221
 20
440664.982136337
 10
98474.6573700284
 20
440664.907867753
 10
98474.8825240012
 20
440664.837471188
 10
98475.1088569399
 20
440664.770967642
 10
98475.3363038443
 20
440664.708378118
 10
98475.5647967141
 20
440664.649719607
 10
98476.1337985219
 20
440664.542716113
 10
98477.8088042849
 20
440664.179705502
 10
98477.8678045266
 20
440664.162705103
 10
98478.6618065696
 20
440664.065700551
 10
98480.1788092678
 20
440664.011692701
 10
98481.5248103861
 20
440664.10268663
 10
98482.8478101669
 20
440664.335681585
 10
98484.0308095507
 20
440664.589677365
 10
98484.512809047
 20
440664.720675822
 10
98484.6468090026
 20
440664.746675326
 10
98488.2428696771
 20
440658.711618731
 10
98485.9030119833
 20
440657.367886728
 10
98485.7431786644
 20
440657.340248429
 10
98485.6260379834
 20
440657.287671678
 10
98485.5255601075
 20
440657.207674999
 10
98485.4492805181
 20
440657.106833726
 10
98483.152889108
 20
440655.788625166
 10
98482.9367919903
 20
440655.658216396
 10
98482.7185288357
 20
440655.531464668
 10
98482.4981626442
 20
440655.408407969
 10
98482.2757544154
 20
440655.289079305
 10
98482.0513681489
 20
440655.173514675
 10
98481.8250678448
 20
440655.061744078
 10
98481.5969165029
 20
440654.953801516
 10
98481.3669801229
 20
440654.849715987
 10
98481.1353227045
 20
440654.749518491
 10
98480.9020112478
 20
440654.653236032
 10
98480.6671107525
 20
440654.560897604
 10
98480.4306882187
 20
440654.472528211
 10
98480.1928116458
 20
440654.388152847
 10
98479.9535470341
 20
440654.307795522
 10
98479.7129633832
 20
440654.231479222
 10
98479.4711286932
 20
440654.159225958
 10
98479.228110964
 20
440654.091055726
 10
98478.9839791953
 20
440654.026988527
 10
98478.7388043873
 20
440653.967041354
 10
98478.4926535401
 20
440653.911232223
 10
98478.2455976532
 20
440653.859577116
 10
98477.9977067267
 20
440653.812089041
 10
98477.7490517607
 20
440653.768782994
 10
98477.4997027553
 20
440653.729671979
 10
98477.2497297103
 20
440653.694764998
 10
98476.9992036258
 20
440653.664073043
 10
98476.7481975018
 20
440653.63760512
 10
98476.4967803385
 20
440653.615368226
 10
98476.2450241356
 20
440653.597368356
 10
98475.9930008935
 20
440653.583611522
 10
98475.7407816119
 20
440653.574100704
 10
98475.4884372914
 20
440653.568839928
 10
98475.2360409316
 20
440653.567829168
 10
98474.9836625329
 20
440653.571069448
 10
98474.7313750956
 20
440653.578559745
 10
98474.4792496192
 20
440653.590298071
 10
98474.2273571042
 20
440653.606280421
 10
98473.975769551
 20
440653.626503802
 10
98473.7245579593
 20
440653.650960202
 10
98473.4737943297
 20
440653.679644631
 10
98473.2235486619
 20
440653.712549083
 10
98473.0016079813
 20
440653.7458842
 10
98472.9486688766
 20
440653.754342712
 10
98472.9423188591
 20
440653.755249753
 10
98472.9359538423
 20
440653.756050786
 10
98472.9295778266
 20
440653.756745824
 10
98472.9288394904
 20
440653.756813911
 10
98472.9179680366
 20
440653.758446777
 10
98472.8329099915
 20
440653.759189843
 10
98472.7157928318
 20
440653.721990011
 10
98472.6160233172
 20
440653.650213873
 10
98472.5435282884
 20
440653.55094624
 10
98472.505475342
 20
440653.434004029
 10
98472.5098995534
 20
440652.956659779
 10
98472.6469036528
 20
440652.531656375
 10
98475.3269814031
 20
440644.486591483
 10
98475.3487556296
 20
440644.423724632
 10
98475.4212877618
 20
440644.321036849
 10
98475.5194486876
 20
440644.24255229
 10
98475.6320818008
 20
440644.195845287
 10
98466.6737526652
 20
440638.678544998
 10
98465.6141343228
 20
440641.704465425
 10
98465.638198446
 20
440641.727801026
 10
98465.7382497735
 20
440641.819461219
 10
98465.8250636782
 20
440641.902708284
 10
98465.9205307636
 20
440642.000640634
 10
98466.0126511505
 20
440642.101752461
 10
98466.1012913076
 20
440642.205890538
 10
98466.1863753532
 20
440642.312969037
 10
98466.2677874898
 20
440642.422838018
 10
98466.3454336402
 20
440642.535368711
 10
98466.4192625001
 20
440642.650486136
 10
98466.489185611
 20
440642.768060402
 10
98466.5550794865
 20
440642.887884434
 10
98466.6168814714
 20
440643.009831334
 10
98466.6745708819
 20
440643.13387014
 10
98466.7280241666
 20
440643.259737525
 10
98466.7772034425
 20
440643.387340253
 10
98466.8220584016
 20
440643.516546127
 10
98466.8625151112
 20
440643.647142444
 10
98466.8985579644
 20
440643.779077106
 10
98466.9301263387
 20
440643.9121279
 10
98466.9571892855
 20
440644.046169292
 10
98466.9797221323
 20
440644.181082273
 10
98466.9976884658
 20
440644.316654748
 10
98467.0110750143
 20
440644.452763618
 10
98467.0198620193
 20
440644.589261294
 10
98467.0240395743
 20
440644.725904971
 10
98467.0236082987
 20
440644.862656594
 10
98467.0185648859
 20
440644.999313622
 10
98467.0089110387
 20
440645.135785316
 10
98466.9919744685
 20
440645.297482754
 10
98466.753419497
 20
440646.264039506
 10
98466.4953673818
 20
440647.216874888
 10
98466.2159342911
 20
440648.16366033
 10
98463.6308588956
 20
440655.975723145
 10
98463.504855082
 20
440656.371726306
 10
98458.9997234869
 20
440670.018835818
 10
98452.7405402948
 20
440689.040988057
 10
98459.7935283533
 20
440691.443968789
 10
98462.2055988506
 20
440684.125910178
 10
98465.6877000478
 20
440673.630825913
 10
98465.970706644
 20
440672.955820196
 10
98466.0675528444
 20
440672.731044285
 10
98466.1683030348
 20
440672.507989358
 10
98466.2729242144
 20
440672.286725426
 10
98466.3813863824
 20
440672.06731749
 10
98466.4936565385
 20
440671.849834542
 10
98466.6096996817
 20
440671.634339591
 10
98466.7294808117
 20
440671.420900635
 10
98466.8529629274
 20
440671.209581673
 10
98466.9801100286
 20
440671.000447708
 10
98467.1108831145
 20
440670.793560734
 10
98467.2452411843
 20
440670.588983763
 10
98467.3831452377
 20
440670.386780788
 10
98467.5245512738
 20
440670.18701081
 10
98467.6694182922
 20
440669.98973583
 10
98467.8177012921
 20
440669.795016855
 10
98467.9693562728
 20
440669.602910874
 10
98468.124335234
 20
440669.413476898
 10
98468.2825921752
 20
440669.226772923
 10
98468.4440800953
 20
440669.042855947
 10
98468.76661683
 20
440668.686488072
 10
98468.9274856451
 20
440668.513943173
 10
98469.0913054388
 20
440668.344198276
 10
98469.2580282109
 20
440668.177304386
 10
98469.4276039603
 20
440668.013309498
 10
98469.5999826867
 20
440667.852263614
 10
98469.77511339
 20
440667.694214738
 10
98469.9529430691
 20
440667.539209864
 10
98470.1334197239
 20
440667.387294
 10
98470.3164893537
 20
440667.238513145
 10
98470.502096958
 20
440667.092911292
 10
98470.6901885364
 20
440666.950531451
 10
98470.8807070887
 20
440666.811417623
 97
0
 75
0
 76
1
 98
0
  0
HATCH
  5
20015
  8
0
100
AcDbEntity
100
AcDbHatch
 10
0
 20
0
 30
0
210
0
220
0
230
1
  2
SOLID
 70
1
 71
0
 91
1
 92
2
 72
0
 73
1
 93
31
 10
98448.8075469395
 20
440687.700998819
 10
98456.4567684767
 20
440664.704814443
 10
98459.6458606
 20
440655.154737658
 10
98459.8228657602
 20
440654.61973336
 10
98463.8829843981
 20
440642.323634574
 10
98463.955758721
 20
440642.162856195
 10
98463.9917978753
 20
440642.070869416
 10
98463.9981460264
 20
440642.055424286
 10
98464.0278826091
 20
440641.986334227
 10
98464.0965263164
 20
440641.871490886
 10
98464.1796916291
 20
440641.766729461
 10
98464.2759507303
 20
440641.673842836
 10
98464.383619837
 20
440641.594460517
 10
98464.5008383714
 20
440641.529957289
 10
98464.6255538954
 20
440641.48147438
 10
98464.7555343785
 20
440641.449877771
 10
98464.888554998
 20
440641.435688938
 10
98465.0222863218
 20
440641.43917338
 10
98465.1543592875
 20
440641.460253271
 10
98465.28251357
 20
440641.498567838
 10
98465.4045248465
 20
440641.553459982
 10
98465.5182184161
 20
440641.623962835
 10
98465.6146170687
 20
440641.703086868
 10
98466.6737526652
 20
440638.678544998
 10
98453.6470761582
 20
440630.655611066
 10
98452.8070515825
 20
440633.203631521
 10
98448.0409137242
 20
440647.496746402
 10
98446.2798613949
 20
440652.933789782
 10
98443.2417747462
 20
440661.921862073
 10
98436.1475682453
 20
440683.389033595
 10
98448.8075469395
 20
440687.700998819
 97
0
 75
0
 76
1
 98
0
  0
HATCH
  5
20016
  8
0
100
AcDbEntity
100
AcDbHatch
 10
0
 20
0
 30
0
210
0
220
0
230
1
  2
SOLID
 70
1
 71
0
 91
2
 92
2
 72
0
 73
1
 93
427
 10
97074.2476355024
 20
436467.335495826
 10
97074.4072369175
 20
436466.407475107
 10
97074.5059134573
 20
436466.145058261
 10
97074.6077584843
 20
436465.947733956
 10
97074.7318497521
 20
436465.763675292
 10
97074.876574956
 20
436465.595275519
 10
97075.0399231119
 20
436465.444892088
 10
97075.2196824086
 20
436465.314553295
 10
97075.4133892459
 20
436465.20605159
 10
97075.6184191929
 20
436465.120847756
 10
97075.8319865058
 20
436465.060105697
 10
97076.0511870807
 20
436465.024655001
 10
97076.2729884242
 20
436465.014982393
 10
97076.4943837684
 20
436465.03120708
 10
97076.715676042
 20
436465.073737297
 10
97080.9831839986
 20
436466.444799475
 10
97083.2652354808
 20
436459.789758075
 10
97084.0052517274
 20
436457.712744824
 10
97084.111805833
 20
436457.343618348
 10
97084.2232869148
 20
436457.060746854
 10
97084.3185990564
 20
436456.850229584
 10
97084.4242689646
 20
436456.644697646
 10
97084.5400321467
 20
436456.4446648
 10
97084.6655937315
 20
436456.250643354
 10
97084.8006483693
 20
436456.063099617
 10
97084.9448691344
 20
436455.882498399
 10
97085.0978622958
 20
436455.709319772
 10
97085.2593076559
 20
436455.54393111
 10
97085.4287563048
 20
436455.386792655
 10
97085.6058083939
 20
436455.238273839
 10
97085.7900576099
 20
436455.098716747
 10
97085.9809955855
 20
436454.968512006
 10
97086.1781724021
 20
436454.847959479
 10
97086.3811197448
 20
436454.737349632
 10
97086.589274203
 20
436454.636988011
 10
97086.8021732354
 20
436454.547092994
 10
97087.0193082713
 20
436454.467885569
 10
97087.240059503
 20
436454.39958883
 10
97087.4639811699
 20
436454.34233752
 10
97087.6904796439
 20
436454.296292994
 10
97087.9189652543
 20
436454.261570703
 10
97088.1488562721
 20
436454.238254705
 10
97088.3796796892
 20
436454.226392783
 10
97088.6108100147
 20
436454.226026962
 10
97088.863987092
 20
436454.238226832
 10
97089.2213039899
 20
436454.280675974
 10
97089.5173052993
 20
436450.361378215
 10
97089.5257286958
 20
436450.183683394
 10
97089.5259897201
 20
436450.179594381
 10
97089.526318745
 20
436450.175510371
 10
97089.5267147702
 20
436450.17143236
 10
97089.5271787958
 20
436450.167361349
 10
97089.5277098217
 20
436450.163299331
 10
97089.5283088481
 20
436450.159245316
 10
97089.5289738747
 20
436450.155203295
 10
97089.5297059017
 20
436450.151171279
 10
97089.5305049291
 20
436450.147153258
 10
97089.5313709569
 20
436450.14314824
 10
97089.5323019849
 20
436450.139158217
 10
97089.5333000135
 20
436450.135184202
 10
97089.5343630422
 20
436450.131227182
 10
97089.5348032268
 20
436450.129691436
 10
97089.5356383609
 20
436450.118633586
 10
97089.5521194096
 20
436450.085463873
 10
97089.5540034418
 20
436450.08182584
 10
97089.5559474741
 20
436450.078218811
 10
97089.5579515068
 20
436450.074644775
 10
97089.5600135396
 20
436450.071103745
 10
97089.5621335726
 20
436450.067598713
 10
97089.5643126058
 20
436450.064127679
 10
97089.5665476389
 20
436450.060694648
 10
97089.5688396726
 20
436450.057298612
 10
97089.5711877062
 20
436450.053940581
 10
97089.5735917399
 20
436450.050621539
 10
97089.641494094
 20
436449.960030051
 10
97089.7543314459
 20
436449.950660195
 10
97093.6353582087
 20
436449.580613738
 10
97097.6043855771
 20
436449.202566226
 10
97104.8154345539
 20
436448.650480198
 10
97115.2635051939
 20
436447.909355669
 10
97125.266572438
 20
436447.270236596
 10
97126.7625824529
 20
436447.182218803
 10
97133.4526272425
 20
436446.788139233
 10
97133.1586856883
 20
436435.965118626
 10
97132.8564745029
 20
436436.191207683
 10
97132.5499873232
 20
436436.41146478
 10
97132.2393361496
 20
436436.625807914
 10
97131.9246349836
 20
436436.834160082
 10
97131.6059988266
 20
436437.036443282
 10
97131.2835446797
 20
436437.232584513
 10
97130.9573925435
 20
436437.422510772
 10
97130.3297246387
 20
436437.764646916
 10
97130.0289918698
 20
436437.917771798
 10
97129.7255611141
 20
436438.065474696
 10
97129.4195293721
 20
436438.207709615
 10
97129.110993645
 20
436438.344431549
 10
97128.8000559337
 20
436438.475594496
 10
97128.4868142387
 20
436438.601157469
 10
97128.1713695613
 20
436438.721080445
 10
97127.8538249023
 20
436438.835323437
 10
97127.5342812622
 20
436438.943851432
 10
97127.2128416421
 20
436439.046627445
 10
97126.8896100432
 20
436439.14362047
 10
97126.5646894656
 20
436439.234797493
 10
97126.2381859102
 20
436439.320129522
 10
97125.9102043787
 20
436439.399590561
 10
97125.5808498712
 20
436439.473152601
 10
97125.2502283885
 20
436439.540794639
 10
97124.9184459317
 20
436439.60249268
 10
97124.585610501
 20
436439.658227717
 10
97121.5705897378
 20
436439.938263816
 10
97114.5745427505
 20
436440.374347112
 10
97114.5895416714
 20
436440.585347399
 10
97103.2344648884
 20
436441.387482788
 10
97096.4304181736
 20
436441.995564177
 10
97089.8963728315
 20
436442.666642533
 10
97086.1953467
 20
436443.127687085
 10
97080.2423040905
 20
436443.973758974
 10
97073.831257691
 20
436444.977836592
 10
97070.6792343894
 20
436445.55987494
 10
97067.7212125745
 20
436446.09691091
 10
97062.3291722614
 20
436447.174976684
 10
97059.9691537686
 20
436447.800005798
 10
97052.9381010925
 20
436449.227091594
 10
97047.3940581002
 20
436450.616159811
 10
97037.9329806533
 20
436453.725277793
 10
97027.9408965662
 20
436457.427403263
 10
97024.6278683622
 20
436458.714444977
 10
97017.7788100686
 20
436461.374531198
 10
97008.3847268814
 20
436465.611650688
 10
97002.2106687187
 20
436469.030730544
 10
97000.0206460125
 20
436470.619759666
 10
96996.3176067842
 20
436473.458809232
 10
96987.7455162192
 20
436479.991923815
 10
96981.5564558277
 20
436483.808004596
 10
96976.0084009591
 20
436487.364077265
 10
96968.4283252039
 20
436492.37017682
 10
96956.0461992644
 20
436500.956340203
 10
96937.1270059596
 20
436514.261589962
 10
96931.8699528233
 20
436517.8596591
 10
96920.327836051
 20
436525.78781086
 10
96910.6727401554
 20
436532.10393706
 10
96909.6257300824
 20
436532.729950616
 10
96900.3356407463
 20
436538.281070877
 10
96890.5655485609
 20
436543.804196621
 10
96885.2074988929
 20
436546.67426522
 10
96879.8104488737
 20
436549.565334302
 10
96868.8603503526
 20
436554.896473308
 10
96857.1402471272
 20
436560.204621185
 10
96845.3841460429
 20
436565.087768532
 10
96832.6440381491
 20
436570.085927535
 10
96819.9189317441
 20
436574.837085779
 10
96793.0497116369
 20
436584.207420286
 10
96784.8316452779
 20
436586.972523171
 10
96784.1166395095
 20
436587.212532124
 10
96779.9026054986
 20
436588.630584879
 10
96779.1455993886
 20
436588.885594352
 10
96778.8265968163
 20
436588.992598343
 10
96762.1674646848
 20
436594.190806018
 10
96758.3944356205
 20
436595.212852731
 10
96741.4433051134
 20
436599.807062581
 10
96725.647188589
 20
436603.165256239
 10
96708.5460644545
 20
436606.444465147
 10
96687.6799167897
 20
436609.759718624
 10
96672.6178125816
 20
436611.719900714
 10
96663.4897519923
 20
436612.431010115
 10
96649.6476620091
 20
436613.156175311
 10
96627.2415184428
 20
436613.941441938
 10
96591.0722901513
 20
436614.560871035
 10
96589.7122817744
 20
436614.544887093
 10
96589.6542248831
 20
436625.293908572
 10
96605.1923220546
 20
436625.169724576
 10
96619.6604133037
 20
436624.908552966
 10
96636.3485190942
 20
436624.506354812
 10
96650.212607621
 20
436624.053189952
 10
96668.7317269078
 20
436623.255969349
 10
96703.6689677033
 20
436618.824547332
 10
96714.7430468523
 20
436616.904412525
 10
96726.5031323225
 20
436614.609268823
 10
96740.7882388737
 20
436611.327093263
 10
96755.5063502626
 20
436607.663911779
 10
96761.4363964907
 20
436605.943838155
 10
96771.4084742725
 20
436603.050714334
 10
96773.9024940616
 20
436602.26668324
 10
96774.6515000031
 20
436602.031673903
 10
96778.8185330714
 20
436600.722621947
 10
96779.5325387369
 20
436600.498613047
 10
96785.5815867643
 20
436598.59753762
 10
96799.3736981353
 20
436593.934364943
 10
96851.2341247782
 20
436575.737721926
 10
96879.199355783
 20
436565.843374984
 10
96911.7226240578
 20
436554.450971274
 10
96916.2096612301
 20
436552.853915484
 10
96912.7786971276
 20
436542.365933769
 10
96899.3735862818
 20
436547.094100403
 10
96898.9615833275
 20
436547.157105353
 10
96898.6015815256
 20
436547.070109383
 10
96898.2585807313
 20
436546.819112869
 10
96898.0265809089
 20
436546.519114966
 10
96897.615577604
 20
436546.647120034
 10
96897.6665756386
 20
436547.064120307
 10
96897.563573115
 20
436547.405122217
 10
96897.3625701906
 20
436547.706125191
 10
96896.9975666451
 20
436547.931129926
 10
96887.4757647942
 20
436551.258672648
 10
96887.3804904023
 20
436550.73124819
 10
96888.1964977175
 20
436550.339237832
 10
96898.3155919478
 20
436544.841108107
 10
96906.8236730318
 20
436539.885998285
 10
96911.1257143973
 20
436537.315942603
 10
96915.1617532117
 20
436534.904890346
 10
96924.5798432735
 20
436529.376768566
 10
96934.0289316215
 20
436524.202647096
 10
96936.6359542836
 20
436523.087614228
 10
96944.0730230457
 20
436519.16151887
 10
96954.0701167806
 20
436513.653390145
 10
96959.3331633349
 20
436511.263323426
 10
96964.9762139192
 20
436508.581251614
 10
96967.1802337919
 20
436507.513223523
 10
96970.2232603525
 20
436506.198185062
 10
96973.0952846725
 20
436505.09314905
 10
96976.3633116735
 20
436503.958108325
 10
96979.2993356705
 20
436502.986071837
 10
96981.6653545839
 20
436502.280042593
 10
96980.5623708631
 20
436498.061046558
 10
96975.774332477
 20
436499.509105788
 10
96971.6342980495
 20
436500.986157471
 10
96967.190259646
 20
436502.8352135
 10
96958.6361838131
 20
436506.744322055
 10
96958.2751815386
 20
436506.741326278
 10
96957.5881832619
 20
436505.637332002
 10
96961.6362245147
 20
436502.813278576
 10
96969.2253022657
 20
436497.448178225
 10
96977.1383816954
 20
436492.157074182
 10
96983.268442063
 20
436488.272993997
 10
96991.8295255968
 20
436482.99388228
 10
96997.6005806462
 20
436479.666807422
 10
96999.9926034676
 20
436478.287776396
 10
97000.0206037228
 20
436478.273776035
 10
97003.8306385664
 20
436476.350727182
 10
97008.9636855187
 20
436473.759661352
 10
97018.1767671133
 20
436469.597544203
 10
97025.5558306557
 20
436466.594451048
 10
97026.833841662
 20
436466.074434913
 10
97035.6739165605
 20
436462.70232376
 10
97044.934993289
 20
436459.487207957
 10
97051.8370482353
 20
436457.497122503
 10
97057.9380941953
 20
436456.210047983
 10
97059.9221088344
 20
436455.847023875
 10
97063.8791394088
 20
436454.874975229
 10
97065.9961063431
 20
436463.261968629
 10
97069.6399171191
 20
436477.602889669
 10
97069.672567543
 20
436477.804146
 10
97069.682329438
 20
436478.037998958
 10
97069.6642339218
 20
436478.271323945
 10
97069.617188871
 20
436478.507675184
 10
97069.5323236996
 20
436478.759989015
 10
97069.4176236329
 20
436478.989119418
 10
97069.2829851995
 20
436479.191373417
 10
97069.130568669
 20
436479.370013685
 10
97068.9580043837
 20
436479.529304334
 10
97068.7677524635
 20
436479.666967746
 10
97068.5619442138
 20
436479.781376739
 10
97069.173022236
 20
436482.057972315
 10
97069.6430154879
 20
436483.811970626
 10
97070.5100020536
 20
436487.224967898
 10
97070.5210019625
 20
436487.25396783
 10
97072.9840206953
 20
436486.697937711
 10
97075.8010407618
 20
436486.306903789
 10
97075.950810431
 20
436486.244287143
 10
97076.2039704297
 20
436486.148787181
 10
97076.5133992231
 20
436486.050406988
 10
97076.8276054756
 20
436485.968523792
 10
97077.1457164131
 20
436485.903366057
 10
97077.4668263993
 20
436485.855119966
 10
97077.7900433121
 20
436485.823920507
 10
97078.1144354238
 20
436485.8098562
 10
97078.3308875822
 20
436485.811928017
 10
97078.9417415203
 20
436485.801565825
 10
97079.4445797389
 20
436485.797223909
 10
97079.9474159077
 20
436485.801848019
 10
97080.4500890258
 20
436485.815435149
 10
97080.952440092
 20
436485.837983304
 10
97081.4543091053
 20
436485.869483482
 10
97081.9555360652
 20
436485.909926687
 10
97082.4559629699
 20
436485.959298919
 10
97082.9554298193
 20
436486.017586191
 10
97083.453777612
 20
436486.084768485
 10
97083.9508483472
 20
436486.160824814
 10
97084.4464840243
 20
436486.245731183
 10
97084.9405266421
 20
436486.339460589
 10
97085.4328202
 20
436486.441984039
 10
97085.9232066971
 20
436486.553267525
 10
97086.4115311325
 20
436486.673276061
 10
97086.8976385055
 20
436486.801971637
 10
97087.3813738153
 20
436486.939313256
 10
97087.8625840614
 20
436487.085257933
 10
97088.3411152426
 20
436487.239758654
 10
97094.0191408009
 20
436489.130696173
 10
97097.8391577923
 20
436490.438654213
 10
97103.5581837202
 20
436492.307591221
 10
97111.7092215165
 20
436494.817501122
 10
97111.8662220571
 20
436494.899499462
 10
97111.8632189331
 20
436495.457500727
 10
97138.0303793226
 20
436496.490196035
 10
97138.2063804008
 20
436496.497193986
 10
97138.3493812754
 20
436496.503192323
 10
97140.5203945798
 20
436496.589167042
 10
97142.9194092817
 20
436496.684139117
 10
97144.4804188523
 20
436496.745120935
 10
97152.0884654763
 20
436497.046032354
 10
97153.4174736238
 20
436497.098016883
 10
97161.045520367
 20
436497.399928071
 10
97162.5755297456
 20
436497.459910255
 10
97165.0375448346
 20
436497.556881591
 10
97167.1525577928
 20
436497.64085697
 10
97167.3817066689
 20
436497.649080104
 10
97168.1495638935
 20
436497.681845361
 10
97167.4915601014
 20
436497.612852925
 10
97167.344559252
 20
436497.597854618
 10
97167.1495581313
 20
436497.576856859
 10
97165.0255458806
 20
436497.355881279
 10
97162.5575316524
 20
436497.097909649
 10
97161.6835266173
 20
436497.005919705
 10
97161.2203020511
 20
436496.95788049
 10
97153.374478328
 20
436496.206015392
 10
97152.0394705604
 20
436496.079030769
 10
97145.7364339096
 20
436495.475103365
 10
97144.4114263331
 20
436495.325118579
 10
97143.7274224249
 20
436495.247126429
 10
97142.8444173758
 20
436495.147136567
 10
97140.4354036017
 20
436494.874164221
 10
97138.2593911616
 20
436494.627189202
 10
97138.1134745444
 20
436494.611089828
 10
97136.7073822822
 20
436494.452207022
 10
97127.451330332
 20
436493.227312906
 10
97121.0532953099
 20
436492.220385741
 10
97114.5832619744
 20
436490.827458586
 10
97111.0132454272
 20
436489.726498045
 10
97103.1892100988
 20
436487.143584172
 10
97090.755154264
 20
436482.977720963
 10
97080.4771094118
 20
436479.294833557
 10
97076.8216998156
 20
436478.087588054
 10
97076.7956467623
 20
436478.079687128
 10
97076.7672026264
 20
436478.071587443
 10
97076.7386254871
 20
436478.06397376
 10
97076.7099223441
 20
436478.056847082
 10
97076.681102198
 20
436478.050210406
 10
97076.6521730481
 20
436478.044064733
 10
97076.623143895
 20
436478.038412057
 10
97076.5940227384
 20
436478.033254389
 10
97076.5648175788
 20
436478.02859372
 10
97076.5355374158
 20
436478.024430056
 10
97076.5061902497
 20
436478.020765394
 10
97076.4767860804
 20
436478.017601734
 10
97076.4473319079
 20
436478.01493807
 10
97076.4178357325
 20
436478.012776417
 10
97076.388307554
 20
436478.011116756
 10
97076.3587563726
 20
436478.009960104
 10
97076.3291881884
 20
436478.009306449
 10
97076.2996140012
 20
436478.009156795
 10
97076.2700418113
 20
436478.00951015
 10
97076.2404796186
 20
436478.010366492
 10
97076.2109364232
 20
436478.01172584
 10
97076.1814202252
 20
436478.013588193
 10
97076.1519400249
 20
436478.015952543
 10
97076.1225048219
 20
436478.018817897
 10
97076.0931226165
 20
436478.022184251
 10
97076.0638014087
 20
436478.026050602
 10
97076.0345501984
 20
436478.030414954
 10
97076.0053779862
 20
436478.035276308
 10
97075.9762927713
 20
436478.040633662
 10
97075.9473025547
 20
436478.046485014
 10
97075.9184163359
 20
436478.052829366
 10
97075.8896421151
 20
436478.059664721
 10
97075.8609888922
 20
436478.066988068
 10
97075.8324636677
 20
436478.074798426
 10
97075.8040764411
 20
436478.083092774
 10
97075.7758332128
 20
436478.091869124
 10
97075.747744983
 20
436478.101125478
 10
97075.7198167514
 20
436478.110857824
 10
97075.6920595184
 20
436478.121065175
 10
97075.6644792838
 20
436478.13174252
 10
97075.6069447625
 20
436478.159790262
 10
97075.500379105
 20
436478.217162909
 10
97075.2924736882
 20
436478.302772147
 10
97075.0590608749
 20
436478.367409323
 10
97074.8195949809
 20
436478.40351755
 10
97074.5775291546
 20
436478.410591306
 10
97074.3371839124
 20
436478.388593522
 10
97074.2911203034
 20
436478.379798758
 10
97074.2750885835
 20
436478.377772718
 10
97074.1256504483
 20
436478.33614142
 10
97073.9375747223
 20
436478.201600769
 10
97073.808910344
 20
436478.013805854
 10
97073.4912010322
 20
436476.7325323
 10
97073.4828053669
 20
436476.699809012
 10
97073.4808693996
 20
436476.691708021
 10
97073.4791160001
 20
436476.683795193
 10
97073.4611363588
 20
436476.611286022
 10
97073.4842768927
 20
436476.408424581
 10
97073.6060340014
 20
436476.214778596
 10
97073.7995920068
 20
436476.092941979
 10
97074.0264017085
 20
436476.066928273
 10
97077.0870998553
 20
436477.135868636
 10
97079.1111451858
 20
436471.289832075
 10
97077.9901403072
 20
436470.884844357
 10
97077.7870380996
 20
436470.807725993
 10
97077.5199855784
 20
436470.695496075
 10
97077.256980674
 20
436470.573980913
 10
97076.9984354754
 20
436470.443371525
 10
97076.7445738232
 20
436470.303782861
 10
97076.4958016755
 20
436470.155439366
 10
97076.2523066134
 20
436469.998451264
 10
97076.0144805273
 20
436469.833069704
 10
97075.7825731959
 20
436469.659471959
 10
97075.556871566
 20
436469.477867546
 10
97075.3376744991
 20
436469.288503352
 10
97075.125207469
 20
436469.091570455
 10
97074.9234581687
 20
436468.891013555
 10
97074.7010252888
 20
436468.654975468
 10
97074.5801148655
 20
436468.506156019
 10
97074.4513524578
 20
436468.294848323
 10
97074.3522132929
 20
436468.068132717
 10
97074.2845021694
 20
436467.83017157
 10
97074.2494377777
 20
436467.585265531
 10
97074.2476355024
 20
436467.335495826
 97
0
 92
2
 72
0
 73
1
 93
103
 10
97076.04323552
 20
436460.913038663
 10
97075.7059950532
 20
436461.015469665
 10
97075.4883145181
 20
436461.074089508
 10
97075.2209710887
 20
436461.131815068
 10
97074.9510386777
 20
436461.176006072
 10
97074.6792437767
 20
436461.206541938
 10
97074.4062519589
 20
436461.223351075
 10
97074.1327404003
 20
436461.226387994
 10
97073.8594246179
 20
436461.215645739
 10
97073.5869966355
 20
436461.191148277
 10
97073.3162075404
 20
436461.152969734
 10
97073.0476525211
 20
436461.101197909
 10
97072.782021151
 20
436461.035956895
 10
97072.5200165044
 20
436460.957421191
 10
97072.2623067619
 20
436460.865789025
 10
97072.0006639004
 20
436460.757624186
 10
97071.727227758
 20
436460.636896289
 10
97071.4517454307
 20
436460.497950788
 10
97071.1837753614
 20
436460.345055514
 10
97070.9240195212
 20
436460.178615831
 10
97070.6731269725
 20
436459.99904764
 10
97070.4317703043
 20
436459.80682272
 10
97070.2006183191
 20
436459.602482712
 10
97069.9802435048
 20
436459.386524371
 10
97069.7712811122
 20
436459.159580433
 10
97069.5742176952
 20
436458.922178261
 10
97069.3895932283
 20
436458.674962408
 10
97069.2179176128
 20
436458.418617137
 10
97069.0605079063
 20
436458.155271544
 10
97068.9242914513
 20
436457.895682068
 10
97068.8023293193
 20
436457.631014559
 10
97068.6941310529
 20
436457.36042753
 10
97068.5999770983
 20
436457.08460727
 10
97068.520139628
 20
436456.804362699
 10
97068.4548010632
 20
436456.520338798
 10
97068.4041513916
 20
436456.233327763
 10
97068.36832773
 20
436455.9441561
 10
97068.3474109325
 20
436455.653466372
 10
97068.3414654266
 20
436455.362106655
 10
97068.350290922
 20
436455.07771513
 10
97068.3557933023
 20
436454.982402834
 10
97068.3656907702
 20
436454.849671703
 10
97068.4146041762
 20
436454.61820065
 10
97068.4939783505
 20
436454.395288234
 10
97068.6024035723
 20
436454.184938288
 10
97068.7379221568
 20
436453.990955336
 10
97068.8981171466
 20
436453.81678705
 10
97069.0801105846
 20
436453.665565683
 10
97069.2806595707
 20
436453.539975798
 10
97069.5006478005
 20
436453.440247629
 10
97073.693215474
 20
436452.42385449
 10
97074.35594251
 20
436452.276535372
 10
97075.0217264851
 20
436452.143712257
 10
97075.690249397
 20
436452.025448134
 10
97076.361194243
 20
436451.921799019
 10
97077.0863043776
 20
436451.828337289
 10
97077.2427880636
 20
436451.817544451
 10
97077.5041582181
 20
436451.821623235
 10
97077.7642676375
 20
436451.847738577
 10
97078.0212483894
 20
436451.89570668
 10
97078.2733068529
 20
436451.965196358
 10
97078.518579604
 20
436452.055702804
 10
97078.7553196493
 20
436452.166566062
 10
97078.9818831536
 20
436452.297023024
 10
97079.1966226639
 20
436452.446123435
 10
97079.3888742158
 20
436452.605243594
 10
97079.5140287314
 20
436452.747866622
 10
97079.6459595711
 20
436452.926646668
 10
97079.7623351943
 20
436453.115927949
 10
97079.8623282491
 20
436453.314383204
 10
97079.9451969422
 20
436453.520525467
 10
97080.0103805166
 20
436453.732953367
 10
97080.05788641
 20
436453.952380359
 10
97080.0811719245
 20
436454.052181523
 10
97080.1294050053
 20
436454.296212082
 10
97080.172257875
 20
436454.591685026
 10
97080.1999567928
 20
436454.888983696
 10
97080.2124286976
 20
436455.187291565
 10
97080.2096394863
 20
436455.485843609
 10
97080.1916012392
 20
436455.783864922
 10
97080.1583562483
 20
436456.080572689
 10
97080.1100001081
 20
436456.375178659
 10
97080.0466384621
 20
436456.666986015
 10
97079.9684633928
 20
436456.955121008
 10
97079.8756735372
 20
436457.238874351
 10
97079.7684974104
 20
436457.517540958
 10
97079.6472106253
 20
436457.790390337
 10
97079.5121607358
 20
436458.056647107
 10
97079.3804766709
 20
436458.286359472
 10
97079.248810193
 20
436458.491463762
 10
97079.0655742159
 20
436458.747490969
 10
97078.8696365164
 20
436458.993967716
 10
97078.6615294787
 20
436459.230220978
 10
97078.4417368143
 20
436459.455703414
 10
97078.2108410909
 20
436459.669807441
 10
97077.9694739871
 20
436459.87195787
 10
97077.7182021062
 20
436460.061680079
 10
97077.4576501015
 20
436460.238499888
 10
97077.1884998334
 20
436460.401947917
 10
97076.9114632174
 20
436460.55159476
 10
97076.6272589703
 20
436460.687058118
 10
97076.3365481501
 20
436460.80802072
 10
97076.04323552
 20
436460.913038663
 97
0
 75
0
 76
1
 98
0
  0
HATCH
  5
20017
  8
0
100
AcDbEntity
100
AcDbHatch
 10
0
 20
0
 30
0
210
0
220
0
230
1
  2
SOLID
 70
1
 71
0
 91
1
 92
2
 72
0
 73
1
 93
1096
 10
98332.5767987638
 20
441084.193025696
 10
98332.5672852955
 20
441084.354505737
 10
98332.5544078262
 20
441084.515751792
 10
98332.538170356
 20
441084.676694857
 10
98332.5185798856
 20
441084.837263938
 10
98332.4956464157
 20
441084.997390025
 10
98332.469378947
 20
441085.15700313
 10
98332.3662106031
 20
441085.736869159
 10
98332.2847227311
 20
441086.156246107
 10
98332.1953558655
 20
441086.574014081
 10
98332.0981400076
 20
441086.990026074
 10
98331.9931111586
 20
441087.404134086
 10
98331.8803043203
 20
441087.816192126
 10
98331.7597614939
 20
441088.226054183
 10
98331.5547542373
 20
441089.006059898
 10
98345.6877371117
 20
441092.534020776
 10
98346.6897747608
 20
441088.485991324
 10
98349.4888799486
 20
441077.180908992
 10
98349.6998810489
 20
441077.083907477
 10
98350.258880337
 20
441077.227905946
 10
98351.4468787964
 20
441077.536902716
 10
98358.5118679223
 20
441079.561884705
 10
98361.4578632563
 20
441080.419877291
 10
98367.8988532907
 20
441082.267860933
 10
98368.0038531291
 20
441082.297860665
 10
98368.4118523707
 20
441082.428859724
 10
98371.6008464563
 20
441083.450852305
 10
98373.7878421416
 20
441084.179847402
 10
98373.7688427382
 20
441084.111847057
 10
98370.711889031
 20
441078.65182618
 10
98376.7769192326
 20
441076.027783494
 10
98375.9149210518
 20
441075.726785348
 10
98372.8839267154
 20
441074.748792388
 10
98372.4029276119
 20
441074.593793502
 10
98370.5299311049
 20
441073.989797855
 10
98369.7699348146
 20
441073.49179805
 10
98365.8919428111
 20
441072.155806542
 10
98365.7962659685
 20
441072.12723678
 10
98365.7010901412
 20
441072.097041001
 10
98365.6064433289
 20
441072.065227217
 10
98365.5123525318
 20
441072.031804419
 10
98365.4188447501
 20
441071.996782606
 10
98365.3259469833
 20
441071.960172781
 10
98365.2336882314
 20
441071.921983944
 10
98365.1420924945
 20
441071.882229093
 10
98365.0511877723
 20
441071.84091823
 10
98364.9610010648
 20
441071.798064356
 10
98364.871557372
 20
441071.753678466
 10
98364.7828836938
 20
441071.707775563
 10
98364.69500503
 20
441071.660367649
 10
98364.6079463808
 20
441071.611468728
 10
98364.5217347456
 20
441071.561092785
 10
98364.4363941247
 20
441071.509254832
 10
98364.3519495178
 20
441071.455969868
 10
98364.2684259248
 20
441071.401252889
 10
98364.1858463457
 20
441071.345120899
 10
98364.1042357803
 20
441071.287588891
 10
98364.0236172285
 20
441071.228674876
 10
98363.9440156901
 20
441071.168394846
 10
98363.8654521648
 20
441071.106766802
 10
98363.7879506531
 20
441071.043808747
 10
98360.5979718534
 20
441068.328805687
 10
98360.590195893
 20
441068.32351169
 10
98360.5825139339
 20
441068.318081689
 10
98360.5749309762
 20
441068.31251468
 10
98360.5674470199
 20
441068.306814686
 10
98360.560066065
 20
441068.300982677
 10
98360.5527891111
 20
441068.295020674
 10
98360.5456191587
 20
441068.288930667
 10
98360.5385592074
 20
441068.282713656
 10
98360.5316102575
 20
441068.276372648
 10
98360.5247753087
 20
441068.269909642
 10
98360.5180553612
 20
441068.263325625
 10
98360.5114544148
 20
441068.256623615
 10
98360.5049724698
 20
441068.249805598
 10
98359.8089822243
 20
441067.090801405
 10
98359.5719859381
 20
441066.652799709
 10
98359.4753322911
 20
441066.492004127
 10
98359.381469662
 20
441066.329563526
 10
98359.2904260503
 20
441066.1655259
 10
98359.2022294557
 20
441065.999941254
 10
98359.1169048777
 20
441065.832857584
 10
98359.0344793157
 20
441065.664324892
 10
98358.9549757697
 20
441065.494394178
 10
98358.8784182388
 20
441065.323116446
 10
98358.8048307229
 20
441065.15054069
 10
98358.7342342215
 20
441064.976720917
 10
98358.666650734
 20
441064.80170812
 10
98358.6020992601
 20
441064.625553303
 10
98358.5405987992
 20
441064.448310471
 10
98358.482169351
 20
441064.270031613
 10
98358.426826915
 20
441064.090770737
 10
98358.3745884907
 20
441063.910579841
 10
98358.3254690776
 20
441063.729514926
 10
98358.2794846754
 20
441063.547627995
 10
98358.2366472835
 20
441063.364974045
 10
98358.1969719011
 20
441063.181608076
 10
98358.1604675283
 20
441062.99758309
 10
98358.1271471646
 20
441062.812956087
 10
98358.0728194837
 20
441060.672832994
 10
98358.0921732057
 20
441058.717830736
 10
98358.1550739667
 20
441056.763744294
 10
98358.4990881547
 20
441055.237733289
 10
98360.8031728233
 20
441046.163666688
 10
98362.3472290623
 20
441040.140622377
 10
98363.6032764692
 20
441035.059585184
 10
98365.9913636439
 20
441025.729516463
 10
98372.2295939423
 20
441001.09633501
 10
98376.5127527705
 20
440984.125209787
 10
98381.0409208452
 20
440966.183077157
 10
98385.3130801251
 20
440949.193951409
 10
98387.6341663496
 20
440940.004883257
 10
98388.1831866645
 20
440937.840867188
 10
98388.3671959063
 20
440936.84786012
 10
98388.478205107
 20
440935.849853351
 10
98388.6462628728
 20
440929.514812831
 10
98388.7963146132
 20
440923.840776536
 10
98388.7992993826
 20
440923.536398604
 10
98388.807994158
 20
440923.232130661
 10
98388.8223969383
 20
440922.928078681
 10
98388.8425017225
 20
440922.624350688
 10
98388.8683015099
 20
440922.321053667
 10
98388.899787299
 20
440922.018293622
 10
98388.9369490893
 20
440921.716177556
 10
98388.9797718795
 20
440921.414812468
 10
98389.0282426688
 20
440921.114303364
 10
98389.0823424563
 20
440920.814756231
 10
98389.4033536853
 20
440919.621747279
 10
98392.5364693885
 20
440907.310655625
 10
98398.2366448862
 20
440888.782512919
 10
98398.6976592847
 20
440887.262501227
 10
98399.5636880895
 20
440884.214478048
 10
98399.6586905913
 20
440883.952475958
 10
98399.7133074468
 20
440883.755996472
 10
98399.7712222979
 20
440883.560463968
 10
98399.8324171439
 20
440883.365933465
 10
98399.8968749841
 20
440883.172458946
 10
98399.9645778186
 20
440882.980096427
 10
98400.0355066464
 20
440882.788899893
 10
98400.1096414672
 20
440882.598923353
 10
98400.1869612803
 20
440882.410220807
 10
98400.2674440853
 20
440882.222845255
 10
98400.3510668817
 20
440882.036849701
 10
98400.4378066689
 20
440881.852286135
 10
98400.5276384466
 20
440881.669208571
 10
98400.6205362139
 20
440881.487667995
 10
98400.7164739708
 20
440881.307715422
 10
98400.8154257166
 20
440881.129401843
 10
98400.9173624508
 20
440880.952777255
 10
98401.0222551727
 20
440880.777892671
 10
98401.130074882
 20
440880.604797081
 10
98401.2407905784
 20
440880.433539495
 10
98401.3543712611
 20
440880.264167901
 10
98401.4707839297
 20
440880.096731308
 10
98401.589997584
 20
440879.931275714
 10
98401.7119762232
 20
440879.767849123
 10
98401.8366868468
 20
440879.606497529
 10
98401.9640934548
 20
440879.447265935
 10
98402.0941600462
 20
440879.290199345
 10
98402.2268506209
 20
440879.135342753
 10
98402.3621271784
 20
440878.982740168
 10
98402.4999507181
 20
440878.832434585
 10
98402.6402822397
 20
440878.684468998
 10
98402.7830837429
 20
440878.538883422
 10
98402.9283132269
 20
440878.39572085
 10
98403.0759306916
 20
440878.255021279
 10
98403.2258931365
 20
440878.116824716
 10
98403.3781585613
 20
440877.981170157
 10
98403.5326839651
 20
440877.848095603
 10
98403.6894263483
 20
440877.717638057
 10
98403.8483407099
 20
440877.589836514
 10
98404.0093820496
 20
440877.46472598
 10
98404.1725043673
 20
440877.342340455
 10
98404.3376626622
 20
440877.222716934
 10
98404.5048099344
 20
440877.105888428
 10
98404.6738981831
 20
440876.991887923
 10
98404.8448794085
 20
440876.880746433
 10
98405.0177066097
 20
440876.772497951
 10
98405.1923297865
 20
440876.667170478
 10
98405.3686989385
 20
440876.564796012
 10
98405.546766066
 20
440876.465401564
 10
98406.65177229
 20
440875.93339309
 10
98406.7297727698
 20
440875.891392468
 10
98406.8937737487
 20
440875.80639117
 10
98407.008774393
 20
440875.75139029
 10
98407.1027749112
 20
440875.707389574
 10
98407.2327755927
 20
440875.650388615
 10
98407.4217765299
 20
440875.573387255
 10
98407.6057773885
 20
440875.504385969
 10
98407.7817781546
 20
440875.444384776
 10
98407.9097786788
 20
440875.404383933
 10
98408.0307791578
 20
440875.368383143
 10
98408.1957797648
 20
440875.324382097
 10
98408.363780339
 20
440875.284381064
 10
98408.5187808332
 20
440875.25138014
 10
98408.6117811134
 20
440875.233379598
 10
98408.7427814867
 20
440875.210378846
 10
98408.8497817753
 20
440875.193378241
 10
98408.9727820837
 20
440875.176377564
 10
98409.0737823193
 20
440875.16437702
 10
98409.1707825317
 20
440875.154376508
 10
98409.1776795325
 20
440875.155219484
 10
98409.1845615324
 20
440875.156176455
 10
98409.1914275314
 20
440875.15724643
 10
98409.1982745293
 20
440875.158430413
 10
98409.2051005257
 20
440875.159726384
 10
98409.2119045214
 20
440875.161135361
 10
98409.218684516
 20
440875.16265734
 10
98409.2254385097
 20
440875.164290319
 10
98409.2321645022
 20
440875.166034302
 10
98409.2388604936
 20
440875.16788928
 10
98409.245525484
 20
440875.169855255
 10
98409.2521564734
 20
440875.171931243
 10
98409.2587524616
 20
440875.174115224
 10
98409.2653114491
 20
440875.176409212
 10
98409.2718324354
 20
440875.178810198
 10
98409.2783114206
 20
440875.181319183
 10
98409.2847494047
 20
440875.183934163
 10
98409.2911423881
 20
440875.186656156
 10
98409.2974903702
 20
440875.189483141
 10
98409.3037903514
 20
440875.19241413
 10
98409.3100403316
 20
440875.195449122
 10
98409.3162403108
 20
440875.198587116
 10
98409.3223872889
 20
440875.201826105
 10
98409.3284792661
 20
440875.205167097
 10
98409.3345162425
 20
440875.208608093
 10
98409.3404952175
 20
440875.212148085
 10
98409.3464151917
 20
440875.215787081
 10
98409.3522731651
 20
440875.219523078
 10
98409.3580701374
 20
440875.223355077
 10
98409.3638021088
 20
440875.227282073
 10
98409.3694680792
 20
440875.231303075
 10
98409.3750680488
 20
440875.235418076
 10
98409.3805980173
 20
440875.239624073
 10
98409.3860579851
 20
440875.243922077
 10
98409.3914469518
 20
440875.248308078
 10
98409.3967619177
 20
440875.252784082
 10
98409.4020028827
 20
440875.257346085
 10
98409.4071678469
 20
440875.261995097
 10
98409.4122548102
 20
440875.266728101
 10
98409.4172627726
 20
440875.271544109
 10
98409.422190734
 20
440875.27644311
 10
98409.4270376948
 20
440875.281422122
 10
98409.4318006547
 20
440875.286481134
 10
98409.4364806137
 20
440875.291617144
 10
98409.4410735719
 20
440875.296830158
 10
98409.4455815294
 20
440875.302119168
 10
98409.4500004861
 20
440875.307481183
 10
98409.454330442
 20
440875.312915194
 10
98409.458569397
 20
440875.318421208
 10
98409.4627173516
 20
440875.323995226
 10
98409.466773305
 20
440875.329637245
 10
98409.4707342582
 20
440875.335346264
 10
98409.4746012104
 20
440875.341119279
 10
98409.4783721619
 20
440875.346955298
 10
98409.4820461129
 20
440875.352853322
 10
98409.4856220629
 20
440875.358811337
 10
98409.4890990127
 20
440875.364826364
 10
98409.4924759615
 20
440875.370899386
 10
98409.4957529099
 20
440875.377026409
 10
98409.4989278574
 20
440875.383207431
 10
98409.5019998045
 20
440875.389439456
 10
98409.5049687511
 20
440875.395722484
 10
98409.507833697
 20
440875.402052516
 10
98409.5105936423
 20
440875.408429538
 10
98409.513247587
 20
440875.414850565
 10
98409.5157955314
 20
440875.421315595
 10
98409.5182354752
 20
440875.427821626
 10
98409.5205684186
 20
440875.434366658
 10
98409.5227923613
 20
440875.440949688
 10
98409.5249073039
 20
440875.447567717
 10
98409.5269132456
 20
440875.454220746
 10
98409.5288091871
 20
440875.460905783
 10
98409.5305931282
 20
440875.46762082
 10
98409.5322670687
 20
440875.474364853
 10
98409.5338290092
 20
440875.481135892
 10
98409.535278949
 20
440875.487931924
 10
98409.5366158885
 20
440875.49474996
 10
98409.5378408278
 20
440875.501589998
 10
98409.5389527667
 20
440875.508449036
 10
98409.5399507052
 20
440875.515325074
 10
98409.5408346436
 20
440875.522217115
 10
98409.5416045818
 20
440875.529123157
 10
98409.5422605195
 20
440875.536040194
 10
98409.5428024573
 20
440875.542967236
 10
98409.5432303946
 20
440875.549903279
 10
98409.5435423317
 20
440875.556844322
 10
98409.5437402686
 20
440875.563790364
 10
98409.5438232055
 20
440875.570738407
 10
98409.5437921422
 20
440875.57768645
 10
98409.5436460788
 20
440875.584633497
 10
98409.5433850151
 20
440875.591577541
 10
98409.5430089514
 20
440875.598515587
 10
98409.5425188877
 20
440875.60544663
 10
98409.541913824
 20
440875.61236868
 10
98409.5411947602
 20
440875.619279729
 10
98409.5403616961
 20
440875.626178771
 10
98409.5394146324
 20
440875.633061821
 10
98409.5383535687
 20
440875.639929873
 10
98409.5371805046
 20
440875.646777918
 10
98409.5358934409
 20
440875.653605967
 10
98409.5344943771
 20
440875.660413014
 10
98409.5329823133
 20
440875.667195067
 10
98409.5313592497
 20
440875.673951116
 10
98409.5296241865
 20
440875.680679167
 10
98409.5277781233
 20
440875.687378221
 10
98409.6577780851
 20
440875.709377752
 10
98411.4508340028
 20
440869.817332257
 10
98412.7708756868
 20
440865.424298396
 10
98413.3598933226
 20
440863.57028395
 10
98413.9489084821
 20
440861.988271218
 10
98414.7259266605
 20
440860.101255686
 10
98415.4629412091
 20
440858.607242814
 10
98415.3649431997
 20
440858.375241802
 10
98415.3610550828
 20
440858.387526898
 10
98415.3569649663
 20
440858.399744996
 10
98415.3526748503
 20
440858.411895099
 10
98415.3481837344
 20
440858.423973194
 10
98415.3434956191
 20
440858.435975291
 10
98415.3386095042
 20
440858.447897388
 10
98415.3335283898
 20
440858.459738486
 10
98415.3282522759
 20
440858.47149458
 10
98415.3227831626
 20
440858.483161682
 10
98415.3171220499
 20
440858.494736777
 10
98415.311271938
 20
440858.506216881
 10
98415.3052328266
 20
440858.51759998
 10
98415.2990077159
 20
440858.528881083
 10
98415.2925966059
 20
440858.540059187
 10
98415.2860024966
 20
440858.551129281
 10
98415.2792273883
 20
440858.562089384
 10
98415.2722722804
 20
440858.572936484
 10
98415.2651391737
 20
440858.583667588
 10
98415.2578310677
 20
440858.594278686
 10
98415.2503479627
 20
440858.604768784
 10
98415.2426938586
 20
440858.615134891
 10
98415.2348697552
 20
440858.625371993
 10
98415.2268776532
 20
440858.635480092
 10
98415.2187205519
 20
440858.645454196
 10
98415.2104004516
 20
440858.655293293
 10
98415.2019183524
 20
440858.664993395
 10
98415.1932782544
 20
440858.674552493
 10
98415.1844821576
 20
440858.683967595
 10
98415.1755320617
 20
440858.693237698
 10
98415.166429967
 20
440858.702357797
 10
98415.1571788736
 20
440858.711327896
 10
98415.1477807814
 20
440858.720142998
 10
98415.1382396903
 20
440858.728803095
 10
98415.1285566007
 20
440858.737304196
 10
98415.1187355122
 20
440858.745644296
 10
98415.1087774251
 20
440858.753822389
 10
98415.0986863392
 20
440858.761834491
 10
98415.0884642548
 20
440858.769679586
 10
98415.0781151718
 20
440858.777355682
 10
98415.0676400901
 20
440858.78485978
 10
98415.0570430098
 20
440858.792189879
 10
98415.0463269311
 20
440858.799344967
 10
98415.0354938537
 20
440858.80632206
 10
98415.024547778
 20
440858.813120159
 10
98415.0134917038
 20
440858.819736252
 10
98415.0023266309
 20
440858.826170342
 10
98414.9910585598
 20
440858.832418434
 10
98414.97968849
 20
440858.838480524
 10
98414.9682194221
 20
440858.844354616
 10
98414.9566563555
 20
440858.850038704
 10
98414.9450002909
 20
440858.855531791
 10
98414.9332552275
 20
440858.860831885
 10
98414.9214251661
 20
440858.865937969
 10
98414.9095121063
 20
440858.870848057
 10
98414.8975200482
 20
440858.87556114
 10
98414.8854509918
 20
440858.880076229
 10
98414.873309937
 20
440858.884391313
 10
98414.861099884
 20
440858.888506395
 10
98414.8488228329
 20
440858.892419477
 10
98414.8364837834
 20
440858.896130559
 10
98414.8240847358
 20
440858.899636634
 10
98414.81162969
 20
440858.902938717
 10
98414.7991226459
 20
440858.906034789
 10
98414.7865656037
 20
440858.908923872
 10
98414.7739625631
 20
440858.911605942
 10
98414.7613165248
 20
440858.91408102
 10
98414.748632488
 20
440858.916346095
 10
98414.7359124532
 20
440858.918402169
 10
98414.7231604203
 20
440858.92024924
 10
98414.7103793892
 20
440858.921885307
 10
98414.6975733599
 20
440858.923310372
 10
98414.6847453326
 20
440858.924524443
 10
98414.6718993073
 20
440858.925526509
 10
98414.6590382838
 20
440858.926316575
 10
98414.6461662623
 20
440858.926895639
 10
98414.6332862427
 20
440858.927261705
 10
98414.620402225
 20
440858.927416761
 10
98414.6075172091
 20
440858.927357821
 10
98414.5946341952
 20
440858.92708788
 10
98414.5817581834
 20
440858.926604935
 10
98414.5688921736
 20
440858.925909994
 10
98414.5560391655
 20
440858.925004048
 10
98414.5432021594
 20
440858.923885098
 10
98414.5303861554
 20
440858.922555153
 10
98414.5175931531
 20
440858.921015197
 10
98414.504827153
 20
440858.919263248
 10
98414.4920921546
 20
440858.917302292
 10
98414.4793911586
 20
440858.915131342
 10
98414.4667281641
 20
440858.912751387
 10
98414.4541061717
 20
440858.910162426
 10
98414.4415271813
 20
440858.907367468
 10
98414.4289971927
 20
440858.904364505
 10
98414.4165182062
 20
440858.901155543
 10
98414.4040932217
 20
440858.897741581
 10
98414.3917272389
 20
440858.894122617
 10
98414.3794212583
 20
440858.89030165
 10
98414.3671802795
 20
440858.886277684
 10
98414.3550083026
 20
440858.882052713
 10
98414.3429063277
 20
440858.877627741
 10
98414.3308793544
 20
440858.873003762
 10
98414.3189303833
 20
440858.86818279
 10
98414.307062414
 20
440858.863164816
 10
98414.2952784465
 20
440858.857952835
 10
98414.283582481
 20
440858.852546854
 10
98414.2719765173
 20
440858.846948874
 10
98414.2604645554
 20
440858.841160887
 10
98414.2490505956
 20
440858.835183909
 10
98414.2377356373
 20
440858.829018919
 10
98414.2265236811
 20
440858.822668936
 10
98414.2154177266
 20
440858.816134944
 10
98414.2044217739
 20
440858.809418953
 10
98414.193537823
 20
440858.802521961
 10
98414.1827688737
 20
440858.795447969
 10
98414.1721169264
 20
440858.788195969
 10
98414.1615869808
 20
440858.780770971
 10
98414.1511810368
 20
440858.773171971
 10
98414.1409010949
 20
440858.765403973
 10
98414.130751154
 20
440858.757466967
 10
98414.1207322152
 20
440858.749362963
 10
98414.1108492781
 20
440858.741095957
 10
98414.1011033426
 20
440858.732666946
 10
98414.0914984087
 20
440858.72407894
 10
98414.0820354763
 20
440858.71533393
 10
98414.0727185457
 20
440858.706432914
 10
98414.0635486167
 20
440858.697380904
 10
98414.0545296892
 20
440858.688177883
 10
98414.045663763
 20
440858.678828866
 10
98414.0369528385
 20
440858.669333847
 10
98414.0283989156
 20
440858.659696824
 10
98414.020005994
 20
440858.649920803
 10
98414.0117750738
 20
440858.64000778
 10
98414.0037081552
 20
440858.629959752
 10
98413.995808238
 20
440858.619780725
 10
98413.9880773222
 20
440858.609472695
 10
98413.9805174078
 20
440858.599038664
 10
98413.9731294946
 20
440858.588481634
 10
98413.9659175827
 20
440858.577803599
 10
98413.9588816722
 20
440858.567008568
 10
98413.9520257629
 20
440858.55609953
 10
98413.9453498549
 20
440858.545078484
 10
98413.9388559481
 20
440858.53394945
 10
98413.9325470426
 20
440858.522714409
 10
98413.9264231381
 20
440858.511377365
 10
98413.9204882349
 20
440858.499940323
 10
98413.9147413328
 20
440858.488408277
 10
98413.9091864316
 20
440858.476782231
 10
98413.9038235315
 20
440858.465066178
 10
98413.8986536326
 20
440858.45326313
 10
98413.8936797346
 20
440858.441377075
 10
98413.8889018375
 20
440858.429410023
 10
98413.8843219416
 20
440858.417366967
 10
98413.8167886397
 20
440858.221648047
 10
98413.7568822468
 20
440858.036963158
 10
98413.7002408675
 20
440857.851250255
 10
98413.6468825009
 20
440857.664567319
 10
98413.5968221471
 20
440857.47697337
 10
98413.5500778051
 20
440857.288526399
 10
98413.5066624746
 20
440857.099284402
 10
98413.4665891549
 20
440856.909305389
 10
98413.4298718457
 20
440856.718650358
 10
98413.3965205464
 20
440856.527377305
 10
98413.3665462566
 20
440856.335546235
 10
98413.3399579753
 20
440856.143217143
 10
98413.3167647026
 20
440855.950448038
 10
98413.2969734377
 20
440855.757300908
 10
98413.2805901797
 20
440855.563833763
 10
98413.2676189285
 20
440855.370108598
 10
98413.2580656836
 20
440855.176185416
 10
98413.251931444
 20
440854.982123221
 10
98413.2492202098
 20
440854.787983008
 10
98413.2499309798
 20
440854.593824778
 10
98413.2540647539
 20
440854.399709532
 10
98413.2616195314
 20
440854.205697275
 10
98413.2725933117
 20
440854.011847996
 10
98413.2869820943
 20
440853.818222703
 10
98413.4159908972
 20
440852.87021612
 10
98413.4251747601
 20
440852.776794487
 10
98413.4360206237
 20
440852.683550849
 10
98413.4485244874
 20
440852.5905152
 10
98413.4626823509
 20
440852.497716545
 10
98413.4784902142
 20
440852.405184893
 10
98413.4959420768
 20
440852.312949226
 10
98413.5150339386
 20
440852.221038556
 10
98413.5357597994
 20
440852.129482882
 10
98413.5581106586
 20
440852.038310199
 10
98413.5820825162
 20
440851.947550517
 10
98413.6076653718
 20
440851.857231829
 10
98413.6348522252
 20
440851.76738213
 10
98413.6636350761
 20
440851.678031435
 10
98413.6940029241
 20
440851.58920673
 10
98414.1890179624
 20
440850.008194434
 10
98414.7200340961
 20
440848.312181238
 10
98415.534059462
 20
440845.643160572
 10
98417.3931166839
 20
440839.627113847
 10
98417.6991266955
 20
440838.572105743
 10
98418.306144963
 20
440836.654090769
 10
98419.2471741681
 20
440833.584066943
 10
98420.1242019376
 20
440830.663044346
 10
98421.7902533548
 20
440825.262002338
 10
98406.1862785725
 20
440820.269044306
 10
98403.3021955686
 20
440828.974112753
 10
98402.7131771741
 20
440830.911127727
 10
98401.3841395597
 20
440834.855158813
 10
98399.7310910658
 20
440839.950198643
 10
98399.0890715246
 20
440842.0072146
 10
98398.8290650768
 20
440842.679220046
 10
98398.7657934804
 20
440842.845773394
 10
98398.6995528907
 20
440843.011168745
 10
98398.6303653082
 20
440843.175352101
 10
98398.5582527336
 20
440843.338273465
 10
98398.483238167
 20
440843.499877829
 10
98398.4053446094
 20
440843.660115203
 10
98398.3245980612
 20
440843.818933583
 10
98398.2410245226
 20
440843.976282961
 10
98398.1546499942
 20
440844.132112347
 10
98398.0655024766
 20
440844.286371733
 10
98397.9736099703
 20
440844.439013125
 10
98397.8790024757
 20
440844.589985518
 10
98397.7817109935
 20
440844.739242913
 10
98397.6817645237
 20
440844.88673531
 10
98397.5791970672
 20
440845.032417704
 10
98397.4740406243
 20
440845.176242102
 10
98397.4597144326
 20
440845.19528929
 10
98397.4450752429
 20
440845.214096477
 10
98397.430127055
 20
440845.232658666
 10
98397.4148728688
 20
440845.25097085
 10
98397.3993176847
 20
440845.269028035
 10
98397.3834665024
 20
440845.286825221
 10
98397.3673213223
 20
440845.30435741
 10
98397.3508891441
 20
440845.321619598
 10
98397.3341729684
 20
440845.338607781
 10
98397.3171777945
 20
440845.355316961
 10
98397.299908623
 20
440845.371742142
 10
98397.2823694538
 20
440845.387879332
 10
98397.264566287
 20
440845.403723513
 10
98397.2465021224
 20
440845.419270693
 10
98397.2281839603
 20
440845.434516874
 10
98397.2096148005
 20
440845.449458057
 10
98397.1908016435
 20
440845.464089238
 10
98397.1717484889
 20
440845.478406419
 10
98397.1524603367
 20
440845.492406594
 10
98397.1329441874
 20
440845.506085774
 10
98397.1132030407
 20
440845.519439949
 10
98397.0932438966
 20
440845.532465123
 10
98397.0730727554
 20
440845.545157298
 10
98397.0526926169
 20
440845.557514473
 10
98397.0321114813
 20
440845.569532646
 10
98397.0113343486
 20
440845.581208819
 10
98396.9903662187
 20
440845.592537982
 10
98396.9692140917
 20
440845.60351915
 10
98396.9478829677
 20
440845.61414932
 10
98396.9263778467
 20
440845.624423483
 10
98396.9047067289
 20
440845.634340649
 10
98396.8828736141
 20
440845.643897811
 10
98396.8608855021
 20
440845.653091971
 10
98396.8387473936
 20
440845.661921125
 10
98396.8164672883
 20
440845.670382291
 10
98396.794049186
 20
440845.678473441
 10
98396.771501087
 20
440845.6861916
 10
98396.7488279912
 20
440845.693535748
 10
98396.7260358986
 20
440845.7005039
 10
98396.7031318093
 20
440845.707093048
 10
98396.6801217234
 20
440845.713303194
 10
98396.657012641
 20
440845.719130342
 10
98396.6338095617
 20
440845.724574483
 10
98396.610519486
 20
440845.729633623
 10
98396.5871494137
 20
440845.734305763
 10
98396.5637043447
 20
440845.738590902
 10
98396.5401922791
 20
440845.742487032
 10
98396.5166182171
 20
440845.745994164
 10
98396.4929901587
 20
440845.749109296
 10
98396.4693131035
 20
440845.751833424
 10
98396.445595052
 20
440845.754164547
 10
98396.421841004
 20
440845.756103672
 10
98396.3980579596
 20
440845.757647796
 10
98396.3742529186
 20
440845.75879891
 10
98396.3504318814
 20
440845.759555031
 10
98396.3266018476
 20
440845.759917145
 10
98396.3027688173
 20
440845.75988425
 10
98396.2789397908
 20
440845.759457361
 10
98396.2551207677
 20
440845.758635469
 10
98396.2313187486
 20
440845.757419572
 10
98396.2075407326
 20
440845.755809669
 10
98396.1837917205
 20
440845.753805773
 10
98396.1600797119
 20
440845.751408863
 10
98396.1364107071
 20
440845.748619957
 10
98396.1127907059
 20
440845.745440052
 10
98396.0892267082
 20
440845.741868139
 10
98396.0657257142
 20
440845.737908221
 10
98396.0422927239
 20
440845.733558306
 10
98396.0189357371
 20
440845.728821385
 10
98395.9956597539
 20
440845.723698462
 10
98395.9724717744
 20
440845.718190531
 10
98395.9493787984
 20
440845.712299604
 10
98395.9263858261
 20
440845.706027676
 10
98395.9035008574
 20
440845.69937574
 10
98395.8807278922
 20
440845.692344798
 10
98395.8580749305
 20
440845.684938859
 10
98395.8355479724
 20
440845.677157914
 10
98395.8131530181
 20
440845.669004972
 10
98395.7908960671
 20
440845.660483021
 10
98395.7687831197
 20
440845.651593068
 10
98395.7468201758
 20
440845.642339116
 10
98395.7250142353
 20
440845.632722155
 10
98395.7033702985
 20
440845.622745192
 10
98395.6818943651
 20
440845.612411232
 10
98395.660592435
 20
440845.601723262
 10
98395.6394705085
 20
440845.590684292
 10
98395.6185335853
 20
440845.579297318
 10
98395.5977886656
 20
440845.567564339
 10
98395.5772407491
 20
440845.555490361
 10
98395.5568958359
 20
440845.543077377
 10
98395.5367599262
 20
440845.530328389
 10
98395.5168370195
 20
440845.517248403
 10
98395.4971331163
 20
440845.50384041
 10
98395.4776542162
 20
440845.490108412
 10
98395.4584053196
 20
440845.476055421
 10
98395.4393924259
 20
440845.461685417
 10
98395.4206195354
 20
440845.447002409
 10
98395.4020926481
 20
440845.432010403
 10
98395.3838157638
 20
440845.416714392
 10
98395.3657958828
 20
440845.401117381
 10
98395.3480360045
 20
440845.385224363
 10
98395.3305411293
 20
440845.369039343
 10
98395.3133172572
 20
440845.352567319
 10
98395.2963683879
 20
440845.335811292
 10
98395.2796995216
 20
440845.318777263
 10
98395.2633156579
 20
440845.301470229
 10
98395.2472197973
 20
440845.283893195
 10
98395.2314169394
 20
440845.266053161
 10
98395.2159120841
 20
440845.247953118
 10
98395.2007092316
 20
440845.229599073
 10
98395.1858123818
 20
440845.210996022
 10
98395.1712245345
 20
440845.192148973
 10
98395.1569516899
 20
440845.173061921
 10
98395.1429968477
 20
440845.153741868
 10
98395.1293640081
 20
440845.134193805
 10
98395.1160561708
 20
440845.114421745
 10
98395.103078336
 20
440845.094432681
 10
98395.0904325036
 20
440845.074231609
 10
98395.0781236736
 20
440845.053823541
 10
98395.0661538456
 20
440845.033214466
 10
98395.05452702
 20
440845.01241039
 10
98395.0432461965
 20
440844.991416313
 10
98395.0323143753
 20
440844.97023823
 10
98395.0217355557
 20
440844.948882141
 10
98395.0115107387
 20
440844.927353059
 10
98395.0016449232
 20
440844.905658966
 10
98394.99213911
 20
440844.883803876
 10
98394.9829962983
 20
440844.861793778
 10
98394.9742194886
 20
440844.83963568
 10
98394.9658106808
 20
440844.81733558
 10
98394.9577718746
 20
440844.794899478
 10
98394.9501060699
 20
440844.772332365
 10
98394.9428152669
 20
440844.749642262
 10
98394.9359004655
 20
440844.72683415
 10
98394.9293646656
 20
440844.703915038
 10
98394.9232098673
 20
440844.680890922
 10
98394.9174360702
 20
440844.657767802
 10
98394.9120472744
 20
440844.634552683
 10
98394.8750078178
 20
440844.459629755
 10
98394.8456871643
 20
440844.307461933
 10
98394.8190895188
 20
440844.154794097
 10
98394.7952228809
 20
440844.00167525
 10
98394.7740952501
 20
440843.848154384
 10
98394.7557136261
 20
440843.694280499
 10
98394.7400830082
 20
440843.540103602
 10
98394.7272083961
 20
440843.38567169
 10
98394.7170957898
 20
440843.23103377
 10
98394.709746188
 20
440843.076240826
 10
98394.7051625909
 20
440842.921340875
 10
98394.7033469979
 20
440842.766382909
 10
98394.7042994086
 20
440842.611417931
 10
98394.7080198223
 20
440842.456494939
 10
98394.7145072388
 20
440842.301662935
 10
98394.7237586576
 20
440842.146970919
 10
98394.7357730782
 20
440841.992468893
 10
98394.7505445001
 20
440841.838206857
 10
98394.7680689229
 20
440841.684232805
 10
98394.9090775895
 20
440840.751226275
 10
98388.6948039499
 20
440869.981438909
 10
98388.7020281034
 20
440869.965554777
 10
98388.7095132562
 20
440869.949792643
 10
98388.7172584079
 20
440869.934156506
 10
98388.7252595588
 20
440869.918650376
 10
98388.733516709
 20
440869.903277237
 10
98388.7420258581
 20
440869.888044102
 10
98388.7507850062
 20
440869.872951967
 10
98388.7597921534
 20
440869.85800783
 10
98388.7690452994
 20
440869.843213699
 10
98388.7785414443
 20
440869.82857456
 10
98388.7882775881
 20
440869.814093423
 10
98388.7982517309
 20
440869.799775293
 10
98388.8084598724
 20
440869.785624153
 10
98388.8189010124
 20
440869.771644014
 10
98388.8295721513
 20
440869.757836878
 10
98388.8404682888
 20
440869.744208742
 10
98388.851589425
 20
440869.730761607
 10
98388.8629295598
 20
440869.717500468
 10
98388.8744876932
 20
440869.704428337
 10
98388.886260825
 20
440869.691548195
 10
98388.8982439551
 20
440869.678864064
 10
98388.910435084
 20
440869.666379931
 10
98388.9228302112
 20
440869.654098794
 10
98388.9354273367
 20
440869.642023659
 10
98388.9482214607
 20
440869.630158525
 10
98388.9612095828
 20
440869.618505391
 10
98388.9743887034
 20
440869.607069261
 10
98388.9877548221
 20
440869.59585213
 10
98389.0013039391
 20
440869.584855995
 10
98389.0150330543
 20
440869.574085866
 10
98389.0289371674
 20
440869.563543733
 10
98389.0430142787
 20
440869.553232604
 10
98389.0572593884
 20
440869.543155477
 10
98389.0716694959
 20
440869.533315346
 10
98389.0862396014
 20
440869.523713219
 10
98389.100965705
 20
440869.514353094
 10
98389.1158448065
 20
440869.505237968
 10
98389.1308729061
 20
440869.496369841
 10
98389.1460440034
 20
440869.487749713
 10
98389.1613560988
 20
440869.479382592
 10
98389.1768041918
 20
440869.471268466
 10
98389.1923842827
 20
440869.463411344
 10
98389.2080923715
 20
440869.455811226
 10
98389.2239234582
 20
440869.44847211
 10
98389.2398725425
 20
440869.441395989
 10
98389.2559376248
 20
440869.434582873
 10
98389.2721117044
 20
440869.428036757
 10
98389.2883927819
 20
440869.421758642
 10
98389.3047748571
 20
440869.415749524
 10
98389.3212539299
 20
440869.410011413
 10
98389.3378250005
 20
440869.404547301
 10
98389.3544840684
 20
440869.399356191
 10
98389.3712271342
 20
440869.394442081
 10
98389.3880491974
 20
440869.389803976
 10
98389.4049442583
 20
440869.38544387
 10
98389.4219103167
 20
440869.381364764
 10
98389.4389403727
 20
440869.377564667
 10
98389.4560314261
 20
440869.37404756
 10
98389.4731784771
 20
440869.370812463
 10
98389.4903765255
 20
440869.367860362
 10
98389.5076205713
 20
440869.365193268
 10
98389.5249066147
 20
440869.362811173
 10
98389.5422286555
 20
440869.360714078
 10
98389.5595836937
 20
440869.358903983
 10
98389.5769667294
 20
440869.357379898
 10
98389.5943717625
 20
440869.356143804
 10
98389.6117947931
 20
440869.355194722
 10
98389.629231821
 20
440869.354533634
 10
98389.6466768463
 20
440869.354159553
 10
98389.6641258689
 20
440869.35407447
 10
98389.6815738891
 20
440869.354277393
 10
98389.6990159066
 20
440869.354768316
 10
98389.7164479212
 20
440869.355546235
 10
98389.7338649334
 20
440869.356612163
 10
98389.7512609428
 20
440869.357966088
 10
98389.7686329498
 20
440869.359607023
 10
98389.7859759541
 20
440869.361533949
 10
98389.8032839555
 20
440869.363746885
 10
98389.8205529547
 20
440869.366245822
 10
98389.8377789511
 20
440869.369028758
 10
98389.8549559447
 20
440869.372095699
 10
98389.8720809357
 20
440869.375446635
 10
98389.8891479243
 20
440869.379078584
 10
98389.90615191
 20
440869.38299253
 10
98389.923089893
 20
440869.387186476
 10
98389.9399558736
 20
440869.391659424
 10
98389.9567458516
 20
440869.396410373
 10
98389.9734548269
 20
440869.401437333
 10
98389.9900787995
 20
440869.40674029
 10
98390.0066127697
 20
440869.412316249
 10
98390.0230527371
 20
440869.418164209
 10
98390.0393937021
 20
440869.424283169
 10
98390.0556316644
 20
440869.430671136
 10
98390.071761624
 20
440869.437326101
 10
98390.0877805811
 20
440869.444247065
 10
98390.103681536
 20
440869.451431043
 10
98390.119462488
 20
440869.458876018
 10
98390.1351184375
 20
440869.466580985
 10
98390.1506453847
 20
440869.474542971
 10
98390.1660383295
 20
440869.482760948
 10
98390.1812932716
 20
440869.491230933
 10
98390.1964062113
 20
440869.499951916
 10
98390.2113741487
 20
440869.508921906
 10
98390.2261910835
 20
440869.518136894
 10
98390.2408540158
 20
440869.527595883
 10
98390.2553589458
 20
440869.537294876
 10
98390.2697018736
 20
440869.547232874
 10
98390.283878799
 20
440869.557404872
 10
98390.2978857219
 20
440869.567810871
 10
98390.3117196426
 20
440869.578445873
 10
98390.325375561
 20
440869.589308877
 10
98390.3388494772
 20
440869.600394886
 10
98390.3521393911
 20
440869.611701895
 10
98390.3652413027
 20
440869.623226908
 10
98390.3781502121
 20
440869.634965922
 10
98390.3908641196
 20
440869.646917938
 10
98390.4033790248
 20
440869.659076956
 10
98390.4156909279
 20
440869.671440978
 10
98390.4277978289
 20
440869.684007
 10
98390.4396957278
 20
440869.69677102
 10
98390.4513806247
 20
440869.709730051
 10
98390.4628505193
 20
440869.72288008
 10
98390.4741014123
 20
440869.736217111
 10
98390.4851303032
 20
440869.749738143
 10
98390.4959351924
 20
440869.763440179
 10
98390.5065120795
 20
440869.777318215
 10
98390.5168589647
 20
440869.79136826
 10
98390.5269718481
 20
440869.805588303
 10
98390.5368487297
 20
440869.819973344
 10
98390.5464866097
 20
440869.834518393
 10
98390.5558834877
 20
440869.849221443
 10
98390.5650363641
 20
440869.86407749
 10
98390.573943239
 20
440869.879082541
 10
98390.5826001121
 20
440869.894232597
 10
98390.5910059837
 20
440869.909523657
 10
98390.5991588537
 20
440869.924950716
 10
98390.6070557222
 20
440869.940510777
 10
98390.6146945893
 20
440869.956198842
 10
98390.6220734546
 20
440869.972010904
 10
98390.6291903188
 20
440869.987942974
 10
98390.6360431814
 20
440870.00399004
 10
98390.6426300429
 20
440870.020148114
 10
98390.648949903
 20
440870.036413183
 10
98390.6549997617
 20
440870.052779259
 10
98390.6607786194
 20
440870.069244334
 10
98390.6662854756
 20
440870.08580141
 10
98390.671517331
 20
440870.102447492
 10
98390.6764741851
 20
440870.119178577
 10
98390.6811550381
 20
440870.135987661
 10
98390.6855568903
 20
440870.152872746
 10
98390.6896787412
 20
440870.169827832
 10
98390.6935215914
 20
440870.186848923
 10
98390.6970824406
 20
440870.203931015
 10
98390.7003602889
 20
440870.221069105
 10
98390.7033551363
 20
440870.238260196
 10
98390.706065983
 20
440870.255497295
 10
98390.708491829
 20
440870.272777394
 10
98390.7106316743
 20
440870.290094492
 10
98390.712486519
 20
440870.307444591
 10
98390.7140533629
 20
440870.324823695
 10
98390.7153342063
 20
440870.342225797
 10
98390.7163270491
 20
440870.359646901
 10
98390.7170318917
 20
440870.377082007
 10
98390.7174487336
 20
440870.394526115
 10
98390.7175785751
 20
440870.411975223
 10
98390.7174194164
 20
440870.429423338
 10
98390.7169722572
 20
440870.446867445
 10
98390.7162380977
 20
440870.46430056
 10
98390.7152159382
 20
440870.481719674
 10
98390.7139057783
 20
440870.49911979
 10
98390.7123096183
 20
440870.516495905
 10
98390.7104254583
 20
440870.533844022
 10
98390.7082562983
 20
440870.551157143
 10
98390.705801138
 20
440870.56843326
 10
98389.6427607841
 20
440874.861465154
 10
98386.3376383165
 20
440887.885562183
 10
98386.1056289983
 20
440888.879569488
 10
98383.9165480378
 20
440897.494633609
 10
98383.652538367
 20
440898.523641274
 10
98383.2355224783
 20
440900.216653807
 10
98381.3184515062
 20
440907.773709973
 10
98380.9214401716
 20
440908.968719279
 10
98379.2033930418
 20
440913.929758222
 10
98375.48629011
 20
440924.775843098
 10
98374.9852763956
 20
440926.220854421
 10
98371.4201788152
 20
440936.506934967
 10
98370.3651495796
 20
440939.591959033
 10
98368.4850954622
 20
440945.314003308
 10
98367.5280663243
 20
440948.403026932
 10
98366.9900493532
 20
440950.205040615
 10
98366.4590310233
 20
440952.158055206
 10
98364.4139573638
 20
440960.02011351
 10
98361.3778442356
 20
440972.115202604
 10
98358.1067219554
 20
440985.199298795
 10
98355.345618011
 20
440996.331380438
 10
98352.0994958549
 20
441009.422476323
 10
98349.0663826332
 20
441021.561565219
 10
98342.2661389004
 20
441047.688757352
 10
98340.5740766466
 20
441054.373806215
 10
98340.3280668104
 20
441055.432813857
 10
98340.1160597861
 20
441056.184819447
 10
98338.0639865505
 20
441064.045877124
 10
98331.7579941358
 20
441062.458894763
 10
98325.8670010906
 20
441060.98891134
 10
98328.1308229933
 20
441080.991025129
 10
98328.1403443758
 20
441080.949724833
 10
98328.150583758
 20
441080.908596534
 10
98328.1615361391
 20
441080.867653237
 10
98328.1731985192
 20
441080.826905934
 10
98328.185567898
 20
441080.786367629
 10
98328.1986412755
 20
441080.746050319
 10
98328.2124136518
 20
441080.705967012
 10
98328.2268800266
 20
441080.666128706
 10
98328.2420383998
 20
441080.626548392
 10
98328.2578827712
 20
441080.587238081
 10
98328.274407141
 20
441080.548208773
 10
98328.2916095087
 20
441080.509473458
 10
98328.3094818743
 20
441080.471042143
 10
98328.3280202379
 20
441080.432927825
 10
98328.347218599
 20
441080.395142507
 10
98328.367070958
 20
441080.357695195
 10
98328.3875723145
 20
441080.320599875
 10
98328.4087156684
 20
441080.283866558
 10
98328.4304940193
 20
441080.247507236
 10
98328.4529023677
 20
441080.211530915
 10
98328.475932713
 20
441080.175950596
 10
98328.4995780554
 20
441080.140776276
 10
98328.5238313947
 20
441080.106017958
 10
98328.8978371864
 20
441079.508012641
 10
98329.340843593
 20
441078.850006648
 10
98329.3492327548
 20
441078.833045512
 10
98329.3579079158
 20
441078.816228368
 10
98329.3668660757
 20
441078.799560227
 10
98329.3761052346
 20
441078.783046085
 10
98329.3856223923
 20
441078.766690944
 10
98329.3954145488
 20
441078.7504998
 10
98329.4054797041
 20
441078.734475657
 10
98329.4158148581
 20
441078.718625517
 10
98329.4264160107
 20
441078.702951374
 10
98329.4372821621
 20
441078.687459229
 10
98329.4484083118
 20
441078.672153086
 10
98329.4597914604
 20
441078.65703694
 10
98329.4714296073
 20
441078.642116799
 10
98329.4833177527
 20
441078.627394658
 10
98329.4954538967
 20
441078.612876515
 10
98329.5078340387
 20
441078.598565373
 10
98329.5204541795
 20
441078.584466234
 10
98329.5333113184
 20
441078.570582092
 10
98329.5464014554
 20
441078.55691795
 10
98329.5597215909
 20
441078.543476808
 10
98329.5732667244
 20
441078.530263666
 10
98329.5870328561
 20
441078.51728153
 10
98329.6010179861
 20
441078.504534387
 10
98329.6152161138
 20
441078.49202525
 10
98329.6296242399
 20
441078.479758113
 10
98329.6442373636
 20
441078.467736974
 10
98329.6590524855
 20
441078.455964835
 10
98329.6740646055
 20
441078.444444702
 10
98329.6892697233
 20
441078.433181566
 10
98329.7046628389
 20
441078.422175431
 10
98329.7202399521
 20
441078.411433293
 10
98329.7359970634
 20
441078.400955164
 10
98329.7519281725
 20
441078.390745029
 10
98329.7680312791
 20
441078.380806903
 10
98329.7842993834
 20
441078.371141767
 10
98329.8007284856
 20
441078.361753639
 10
98329.8173145854
 20
441078.352645514
 10
98329.8340526828
 20
441078.34381839
 10
98329.8509377777
 20
441078.335276261
 10
98329.8679648701
 20
441078.327021135
 10
98329.8851289602
 20
441078.319055009
 10
98329.9024250477
 20
441078.311380887
 10
98329.9440242574
 20
441078.293036597
 10
98329.9683803782
 20
441078.282481424
 10
98329.9929114956
 20
441078.272338256
 10
98330.0176086096
 20
441078.262609086
 10
98330.0424667199
 20
441078.253296923
 10
98330.0674788266
 20
441078.244404757
 10
98330.0926359296
 20
441078.235935596
 10
98330.117933029
 20
441078.22789044
 10
98330.1433611245
 20
441078.220272283
 10
98330.1689142163
 20
441078.213084125
 10
98330.1945853046
 20
441078.206325974
 10
98330.2203653887
 20
441078.20000182
 10
98330.2462494693
 20
441078.194112673
 10
98330.2722285459
 20
441078.188660526
 10
98330.2982956186
 20
441078.18364638
 10
98330.3244426876
 20
441078.179071241
 10
98330.3506647525
 20
441078.174937103
 10
98330.3769508138
 20
441078.171244968
 10
98330.4032968708
 20
441078.167996831
 10
98330.4296929241
 20
441078.165191701
 10
98330.4561329732
 20
441078.162832569
 10
98330.4826090185
 20
441078.160918444
 10
98330.5091130598
 20
441078.15944932
 10
98330.535638097
 20
441078.158428194
 10
98330.5621771301
 20
441078.157853076
 10
98330.5887221595
 20
441078.157724965
 10
98330.6152651845
 20
441078.158043851
 10
98330.6417992056
 20
441078.158809737
 10
98330.6683162227
 20
441078.160021632
 10
98330.6948092356
 20
441078.161680529
 10
98330.7212702446
 20
441078.163784423
 10
98330.7476922495
 20
441078.16633433
 10
98330.7740682503
 20
441078.169329228
 10
98330.800389247
 20
441078.172767137
 10
98330.8266492397
 20
441078.176647046
 10
98330.8528402285
 20
441078.180969964
 10
98330.878954213
 20
441078.18573188
 10
98330.9049841936
 20
441078.190933802
 10
98330.93092317
 20
441078.196572721
 10
98330.9567631423
 20
441078.202647645
 10
98330.9824981108
 20
441078.209157576
 10
98331.0081190753
 20
441078.216098507
 10
98331.0336200355
 20
441078.223471444
 10
98331.0589929919
 20
441078.23127138
 10
98331.0842309443
 20
441078.239498322
 10
98331.1093268928
 20
441078.24814827
 10
98331.1342728372
 20
441078.257220214
 10
98331.1590637777
 20
441078.266710169
 10
98331.1836907142
 20
441078.276616122
 10
98331.2081476468
 20
441078.28693608
 10
98331.2324265757
 20
441078.297666037
 10
98331.2565225005
 20
441078.308803003
 10
98331.2804264216
 20
441078.320344969
 10
98331.3041333388
 20
441078.332286944
 10
98331.3276362522
 20
441078.344626917
 10
98331.3509271618
 20
441078.357359895
 10
98331.3740010676
 20
441078.370483879
 10
98331.39684997
 20
441078.383994865
 10
98331.4323267647
 20
441078.410858873
 10
98331.4673425537
 20
441078.43832089
 10
98331.501887337
 20
441078.466374916
 10
98331.5359501145
 20
441078.495010945
 10
98331.5695208862
 20
441078.524220981
 10
98331.6025916522
 20
441078.553998021
 10
98331.6351514128
 20
441078.584332071
 10
98331.6671911677
 20
441078.615214121
 10
98331.6987019173
 20
441078.646637181
 10
98331.7296746615
 20
441078.678590244
 10
98331.7600994004
 20
441078.711065314
 10
98331.789968134
 20
441078.744052388
 10
98331.8192728626
 20
441078.777541464
 10
98331.8480045861
 20
441078.811523551
 10
98331.8761543045
 20
441078.845989642
 10
98331.9037150182
 20
441078.880928741
 10
98331.9306777271
 20
441078.916329847
 10
98331.9570354309
 20
441078.952184949
 10
98331.9827801306
 20
441078.988482064
 10
98332.0079048253
 20
441079.02521218
 10
98332.0324025159
 20
441079.062363305
 10
98332.0562652019
 20
441079.099924437
 10
98332.0794858836
 20
441079.13788657
 10
98332.1020585612
 20
441079.176236708
 10
98332.1239772346
 20
441079.214964851
 10
98332.1452339041
 20
441079.254061002
 10
98332.1658245695
 20
441079.293511156
 10
98332.1857412312
 20
441079.333306315
 10
98332.2049788892
 20
441079.373433481
 10
98332.2235335436
 20
441079.413881651
 10
98332.2413971945
 20
441079.454638829
 10
98332.2585658418
 20
441079.495694005
 10
98332.2750354859
 20
441079.537035192
 10
98332.2908001269
 20
441079.578650384
 10
98332.3058557646
 20
441079.620526575
 10
98332.3201973994
 20
441079.662652774
 10
98332.3338220312
 20
441079.705016976
 10
98332.3467246601
 20
441079.747606183
 10
98332.3589022866
 20
441079.790408392
 10
98332.3703509104
 20
441079.833410614
 10
98332.3810675316
 20
441079.876601834
 10
98332.3910491507
 20
441079.919969055
 10
98332.4002927673
 20
441079.963499289
 10
98332.408795382
 20
441080.007180524
 10
98332.4165549945
 20
441080.050998758
 10
98332.4235686051
 20
441080.094944
 10
98332.4298352139
 20
441080.139001248
 10
98332.5308311036
 20
441080.606003698
 10
98332.6628245609
 20
441081.346007704
 10
98332.6741450681
 20
441081.401894001
 10
98332.6844895727
 20
441081.457968303
 10
98332.6938570747
 20
441081.514214617
 10
98332.7022425741
 20
441081.570615925
 10
98332.7096440714
 20
441081.627154245
 10
98332.7160605666
 20
441081.683813563
 10
98332.7214880599
 20
441081.740574899
 10
98332.7259265512
 20
441081.797423225
 10
98332.729374041
 20
441081.854339563
 10
98332.7318295293
 20
441081.911307907
 10
98332.733293016
 20
441081.968310253
 10
98332.7337625015
 20
441082.025329599
 10
98332.7332389863
 20
441082.08234796
 10
98332.7317224699
 20
441082.139349318
 10
98332.7292129528
 20
441082.196315682
 10
98332.7257124353
 20
441082.25322905
 10
98332.7212199174
 20
441082.310072419
 10
98332.7157383991
 20
441082.366829799
 10
98332.7092698807
 20
441082.42348317
 10
98332.7018143625
 20
441082.480014555
 10
98332.6378067106
 20
441083.320020032
 10
98332.5767987638
 20
441084.193025696
 97
0
 75
0
 76
1
 98
0
  0
HATCH
  5
20018
  8
0
100
AcDbEntity
100
AcDbHatch
 10
0
 20
0
 30
0
210
0
220
0
230
1
  2
SOLID
 70
1
 71
0
 91
1
 92
2
 72
0
 73
1
 93
347
 10
96880.6872300798
 20
436590.492408388
 10
96895.2893503207
 20
436585.386227437
 10
96909.8724708076
 20
436580.22304649
 10
96917.6555351092
 20
436577.471949889
 10
96924.4995909615
 20
436575.180865187
 10
96927.5926158908
 20
436574.202827018
 10
96935.2766767562
 20
436571.968732597
 10
96939.3697089513
 20
436570.820682378
 10
96944.3747474615
 20
436569.573621289
 10
96951.284799829
 20
436567.998537245
 10
96954.4598231738
 20
436567.405498903
 10
96957.6518457953
 20
436566.963460671
 10
96963.0438833125
 20
436566.343396358
 10
96966.5709078514
 20
436565.938354289
 10
96969.8009299009
 20
436565.644315922
 10
96973.0239514048
 20
436565.441277831
 10
96975.8102545685
 20
436565.343126061
 10
96978.5979844258
 20
436565.302212402
 10
96981.3859649691
 20
436565.318554858
 10
96984.1730221901
 20
436565.392147445
 10
96986.2690346574
 20
436565.535123254
 10
96988.5090479415
 20
436565.69509742
 10
96990.4967841695
 20
436565.938455713
 10
96992.4785551135
 20
436566.226380169
 10
96994.4533607674
 20
436566.558724805
 10
96996.4202071262
 20
436566.93532362
 10
96998.3781011845
 20
436567.355985644
 10
96999.5911073585
 20
436567.626972048
 10
97000.0201094857
 20
436567.732967263
 10
97006.6331422972
 20
436569.362893484
 10
97009.5254192958
 20
436570.138936355
 10
97012.3911696117
 20
436571.007829737
 10
97014.5031788736
 20
436571.747806653
 10
97014.6931795828
 20
436571.836804626
 10
97016.5669195647
 20
436572.535625241
 10
97018.4243082076
 20
436573.276810133
 10
97020.2643875081
 20
436574.059978322
 10
97022.0862094623
 20
436574.884724818
 10
97026.6292266308
 20
436576.971676253
 10
97031.1652436598
 20
436579.074627809
 10
97036.6062638423
 20
436581.639569814
 10
97039.2422737477
 20
436582.858541674
 10
97042.0672843573
 20
436584.165511519
 10
97045.7190813805
 20
436585.798667423
 10
97049.4087961238
 20
436587.344253704
 10
97055.0058495534
 20
436589.495334041
 10
97056.8909938225
 20
436590.151365465
 10
97058.7889953833
 20
436590.769217656
 10
97060.6990792332
 20
436591.348640628
 10
97062.6204683678
 20
436591.889396381
 10
97064.5523807839
 20
436592.39126693
 10
97066.498702493
 20
436592.856616231
 10
97068.4536624652
 20
436593.284223354
 10
97070.4165306973
 20
436593.6739293
 10
97072.3865711851
 20
436594.025588076
 10
97074.363046925
 20
436594.339067702
 10
97076.345218913
 20
436594.614251169
 10
97078.3323441453
 20
436594.851035507
 10
97080.3236786171
 20
436595.049331705
 10
97082.3184773251
 20
436595.209065779
 10
97084.6980984593
 20
436595.369324365
 10
97087.0806579013
 20
436595.477479805
 10
97089.4650146443
 20
436595.53347911
 10
97091.8500256813
 20
436595.537295282
 10
97094.2345510052
 20
436595.488927359
 10
97098.2705773602
 20
436595.331879922
 10
97101.943601374
 20
436595.183836738
 10
97104.2586165134
 20
436595.08980952
 10
97114.9486870586
 20
436594.541683576
 10
97125.2747552092
 20
436594.011561911
 10
97125.9029220485
 20
436594.034346628
 10
97126.5304918129
 20
436594.069947383
 10
97127.1572045004
 20
436594.118351177
 10
97127.7827991098
 20
436594.179536016
 10
97128.4070136392
 20
436594.253477895
 10
97129.0295890875
 20
436594.340144824
 10
97129.650265453
 20
436594.439500798
 10
97130.608240982
 20
436594.642402656
 10
97131.2644657073
 20
436594.850759481
 10
97131.8239538395
 20
436595.050913753
 10
97132.37588202
 20
436595.271152896
 10
97132.919452088
 20
436595.511159211
 10
97133.4540070965
 20
436595.770637544
 10
97133.9788383602
 20
436596.049246759
 10
97134.4932810307
 20
436596.346633482
 10
97134.8708014685
 20
436596.583455647
 10
97138.2928800017
 20
436586.369392994
 10
97137.4738745269
 20
436586.423402677
 10
97136.455867723
 20
436586.490414711
 10
97135.4578610732
 20
436586.552426499
 10
97134.4468545028
 20
436586.585438372
 10
97133.6178492997
 20
436586.579448041
 10
97132.7218437568
 20
436586.55845845
 10
97131.8598385343
 20
436586.518468424
 10
97131.1298342629
 20
436586.457476814
 10
97130.2928293321
 20
436586.393486445
 10
97128.4428189992
 20
436586.150507494
 10
97126.1588067989
 20
436585.750533276
 10
97123.9607957091
 20
436585.248557826
 10
97120.6057795361
 20
436584.346594993
 10
97117.870767122
 20
436583.472624993
 10
97114.0137497486
 20
436582.215667249
 10
97111.9557406846
 20
436581.507689713
 10
97109.7867312854
 20
436580.733713335
 10
97107.860723426
 20
436579.958734116
 10
97106.2457172809
 20
436579.228751371
 10
97104.3647115506
 20
436578.121770894
 10
97102.9477076389
 20
436577.214785447
 10
97101.4657043054
 20
436576.129800366
 10
97099.9607016818
 20
436574.89081522
 10
97098.6446991117
 20
436573.856828315
 10
97097.6936974862
 20
436573.067837692
 10
97096.744696123
 20
436572.233846944
 10
97096.0786443827
 20
436571.609507354
 10
97095.4246907889
 20
436570.97250759
 10
97094.7830763419
 20
436570.323080663
 10
97094.154036042
 20
436569.661466559
 10
97093.5378028891
 20
436568.987908278
 10
97092.9346028832
 20
436568.30265382
 10
97092.3446580244
 20
436567.605955183
 10
97091.7681853129
 20
436566.898069367
 10
97091.2053967483
 20
436566.179255365
 10
97090.6564993304
 20
436565.449779179
 10
97090.1216960593
 20
436564.709907809
 10
97086.6777032314
 20
436559.497936627
 10
97080.4882154489
 20
436550.035173924
 10
97080.9247292933
 20
436548.250979271
 10
97081.9476030521
 20
436547.930712282
 10
97082.404458912
 20
436547.59367769
 10
97081.6127360592
 20
436547.816970267
 10
97075.8876920815
 20
436549.210040286
 10
97077.4796331459
 20
436561.640048843
 10
97078.1576379125
 20
436561.554040729
 10
97078.9626434048
 20
436561.482031165
 10
97079.7556480269
 20
436561.55302205
 10
97080.508651591
 20
436561.769013722
 10
97081.2116538888
 20
436562.156006353
 10
97081.8336551353
 20
436562.640000141
 10
97082.3686552761
 20
436563.223995164
 10
97082.5636548157
 20
436563.528993554
 10
97082.6996535097
 20
436563.918992816
 10
97082.935655308
 20
436563.863989938
 10
97087.1346513616
 20
436569.354952897
 10
97089.2476508319
 20
436571.854933698
 10
97090.4646511191
 20
436573.187922404
 10
97091.7596514203
 20
436574.606910389
 10
97093.4286534892
 20
436576.132894248
 10
97094.0946543196
 20
436576.740887806
 10
97096.2296582418
 20
436578.462866652
 10
97098.2466625498
 20
436579.980846437
 10
97100.17466765
 20
436581.254826727
 10
97102.1466734101
 20
436582.459806354
 10
97104.1956804724
 20
436583.517784757
 10
97105.7356861977
 20
436584.237768366
 10
97111.97471305
 20
436586.495700508
 10
97111.9927109771
 20
436586.888701167
 10
97101.2016399874
 20
436587.396828252
 10
97100.3396341867
 20
436587.460838459
 10
97095.6396025475
 20
436587.811894092
 10
97095.667599784
 20
436588.34089493
 10
97092.6615801746
 20
436588.452930264
 10
97089.6355609169
 20
436588.478965634
 10
97086.6225422526
 20
436588.413000661
 10
97083.6315243158
 20
436588.241035198
 10
97080.6325067834
 20
436587.987069653
 10
97079.0024974592
 20
436587.81208829
 10
97077.6244895766
 20
436587.664104052
 10
97075.4614775682
 20
436587.366128646
 10
97074.6444730345
 20
436587.253137935
 10
97071.6994571899
 20
436586.756171229
 10
97069.4864455854
 20
436586.328196129
 10
97066.3644299358
 20
436585.594230976
 10
97064.2024195281
 20
436585.008254936
 10
97063.4414158632
 20
436584.802263372
 10
97059.6123982721
 20
436583.612305485
 10
97054.8533774013
 20
436581.953357441
 10
97050.9173613877
 20
436580.35539993
 10
97047.0473462966
 20
436578.665441461
 10
97038.2693134097
 20
436574.58653515
 10
97032.2792909509
 20
436571.803599115
 10
97028.5192768861
 20
436570.04963926
 10
97027.0192710984
 20
436569.381655346
 10
97023.8532590465
 20
436567.941689238
 10
97022.5132528518
 20
436567.52970401
 10
97017.5552335213
 20
436565.355757267
 10
97016.9197701272
 20
436565.061954066
 10
97016.2789706337
 20
436564.779979946
 10
97015.6330530416
 20
436564.509933917
 10
97014.9822413521
 20
436564.251906969
 10
97014.3267575659
 20
436564.005988099
 10
97013.666827684
 20
436563.77226231
 10
97013.0026787078
 20
436563.550809599
 10
97012.3345386378
 20
436563.341705959
 10
97011.6626374749
 20
436563.145022388
 10
97010.987205221
 20
436562.960828888
 10
97008.4401934541
 20
436562.174856971
 10
97009.4722085007
 20
436560.633841611
 10
97011.5522354866
 20
436558.132811933
 10
97011.7267767622
 20
436557.920964436
 10
97011.9942792467
 20
436557.607933589
 10
97012.3657146549
 20
436557.203664422
 10
97012.7514815535
 20
436556.812978161
 10
97013.1510348531
 20
436556.436430103
 10
97013.5713728438
 20
436556.067914888
 10
97014.8512735135
 20
436555.030766706
 10
97015.067275876
 20
436554.850763792
 10
97015.2695481053
 20
436554.684185749
 10
97015.7232785938
 20
436554.366713176
 10
97016.1044467718
 20
436554.128103872
 10
97016.4973415145
 20
436553.909312914
 10
97016.9009272068
 20
436553.710917912
 10
97017.3141484315
 20
436553.533437069
 10
97017.7359108771
 20
436553.377345266
 10
97018.1651108072
 20
436553.243047274
 10
97018.6006352907
 20
436553.130893132
 10
97019.0412985282
 20
436553.041187732
 10
97019.4859592628
 20
436552.974159717
 10
97019.7843162705
 20
436552.944704542
 10
97020.9733248192
 20
436552.75969024
 10
97020.7433337193
 20
436550.887688904
 10
97020.3253442555
 20
436548.504688668
 10
97019.8793409838
 20
436548.585694056
 10
97017.9363267254
 20
436548.939717547
 10
97016.2593138582
 20
436549.346738034
 10
97015.948137487
 20
436549.419315828
 10
97015.6383040936
 20
436549.497431621
 10
97015.3299126789
 20
436549.581058406
 10
97015.0230612438
 20
436549.670171189
 10
97014.7178477887
 20
436549.764740958
 10
97014.4143693148
 20
436549.864736725
 10
97014.1127208224
 20
436549.970128479
 10
97013.8130003127
 20
436550.08088222
 10
97013.5153017865
 20
436550.196961957
 10
97013.2197212445
 20
436550.318331672
 10
97012.9263506872
 20
436550.444952372
 10
97011.8856031567
 20
436550.977203686
 10
97011.1441291668
 20
436551.392623253
 10
97010.4111611488
 20
436551.822872741
 10
97009.6869951058
 20
436552.267780164
 10
97008.9719260406
 20
436552.72716451
 10
97008.2662419561
 20
436553.20083978
 10
97006.7602266268
 20
436554.249859636
 10
97005.2212112556
 20
436555.268879812
 10
97004.6668798129
 20
436555.618997046
 10
97004.1062083868
 20
436555.958870325
 10
97003.5393869791
 20
436556.288383659
 10
97002.966607592
 20
436556.607428041
 10
97002.3880622267
 20
436556.915893459
 10
97001.8039468852
 20
436557.213676926
 10
97001.2144595697
 20
436557.500677436
 10
97000.6197972814
 20
436557.776797975
 10
96999.8506881866
 20
436558.116885584
 10
96999.2975250988
 20
436558.345728872
 10
96998.6100940889
 20
436558.555802186
 10
96998.010717826
 20
436558.71620506
 10
96997.4060560148
 20
436558.855488986
 10
96996.7969384652
 20
436558.973463726
 10
96996.1840224224
 20
436559.070003652
 10
96995.5680573927
 20
436559.144986838
 10
96994.9498564797
 20
436559.19831193
 10
96994.4851214842
 20
436559.222013776
 10
96983.1960554837
 20
436558.239143653
 10
96980.5240396254
 20
436558.049174486
 10
96977.5970208403
 20
436558.097208808
 10
96974.2489986744
 20
436558.275248319
 10
96969.8829692574
 20
436558.600300048
 10
96968.8279621465
 20
436558.679312547
 10
96962.8249216127
 20
436559.142383702
 10
96962.5774893543
 20
436559.121898649
 10
96962.308467605
 20
436558.801742929
 10
96962.3831532309
 20
436558.239660131
 10
96922.6715935486
 20
436572.607881163
 10
96919.1486304495
 20
436561.839899857
 10
96865.8001903223
 20
436580.582561772
 10
96803.5486771867
 20
436602.552332861
 10
96784.4435232834
 20
436608.972571911
 10
96778.5744766681
 20
436610.830645094
 10
96776.421459782
 20
436611.473671864
 10
96774.3604436171
 20
436612.089697491
 10
96770.2264112086
 20
436613.323748879
 10
96766.8213845185
 20
436614.340791212
 10
96764.0603631661
 20
436615.11282543
 10
96763.2823571528
 20
436615.329835062
 10
96754.2002867647
 20
436617.902947664
 10
96746.5992292602
 20
436619.802041379
 10
96721.1190399255
 20
436625.564354254
 10
96715.8430008878
 20
436626.732418974
 10
96700.168894976
 20
436628.336607528
 10
96688.42381725
 20
436629.237748215
 10
96673.3097186373
 20
436630.137928723
 10
96646.3995464025
 20
436631.121248874
 10
96634.7224725486
 20
436631.383387462
 10
96589.9251085075
 20
436632.382944184
 10
96590.1855487945
 20
436633.046068195
 10
96589.9991837638
 20
436633.519920409
 10
96589.6581807803
 20
436633.684924758
 10
96589.6750950697
 20
436650.003956127
 10
96589.6760855947
 20
436651.806959601
 10
96606.0621892084
 20
436651.38576516
 10
96624.5233062476
 20
436650.855545979
 10
96635.4573761992
 20
436650.423415925
 10
96642.6264227927
 20
436650.003330383
 10
96646.7054493057
 20
436649.764281709
 10
96652.9164901953
 20
436649.303207402
 10
96661.1145448626
 20
436648.565109068
 10
96671.3056133383
 20
436647.552986637
 10
96681.4696830261
 20
436646.285864012
 10
96690.6177463689
 20
436645.032753408
 10
96697.7917971568
 20
436643.84466626
 10
96708.2778724353
 20
436641.918538496
 10
96718.302945854
 20
436639.813415803
 10
96728.2390203244
 20
436637.417293573
 10
96738.1370954473
 20
436634.864171457
 10
96747.0861640363
 20
436632.439060798
 10
96757.8892478956
 20
436629.324926819
 10
96763.8402946174
 20
436627.516852817
 10
96764.7753019599
 20
436627.232841191
 10
96765.7863098986
 20
436626.92582862
 10
96768.9363349114
 20
436625.918789343
 10
96769.6633406829
 20
436625.686780283
 10
96777.4374024392
 20
436623.201683339
 10
96796.8685591294
 20
436616.589440169
 10
96816.2067174489
 20
436609.798199719
 10
96854.6580345003
 20
436596.190723747
 10
96855.3100396677
 20
436595.998715748
 10
96862.9261000362
 20
436593.755622317
 10
96863.3871036864
 20
436593.620616661
 10
96863.9421079797
 20
436593.476609891
 10
96864.4591119016
 20
436593.356603614
 10
96864.8811150593
 20
436593.266598508
 10
96865.4519381287
 20
436593.154716208
 10
96866.2891252158
 20
436593.035581607
 10
96866.8751292617
 20
436592.972574643
 10
96869.8731489175
 20
436592.840539397
 10
96871.8931621343
 20
436592.756515656
 10
96872.3831653492
 20
436592.734509893
 10
96872.8551685107
 20
436592.701504321
 10
96873.2901715099
 20
436592.655499151
 10
96873.6421739355
 20
436592.618494963
 10
96874.0931771729
 20
436592.547489562
 10
96874.5401804449
 20
436592.465484172
 10
96875.0121839737
 20
436592.365478464
 10
96875.4591874105
 20
436592.253473018
 10
96875.882190712
 20
436592.138467846
 10
96876.227193466
 20
436592.033463602
 10
96877.640204993
 20
436591.558446138
 10
96880.6872300798
 20
436590.492408388
 97
0
 75
0
 76
1
 98
0
  0
ENDSEC
  0
SECTION
  2
OBJECTS
  0
DICTIONARY
  5
C
330
0
100
AcDbDictionary
281
     1
  3
ACAD_GROUP
350
D
  0
DICTIONARY
  5
D
102
{ACAD_REACTORS
330
C
102
}
330
C
100
AcDbDictionary
281
     1
  0
ENDSEC
  0
EOF
